<svg width="358" height="109" viewBox="0 0 358 109" fill="none" xmlns="http://www.w3.org/2000/svg">
<g filter="url(#filter0_d_87_26)">
<g opacity="0.5" filter="url(#filter1_d_87_26)">
<path d="M4 30C4 13.4314 17.4315 0 34 0H324C340.569 0 354 13.4315 354 30V70.8234C354 87.392 340.569 100.823 324 100.823H34C17.4315 100.823 4 87.392 4 70.8234V30Z" fill="#0859D2"/>
<path d="M34 0.5H324C340.292 0.5 353.5 13.7076 353.5 30V70.8234C353.5 87.1158 340.292 100.323 324 100.323H34C17.7076 100.323 4.5 87.1158 4.5 70.8234V30C4.5 13.7076 17.7076 0.5 34 0.5Z" stroke="white"/>
</g>
<g filter="url(#filter2_d_87_26)">
<mask id="path-3-outside-1_87_26" maskUnits="userSpaceOnUse" x="118" y="40" width="103" height="27" fill="black">
<rect fill="white" x="118" y="40" width="103" height="27"/>
<path d="M126.301 60H124.323V47.3535C124.323 46.8734 124.323 46.4624 124.323 46.1206C124.331 45.7707 124.34 45.4533 124.348 45.1685C124.364 44.8755 124.384 44.5785 124.409 44.2773C124.156 44.5378 123.92 44.7616 123.701 44.9487C123.481 45.1278 123.208 45.3516 122.883 45.6201L120.844 47.2559L119.782 45.8765L124.616 42.1533H126.301V60ZM144.855 51.0522C144.855 52.5008 144.746 53.7948 144.526 54.9341C144.306 56.0734 143.96 57.0378 143.488 57.8271C143.016 58.6165 142.406 59.2188 141.657 59.6338C140.909 60.0407 140.009 60.2441 138.959 60.2441C137.633 60.2441 136.534 59.882 135.664 59.1577C134.801 58.4334 134.154 57.3877 133.723 56.0205C133.299 54.6452 133.088 52.9891 133.088 51.0522C133.088 49.1479 133.279 47.5122 133.662 46.145C134.052 44.7697 134.679 43.7158 135.542 42.9834C136.404 42.2428 137.543 41.8726 138.959 41.8726C140.302 41.8726 141.409 42.2388 142.28 42.9712C143.151 43.6955 143.798 44.7453 144.221 46.1206C144.644 47.4878 144.855 49.1317 144.855 51.0522ZM135.126 51.0522C135.126 52.7124 135.253 54.0959 135.505 55.2026C135.757 56.3094 136.164 57.1395 136.726 57.6929C137.295 58.2381 138.04 58.5107 138.959 58.5107C139.879 58.5107 140.62 58.2381 141.181 57.6929C141.751 57.1476 142.162 56.3216 142.414 55.2148C142.674 54.1081 142.805 52.7205 142.805 51.0522C142.805 49.4165 142.679 48.0493 142.426 46.9507C142.174 45.8439 141.767 45.0138 141.206 44.4604C140.644 43.8989 139.895 43.6182 138.959 43.6182C138.024 43.6182 137.275 43.8989 136.713 44.4604C136.152 45.0138 135.745 45.8439 135.493 46.9507C135.249 48.0493 135.126 49.4165 135.126 51.0522ZM159.162 51.0522C159.162 52.5008 159.052 53.7948 158.833 54.9341C158.613 56.0734 158.267 57.0378 157.795 57.8271C157.323 58.6165 156.713 59.2188 155.964 59.6338C155.215 60.0407 154.316 60.2441 153.266 60.2441C151.94 60.2441 150.841 59.882 149.97 59.1577C149.108 58.4334 148.461 57.3877 148.029 56.0205C147.606 54.6452 147.395 52.9891 147.395 51.0522C147.395 49.1479 147.586 47.5122 147.968 46.145C148.359 44.7697 148.986 43.7158 149.848 42.9834C150.711 42.2428 151.85 41.8726 153.266 41.8726C154.609 41.8726 155.716 42.2388 156.586 42.9712C157.457 43.6955 158.104 44.7453 158.527 46.1206C158.951 47.4878 159.162 49.1317 159.162 51.0522ZM149.433 51.0522C149.433 52.7124 149.559 54.0959 149.812 55.2026C150.064 56.3094 150.471 57.1395 151.032 57.6929C151.602 58.2381 152.347 58.5107 153.266 58.5107C154.186 58.5107 154.926 58.2381 155.488 57.6929C156.057 57.1476 156.468 56.3216 156.721 55.2148C156.981 54.1081 157.111 52.7205 157.111 51.0522C157.111 49.4165 156.985 48.0493 156.733 46.9507C156.481 45.8439 156.074 45.0138 155.512 44.4604C154.951 43.8989 154.202 43.6182 153.266 43.6182C152.33 43.6182 151.582 43.8989 151.02 44.4604C150.458 45.0138 150.052 45.8439 149.799 46.9507C149.555 48.0493 149.433 49.4165 149.433 51.0522ZM166.767 61.4526V58.8892C165.831 58.8729 164.936 58.7915 164.082 58.645C163.235 58.4985 162.543 58.3073 162.006 58.0713V56.0938C162.568 56.3542 163.288 56.582 164.167 56.7773C165.046 56.9727 165.913 57.0785 166.767 57.0947V51.7236C165.693 51.4225 164.802 51.0807 164.094 50.6982C163.394 50.3076 162.869 49.8315 162.519 49.27C162.169 48.7085 161.994 48.029 161.994 47.2314C161.994 46.4014 162.189 45.6934 162.58 45.1074C162.979 44.5133 163.536 44.0495 164.252 43.7158C164.969 43.3822 165.807 43.1909 166.767 43.1421V41.0303H168.256V43.1177C169.127 43.1421 169.921 43.2397 170.637 43.4106C171.353 43.5734 172.016 43.785 172.626 44.0454L171.992 45.7422C171.438 45.5225 170.84 45.3353 170.197 45.1807C169.554 45.026 168.907 44.9202 168.256 44.8633V50.1978C169.347 50.5151 170.258 50.8529 170.991 51.2109C171.731 51.569 172.289 52.0125 172.663 52.5415C173.037 53.0705 173.225 53.7541 173.225 54.5923C173.225 55.7804 172.789 56.7407 171.918 57.4731C171.048 58.1974 169.827 58.6369 168.256 58.7915V61.4526H166.767ZM168.256 56.9849C169.257 56.8872 170.002 56.6471 170.49 56.2646C170.987 55.874 171.235 55.3613 171.235 54.7266C171.235 54.2708 171.137 53.8965 170.942 53.6035C170.755 53.3105 170.445 53.0583 170.014 52.8467C169.583 52.627 168.997 52.4194 168.256 52.2241V56.9849ZM166.767 49.6851V44.9121C166.157 44.9528 165.644 45.0667 165.229 45.2539C164.814 45.4411 164.501 45.6852 164.289 45.9863C164.086 46.2874 163.984 46.6455 163.984 47.0605C163.984 47.5407 164.073 47.9435 164.252 48.269C164.44 48.5864 164.737 48.859 165.144 49.0869C165.559 49.3066 166.1 49.506 166.767 49.6851ZM183.649 42.1533L177.009 60H175.007L181.66 42.1533H183.649ZM192.353 46.377C194.021 46.377 195.352 46.9507 196.345 48.0981C197.338 49.2456 197.834 50.9709 197.834 53.2739C197.834 54.7957 197.606 56.0734 197.15 57.1069C196.695 58.1405 196.052 58.9217 195.222 59.4507C194.4 59.9797 193.427 60.2441 192.304 60.2441C191.596 60.2441 190.974 60.1506 190.437 59.9634C189.899 59.7762 189.44 59.5239 189.057 59.2065C188.675 58.8892 188.357 58.5433 188.105 58.1689H187.958C187.983 58.4863 188.011 58.8688 188.044 59.3164C188.085 59.764 188.105 60.1546 188.105 60.4883V65.9814H186.066V46.6211H187.739L188.007 48.5986H188.105C188.365 48.1917 188.683 47.8215 189.057 47.4878C189.431 47.146 189.887 46.8774 190.424 46.6821C190.97 46.4787 191.612 46.377 192.353 46.377ZM191.999 48.0859C191.071 48.0859 190.323 48.265 189.753 48.623C189.191 48.9811 188.78 49.5182 188.52 50.2344C188.26 50.9424 188.121 51.8335 188.105 52.9077V53.2983C188.105 54.4295 188.227 55.3857 188.471 56.167C188.723 56.9482 189.134 57.5423 189.704 57.9492C190.282 58.3561 191.055 58.5596 192.023 58.5596C192.854 58.5596 193.545 58.3358 194.099 57.8882C194.652 57.4406 195.063 56.818 195.332 56.0205C195.608 55.2148 195.747 54.2912 195.747 53.2495C195.747 51.6707 195.437 50.4175 194.819 49.4897C194.208 48.5539 193.269 48.0859 191.999 48.0859ZM203.4 46.6211V60H201.374V46.6211H203.4ZM202.412 41.6162C202.745 41.6162 203.03 41.7261 203.266 41.9458C203.51 42.1574 203.632 42.491 203.632 42.9468C203.632 43.3944 203.51 43.728 203.266 43.9478C203.03 44.1675 202.745 44.2773 202.412 44.2773C202.062 44.2773 201.769 44.1675 201.533 43.9478C201.305 43.728 201.191 43.3944 201.191 42.9468C201.191 42.491 201.305 42.1574 201.533 41.9458C201.769 41.7261 202.062 41.6162 202.412 41.6162ZM215.498 46.6211H217.731L211.958 53.0786L218.195 60H215.815L209.736 53.2129V60H207.697V46.6211H209.736V53.1152L215.498 46.6211Z"/>
</mask>
<path d="M126.301 60H124.323V47.3535C124.323 46.8734 124.323 46.4624 124.323 46.1206C124.331 45.7707 124.34 45.4533 124.348 45.1685C124.364 44.8755 124.384 44.5785 124.409 44.2773C124.156 44.5378 123.92 44.7616 123.701 44.9487C123.481 45.1278 123.208 45.3516 122.883 45.6201L120.844 47.2559L119.782 45.8765L124.616 42.1533H126.301V60ZM144.855 51.0522C144.855 52.5008 144.746 53.7948 144.526 54.9341C144.306 56.0734 143.96 57.0378 143.488 57.8271C143.016 58.6165 142.406 59.2188 141.657 59.6338C140.909 60.0407 140.009 60.2441 138.959 60.2441C137.633 60.2441 136.534 59.882 135.664 59.1577C134.801 58.4334 134.154 57.3877 133.723 56.0205C133.299 54.6452 133.088 52.9891 133.088 51.0522C133.088 49.1479 133.279 47.5122 133.662 46.145C134.052 44.7697 134.679 43.7158 135.542 42.9834C136.404 42.2428 137.543 41.8726 138.959 41.8726C140.302 41.8726 141.409 42.2388 142.28 42.9712C143.151 43.6955 143.798 44.7453 144.221 46.1206C144.644 47.4878 144.855 49.1317 144.855 51.0522ZM135.126 51.0522C135.126 52.7124 135.253 54.0959 135.505 55.2026C135.757 56.3094 136.164 57.1395 136.726 57.6929C137.295 58.2381 138.04 58.5107 138.959 58.5107C139.879 58.5107 140.62 58.2381 141.181 57.6929C141.751 57.1476 142.162 56.3216 142.414 55.2148C142.674 54.1081 142.805 52.7205 142.805 51.0522C142.805 49.4165 142.679 48.0493 142.426 46.9507C142.174 45.8439 141.767 45.0138 141.206 44.4604C140.644 43.8989 139.895 43.6182 138.959 43.6182C138.024 43.6182 137.275 43.8989 136.713 44.4604C136.152 45.0138 135.745 45.8439 135.493 46.9507C135.249 48.0493 135.126 49.4165 135.126 51.0522ZM159.162 51.0522C159.162 52.5008 159.052 53.7948 158.833 54.9341C158.613 56.0734 158.267 57.0378 157.795 57.8271C157.323 58.6165 156.713 59.2188 155.964 59.6338C155.215 60.0407 154.316 60.2441 153.266 60.2441C151.94 60.2441 150.841 59.882 149.97 59.1577C149.108 58.4334 148.461 57.3877 148.029 56.0205C147.606 54.6452 147.395 52.9891 147.395 51.0522C147.395 49.1479 147.586 47.5122 147.968 46.145C148.359 44.7697 148.986 43.7158 149.848 42.9834C150.711 42.2428 151.85 41.8726 153.266 41.8726C154.609 41.8726 155.716 42.2388 156.586 42.9712C157.457 43.6955 158.104 44.7453 158.527 46.1206C158.951 47.4878 159.162 49.1317 159.162 51.0522ZM149.433 51.0522C149.433 52.7124 149.559 54.0959 149.812 55.2026C150.064 56.3094 150.471 57.1395 151.032 57.6929C151.602 58.2381 152.347 58.5107 153.266 58.5107C154.186 58.5107 154.926 58.2381 155.488 57.6929C156.057 57.1476 156.468 56.3216 156.721 55.2148C156.981 54.1081 157.111 52.7205 157.111 51.0522C157.111 49.4165 156.985 48.0493 156.733 46.9507C156.481 45.8439 156.074 45.0138 155.512 44.4604C154.951 43.8989 154.202 43.6182 153.266 43.6182C152.33 43.6182 151.582 43.8989 151.02 44.4604C150.458 45.0138 150.052 45.8439 149.799 46.9507C149.555 48.0493 149.433 49.4165 149.433 51.0522ZM166.767 61.4526V58.8892C165.831 58.8729 164.936 58.7915 164.082 58.645C163.235 58.4985 162.543 58.3073 162.006 58.0713V56.0938C162.568 56.3542 163.288 56.582 164.167 56.7773C165.046 56.9727 165.913 57.0785 166.767 57.0947V51.7236C165.693 51.4225 164.802 51.0807 164.094 50.6982C163.394 50.3076 162.869 49.8315 162.519 49.27C162.169 48.7085 161.994 48.029 161.994 47.2314C161.994 46.4014 162.189 45.6934 162.58 45.1074C162.979 44.5133 163.536 44.0495 164.252 43.7158C164.969 43.3822 165.807 43.1909 166.767 43.1421V41.0303H168.256V43.1177C169.127 43.1421 169.921 43.2397 170.637 43.4106C171.353 43.5734 172.016 43.785 172.626 44.0454L171.992 45.7422C171.438 45.5225 170.84 45.3353 170.197 45.1807C169.554 45.026 168.907 44.9202 168.256 44.8633V50.1978C169.347 50.5151 170.258 50.8529 170.991 51.2109C171.731 51.569 172.289 52.0125 172.663 52.5415C173.037 53.0705 173.225 53.7541 173.225 54.5923C173.225 55.7804 172.789 56.7407 171.918 57.4731C171.048 58.1974 169.827 58.6369 168.256 58.7915V61.4526H166.767ZM168.256 56.9849C169.257 56.8872 170.002 56.6471 170.49 56.2646C170.987 55.874 171.235 55.3613 171.235 54.7266C171.235 54.2708 171.137 53.8965 170.942 53.6035C170.755 53.3105 170.445 53.0583 170.014 52.8467C169.583 52.627 168.997 52.4194 168.256 52.2241V56.9849ZM166.767 49.6851V44.9121C166.157 44.9528 165.644 45.0667 165.229 45.2539C164.814 45.4411 164.501 45.6852 164.289 45.9863C164.086 46.2874 163.984 46.6455 163.984 47.0605C163.984 47.5407 164.073 47.9435 164.252 48.269C164.44 48.5864 164.737 48.859 165.144 49.0869C165.559 49.3066 166.1 49.506 166.767 49.6851ZM183.649 42.1533L177.009 60H175.007L181.66 42.1533H183.649ZM192.353 46.377C194.021 46.377 195.352 46.9507 196.345 48.0981C197.338 49.2456 197.834 50.9709 197.834 53.2739C197.834 54.7957 197.606 56.0734 197.15 57.1069C196.695 58.1405 196.052 58.9217 195.222 59.4507C194.4 59.9797 193.427 60.2441 192.304 60.2441C191.596 60.2441 190.974 60.1506 190.437 59.9634C189.899 59.7762 189.44 59.5239 189.057 59.2065C188.675 58.8892 188.357 58.5433 188.105 58.1689H187.958C187.983 58.4863 188.011 58.8688 188.044 59.3164C188.085 59.764 188.105 60.1546 188.105 60.4883V65.9814H186.066V46.6211H187.739L188.007 48.5986H188.105C188.365 48.1917 188.683 47.8215 189.057 47.4878C189.431 47.146 189.887 46.8774 190.424 46.6821C190.97 46.4787 191.612 46.377 192.353 46.377ZM191.999 48.0859C191.071 48.0859 190.323 48.265 189.753 48.623C189.191 48.9811 188.78 49.5182 188.52 50.2344C188.26 50.9424 188.121 51.8335 188.105 52.9077V53.2983C188.105 54.4295 188.227 55.3857 188.471 56.167C188.723 56.9482 189.134 57.5423 189.704 57.9492C190.282 58.3561 191.055 58.5596 192.023 58.5596C192.854 58.5596 193.545 58.3358 194.099 57.8882C194.652 57.4406 195.063 56.818 195.332 56.0205C195.608 55.2148 195.747 54.2912 195.747 53.2495C195.747 51.6707 195.437 50.4175 194.819 49.4897C194.208 48.5539 193.269 48.0859 191.999 48.0859ZM203.4 46.6211V60H201.374V46.6211H203.4ZM202.412 41.6162C202.745 41.6162 203.03 41.7261 203.266 41.9458C203.51 42.1574 203.632 42.491 203.632 42.9468C203.632 43.3944 203.51 43.728 203.266 43.9478C203.03 44.1675 202.745 44.2773 202.412 44.2773C202.062 44.2773 201.769 44.1675 201.533 43.9478C201.305 43.728 201.191 43.3944 201.191 42.9468C201.191 42.491 201.305 42.1574 201.533 41.9458C201.769 41.7261 202.062 41.6162 202.412 41.6162ZM215.498 46.6211H217.731L211.958 53.0786L218.195 60H215.815L209.736 53.2129V60H207.697V46.6211H209.736V53.1152L215.498 46.6211Z" fill="white"/>
<path d="M126.301 60V61H127.301V60H126.301ZM124.323 60H123.323V61H124.323V60ZM124.323 46.1206L123.324 46.0974L123.323 46.109V46.1206H124.323ZM124.348 45.1685L123.349 45.113L123.348 45.1264L123.348 45.1399L124.348 45.1685ZM124.409 44.2773L125.405 44.3582L125.631 41.5786L123.69 43.5815L124.409 44.2773ZM123.701 44.9487L124.332 45.724L124.341 45.7171L124.349 45.71L123.701 44.9487ZM122.883 45.6201L123.509 46.4001L123.519 46.3915L122.883 45.6201ZM120.844 47.2559L120.052 47.8659L120.674 48.6743L121.47 48.0358L120.844 47.2559ZM119.782 45.8765L119.172 45.0842L118.38 45.6943L118.99 46.4865L119.782 45.8765ZM124.616 42.1533V41.1533H124.276L124.006 41.3611L124.616 42.1533ZM126.301 42.1533H127.301V41.1533H126.301V42.1533ZM126.301 59H124.323V61H126.301V59ZM125.323 60V47.3535H123.323V60H125.323ZM125.323 47.3535C125.323 47.3526 125.323 47.3516 125.323 47.3507C125.323 47.3498 125.323 47.3488 125.323 47.3479C125.323 47.347 125.323 47.346 125.323 47.3451C125.323 47.3441 125.323 47.3432 125.323 47.3423C125.323 47.3413 125.323 47.3404 125.323 47.3395C125.323 47.3385 125.323 47.3376 125.323 47.3367C125.323 47.3357 125.323 47.3348 125.323 47.3339C125.323 47.3329 125.323 47.332 125.323 47.3311C125.323 47.3301 125.323 47.3292 125.323 47.3283C125.323 47.3273 125.323 47.3264 125.323 47.3255C125.323 47.3245 125.323 47.3236 125.323 47.3227C125.323 47.3217 125.323 47.3208 125.323 47.3199C125.323 47.3189 125.323 47.318 125.323 47.3171C125.323 47.3161 125.323 47.3152 125.323 47.3143C125.323 47.3134 125.323 47.3124 125.323 47.3115C125.323 47.3106 125.323 47.3096 125.323 47.3087C125.323 47.3078 125.323 47.3068 125.323 47.3059C125.323 47.305 125.323 47.3041 125.323 47.3031C125.323 47.3022 125.323 47.3013 125.323 47.3003C125.323 47.2994 125.323 47.2985 125.323 47.2976C125.323 47.2966 125.323 47.2957 125.323 47.2948C125.323 47.2939 125.323 47.2929 125.323 47.292C125.323 47.2911 125.323 47.2902 125.323 47.2892C125.323 47.2883 125.323 47.2874 125.323 47.2865C125.323 47.2855 125.323 47.2846 125.323 47.2837C125.323 47.2828 125.323 47.2818 125.323 47.2809C125.323 47.28 125.323 47.2791 125.323 47.2781C125.323 47.2772 125.323 47.2763 125.323 47.2754C125.323 47.2744 125.323 47.2735 125.323 47.2726C125.323 47.2717 125.323 47.2707 125.323 47.2698C125.323 47.2689 125.323 47.268 125.323 47.2671C125.323 47.2661 125.323 47.2652 125.323 47.2643C125.323 47.2634 125.323 47.2625 125.323 47.2615C125.323 47.2606 125.323 47.2597 125.323 47.2588C125.323 47.2579 125.323 47.2569 125.323 47.256C125.323 47.2551 125.323 47.2542 125.323 47.2533C125.323 47.2523 125.323 47.2514 125.323 47.2505C125.323 47.2496 125.323 47.2487 125.323 47.2478C125.323 47.2468 125.323 47.2459 125.323 47.245C125.323 47.2441 125.323 47.2432 125.323 47.2422C125.323 47.2413 125.323 47.2404 125.323 47.2395C125.323 47.2386 125.323 47.2377 125.323 47.2368C125.323 47.2358 125.323 47.2349 125.323 47.234C125.323 47.2331 125.323 47.2322 125.323 47.2313C125.323 47.2303 125.323 47.2294 125.323 47.2285C125.323 47.2276 125.323 47.2267 125.323 47.2258C125.323 47.2249 125.323 47.224 125.323 47.223C125.323 47.2221 125.323 47.2212 125.323 47.2203C125.323 47.2194 125.323 47.2185 125.323 47.2176C125.323 47.2167 125.323 47.2157 125.323 47.2148C125.323 47.2139 125.323 47.213 125.323 47.2121C125.323 47.2112 125.323 47.2103 125.323 47.2094C125.323 47.2085 125.323 47.2075 125.323 47.2066C125.323 47.2057 125.323 47.2048 125.323 47.2039C125.323 47.203 125.323 47.2021 125.323 47.2012C125.323 47.2003 125.323 47.1994 125.323 47.1985C125.323 47.1975 125.323 47.1966 125.323 47.1957C125.323 47.1948 125.323 47.1939 125.323 47.193C125.323 47.1921 125.323 47.1912 125.323 47.1903C125.323 47.1894 125.323 47.1885 125.323 47.1876C125.323 47.1867 125.323 47.1858 125.323 47.1848C125.323 47.1839 125.323 47.183 125.323 47.1821C125.323 47.1812 125.323 47.1803 125.323 47.1794C125.323 47.1785 125.323 47.1776 125.323 47.1767C125.323 47.1758 125.323 47.1749 125.323 47.174C125.323 47.1731 125.323 47.1722 125.323 47.1713C125.323 47.1704 125.323 47.1695 125.323 47.1686C125.323 47.1677 125.323 47.1668 125.323 47.1659C125.323 47.165 125.323 47.1641 125.323 47.1632C125.323 47.1623 125.323 47.1614 125.323 47.1605C125.323 47.1596 125.323 47.1587 125.323 47.1578C125.323 47.1569 125.323 47.156 125.323 47.1551C125.323 47.1542 125.323 47.1533 125.323 47.1524C125.323 47.1515 125.323 47.1506 125.323 47.1497C125.323 47.1488 125.323 47.1479 125.323 47.147C125.323 47.1461 125.323 47.1452 125.323 47.1443C125.323 47.1434 125.323 47.1425 125.323 47.1416C125.323 47.1407 125.323 47.1398 125.323 47.1389C125.323 47.138 125.323 47.1371 125.323 47.1362C125.323 47.1353 125.323 47.1344 125.323 47.1335C125.323 47.1326 125.323 47.1317 125.323 47.1308C125.323 47.1299 125.323 47.129 125.323 47.1281C125.323 47.1273 125.323 47.1264 125.323 47.1255C125.323 47.1246 125.323 47.1237 125.323 47.1228C125.323 47.1219 125.323 47.121 125.323 47.1201C125.323 47.1192 125.323 47.1183 125.323 47.1174C125.323 47.1165 125.323 47.1156 125.323 47.1147C125.323 47.1139 125.323 47.113 125.323 47.1121C125.323 47.1112 125.323 47.1103 125.323 47.1094C125.323 47.1085 125.323 47.1076 125.323 47.1067C125.323 47.1058 125.323 47.1049 125.323 47.1041C125.323 47.1032 125.323 47.1023 125.323 47.1014C125.323 47.1005 125.323 47.0996 125.323 47.0987C125.323 47.0978 125.323 47.0969 125.323 47.0961C125.323 47.0952 125.323 47.0943 125.323 47.0934C125.323 47.0925 125.323 47.0916 125.323 47.0907C125.323 47.0898 125.323 47.089 125.323 47.0881C125.323 47.0872 125.323 47.0863 125.323 47.0854C125.323 47.0845 125.323 47.0836 125.323 47.0828C125.323 47.0819 125.323 47.081 125.323 47.0801C125.323 47.0792 125.323 47.0783 125.323 47.0774C125.323 47.0766 125.323 47.0757 125.323 47.0748C125.323 47.0739 125.323 47.073 125.323 47.0721C125.323 47.0713 125.323 47.0704 125.323 47.0695C125.323 47.0686 125.323 47.0677 125.323 47.0668C125.323 47.066 125.323 47.0651 125.323 47.0642C125.323 47.0633 125.323 47.0624 125.323 47.0616C125.323 47.0607 125.323 47.0598 125.323 47.0589C125.323 47.058 125.323 47.0571 125.323 47.0563C125.323 47.0554 125.323 47.0545 125.323 47.0536C125.323 47.0527 125.323 47.0519 125.323 47.051C125.323 47.0501 125.323 47.0492 125.323 47.0484C125.323 47.0475 125.323 47.0466 125.323 47.0457C125.323 47.0448 125.323 47.044 125.323 47.0431C125.323 47.0422 125.323 47.0413 125.323 47.0405C125.323 47.0396 125.323 47.0387 125.323 47.0378C125.323 47.0369 125.323 47.0361 125.323 47.0352C125.323 47.0343 125.323 47.0334 125.323 47.0326C125.323 47.0317 125.323 47.0308 125.323 47.0299C125.323 47.0291 125.323 47.0282 125.323 47.0273C125.323 47.0264 125.323 47.0256 125.323 47.0247C125.323 47.0238 125.323 47.0229 125.323 47.0221C125.323 47.0212 125.323 47.0203 125.323 47.0195C125.323 47.0186 125.323 47.0177 125.323 47.0168C125.323 47.016 125.323 47.0151 125.323 47.0142C125.323 47.0133 125.323 47.0125 125.323 47.0116C125.323 47.0107 125.323 47.0099 125.323 47.009C125.323 47.0081 125.323 47.0072 125.323 47.0064C125.323 47.0055 125.323 47.0046 125.323 47.0038C125.323 47.0029 125.323 47.002 125.323 47.0012C125.323 47.0003 125.323 46.9994 125.323 46.9986C125.323 46.9977 125.323 46.9968 125.323 46.9959C125.323 46.9951 125.323 46.9942 125.323 46.9933C125.323 46.9925 125.323 46.9916 125.323 46.9907C125.323 46.9899 125.323 46.989 125.323 46.9881C125.323 46.9873 125.323 46.9864 125.323 46.9855C125.323 46.9847 125.323 46.9838 125.323 46.9829C125.323 46.9821 125.323 46.9812 125.323 46.9804C125.323 46.9795 125.323 46.9786 125.323 46.9778C125.323 46.9769 125.323 46.976 125.323 46.9752C125.323 46.9743 125.323 46.9734 125.323 46.9726C125.323 46.9717 125.323 46.9708 125.323 46.97C125.323 46.9691 125.323 46.9683 125.323 46.9674C125.323 46.9665 125.323 46.9657 125.323 46.9648C125.323 46.9639 125.323 46.9631 125.323 46.9622C125.323 46.9614 125.323 46.9605 125.323 46.9596C125.323 46.9588 125.323 46.9579 125.323 46.9571C125.323 46.9562 125.323 46.9553 125.323 46.9545C125.323 46.9536 125.323 46.9528 125.323 46.9519C125.323 46.951 125.323 46.9502 125.323 46.9493C125.323 46.9485 125.323 46.9476 125.323 46.9468C125.323 46.9459 125.323 46.945 125.323 46.9442C125.323 46.9433 125.323 46.9425 125.323 46.9416C125.323 46.9407 125.323 46.9399 125.323 46.939C125.323 46.9382 125.323 46.9373 125.323 46.9365C125.323 46.9356 125.323 46.9348 125.323 46.9339C125.323 46.933 125.323 46.9322 125.323 46.9313C125.323 46.9305 125.323 46.9296 125.323 46.9288C125.323 46.9279 125.323 46.9271 125.323 46.9262C125.323 46.9254 125.323 46.9245 125.323 46.9236C125.323 46.9228 125.323 46.9219 125.323 46.9211C125.323 46.9202 125.323 46.9194 125.323 46.9185C125.323 46.9177 125.323 46.9168 125.323 46.916C125.323 46.9151 125.323 46.9143 125.323 46.9134C125.323 46.9126 125.323 46.9117 125.323 46.9109C125.323 46.91 125.323 46.9092 125.323 46.9083C125.323 46.9075 125.323 46.9066 125.323 46.9058C125.323 46.9049 125.323 46.9041 125.323 46.9032C125.323 46.9024 125.323 46.9015 125.323 46.9007C125.323 46.8998 125.323 46.899 125.323 46.8981C125.323 46.8973 125.323 46.8964 125.323 46.8956C125.323 46.8947 125.323 46.8939 125.323 46.893C125.323 46.8922 125.323 46.8913 125.323 46.8905C125.323 46.8897 125.323 46.8888 125.323 46.888C125.323 46.8871 125.323 46.8863 125.323 46.8854C125.323 46.8846 125.323 46.8837 125.323 46.8829C125.323 46.882 125.323 46.8812 125.323 46.8804C125.323 46.8795 125.323 46.8787 125.323 46.8778C125.323 46.877 125.323 46.8761 125.323 46.8753C125.323 46.8744 125.323 46.8736 125.323 46.8728C125.323 46.8719 125.323 46.8711 125.323 46.8702C125.323 46.8694 125.323 46.8686 125.323 46.8677C125.323 46.8669 125.323 46.866 125.323 46.8652C125.323 46.8643 125.323 46.8635 125.323 46.8627C125.323 46.8618 125.323 46.861 125.323 46.8601C125.323 46.8593 125.323 46.8585 125.323 46.8576C125.323 46.8568 125.323 46.8559 125.323 46.8551C125.323 46.8543 125.323 46.8534 125.323 46.8526C125.323 46.8517 125.323 46.8509 125.323 46.8501C125.323 46.8492 125.323 46.8484 125.323 46.8476C125.323 46.8467 125.323 46.8459 125.323 46.845C125.323 46.8442 125.323 46.8434 125.323 46.8425C125.323 46.8417 125.323 46.8409 125.323 46.84C125.323 46.8392 125.323 46.8384 125.323 46.8375C125.323 46.8367 125.323 46.8359 125.323 46.835C125.323 46.8342 125.323 46.8333 125.323 46.8325C125.323 46.8317 125.323 46.8308 125.323 46.83C125.323 46.8292 125.323 46.8283 125.323 46.8275C125.323 46.8267 125.323 46.8258 125.323 46.825C125.323 46.8242 125.323 46.8233 125.323 46.8225C125.323 46.8217 125.323 46.8208 125.323 46.82C125.323 46.8192 125.323 46.8184 125.323 46.8175C125.323 46.8167 125.323 46.8159 125.323 46.815C125.323 46.8142 125.323 46.8134 125.323 46.8125C125.323 46.8117 125.323 46.8109 125.323 46.81C125.323 46.8092 125.323 46.8084 125.323 46.8076C125.323 46.8067 125.323 46.8059 125.323 46.8051C125.323 46.8042 125.323 46.8034 125.323 46.8026C125.323 46.8018 125.323 46.8009 125.323 46.8001C125.323 46.7993 125.323 46.7985 125.323 46.7976C125.323 46.7968 125.323 46.796 125.323 46.7951C125.323 46.7943 125.323 46.7935 125.323 46.7927C125.323 46.7918 125.323 46.791 125.323 46.7902C125.323 46.7894 125.323 46.7885 125.323 46.7877C125.323 46.7869 125.323 46.7861 125.323 46.7852C125.323 46.7844 125.323 46.7836 125.323 46.7828C125.323 46.7819 125.323 46.7811 125.323 46.7803C125.323 46.7795 125.323 46.7787 125.323 46.7778C125.323 46.777 125.323 46.7762 125.323 46.7754C125.323 46.7745 125.323 46.7737 125.323 46.7729C125.323 46.7721 125.323 46.7713 125.323 46.7704C125.323 46.7696 125.323 46.7688 125.323 46.768C125.323 46.7671 125.323 46.7663 125.323 46.7655C125.323 46.7647 125.323 46.7639 125.323 46.763C125.323 46.7622 125.323 46.7614 125.323 46.7606C125.323 46.7598 125.323 46.759 125.323 46.7581C125.323 46.7573 125.323 46.7565 125.323 46.7557C125.323 46.7549 125.323 46.754 125.323 46.7532C125.323 46.7524 125.323 46.7516 125.323 46.7508C125.323 46.75 125.323 46.7491 125.323 46.7483C125.323 46.7475 125.323 46.7467 125.323 46.7459C125.323 46.7451 125.323 46.7442 125.323 46.7434C125.323 46.7426 125.323 46.7418 125.323 46.741C125.323 46.7402 125.323 46.7394 125.323 46.7385C125.323 46.7377 125.323 46.7369 125.323 46.7361C125.323 46.7353 125.323 46.7345 125.323 46.7337C125.323 46.7328 125.323 46.732 125.323 46.7312C125.323 46.7304 125.323 46.7296 125.323 46.7288C125.323 46.728 125.323 46.7272 125.323 46.7263C125.323 46.7255 125.323 46.7247 125.323 46.7239C125.323 46.7231 125.323 46.7223 125.323 46.7215C125.323 46.7207 125.323 46.7199 125.323 46.719C125.323 46.7182 125.323 46.7174 125.323 46.7166C125.323 46.7158 125.323 46.715 125.323 46.7142C125.323 46.7134 125.323 46.7126 125.323 46.7118C125.323 46.711 125.323 46.7101 125.323 46.7093C125.323 46.7085 125.323 46.7077 125.323 46.7069C125.323 46.7061 125.323 46.7053 125.323 46.7045C125.323 46.7037 125.323 46.7029 125.323 46.7021C125.323 46.7013 125.323 46.7005 125.323 46.6997C125.323 46.6989 125.323 46.698 125.323 46.6972C125.323 46.6964 125.323 46.6956 125.323 46.6948C125.323 46.694 125.323 46.6932 125.323 46.6924C125.323 46.6916 125.323 46.6908 125.323 46.69C125.323 46.6892 125.323 46.6884 125.323 46.6876C125.323 46.6868 125.323 46.686 125.323 46.6852C125.323 46.6844 125.323 46.6836 125.323 46.6828C125.323 46.682 125.323 46.6812 125.323 46.6804C125.323 46.6796 125.323 46.6788 125.323 46.678C125.323 46.6772 125.323 46.6764 125.323 46.6756C125.323 46.6748 125.323 46.674 125.323 46.6732C125.323 46.6724 125.323 46.6716 125.323 46.6708C125.323 46.67 125.323 46.6692 125.323 46.6684C125.323 46.6676 125.323 46.6668 125.323 46.666C125.323 46.6652 125.323 46.6644 125.323 46.6636C125.323 46.6628 125.323 46.662 125.323 46.6612C125.323 46.6604 125.323 46.6596 125.323 46.6588C125.323 46.658 125.323 46.6572 125.323 46.6564C125.323 46.6556 125.323 46.6548 125.323 46.654C125.323 46.6532 125.323 46.6524 125.323 46.6516C125.323 46.6508 125.323 46.65 125.323 46.6492C125.323 46.6484 125.323 46.6476 125.323 46.6469C125.323 46.6461 125.323 46.6453 125.323 46.6445C125.323 46.6437 125.323 46.6429 125.323 46.6421C125.323 46.6413 125.323 46.6405 125.323 46.6397C125.323 46.6389 125.323 46.6381 125.323 46.6373C125.323 46.6365 125.323 46.6358 125.323 46.635C125.323 46.6342 125.323 46.6334 125.323 46.6326C125.323 46.6318 125.323 46.631 125.323 46.6302C125.323 46.6294 125.323 46.6286 125.323 46.6278C125.323 46.6271 125.323 46.6263 125.323 46.6255C125.323 46.6247 125.323 46.6239 125.323 46.6231C125.323 46.6223 125.323 46.6215 125.323 46.6207C125.323 46.62 125.323 46.6192 125.323 46.6184C125.323 46.6176 125.323 46.6168 125.323 46.616C125.323 46.6152 125.323 46.6144 125.323 46.6137C125.323 46.6129 125.323 46.6121 125.323 46.6113C125.323 46.6105 125.323 46.6097 125.323 46.6089C125.323 46.6081 125.323 46.6074 125.323 46.6066C125.323 46.6058 125.323 46.605 125.323 46.6042C125.323 46.6034 125.323 46.6027 125.323 46.6019C125.323 46.6011 125.323 46.6003 125.323 46.5995C125.323 46.5987 125.323 46.598 125.323 46.5972C125.323 46.5964 125.323 46.5956 125.323 46.5948C125.323 46.594 125.323 46.5933 125.323 46.5925C125.323 46.5917 125.323 46.5909 125.323 46.5901C125.323 46.5893 125.323 46.5886 125.323 46.5878C125.323 46.587 125.323 46.5862 125.323 46.5854C125.323 46.5847 125.323 46.5839 125.323 46.5831C125.323 46.5823 125.323 46.5815 125.323 46.5808C125.323 46.58 125.323 46.5792 125.323 46.5784C125.323 46.5776 125.323 46.5769 125.323 46.5761C125.323 46.5753 125.323 46.5745 125.323 46.5738C125.323 46.573 125.323 46.5722 125.323 46.5714C125.323 46.5706 125.323 46.5699 125.323 46.5691C125.323 46.5683 125.323 46.5675 125.323 46.5668C125.323 46.566 125.323 46.5652 125.323 46.5644C125.323 46.5637 125.323 46.5629 125.323 46.5621C125.323 46.5613 125.323 46.5606 125.323 46.5598C125.323 46.559 125.323 46.5582 125.323 46.5575C125.323 46.5567 125.323 46.5559 125.323 46.5551C125.323 46.5544 125.323 46.5536 125.323 46.5528C125.323 46.552 125.323 46.5513 125.323 46.5505C125.323 46.5497 125.323 46.549 125.323 46.5482C125.323 46.5474 125.323 46.5466 125.323 46.5459C125.323 46.5451 125.323 46.5443 125.323 46.5435C125.323 46.5428 125.323 46.542 125.323 46.5412C125.323 46.5405 125.323 46.5397 125.323 46.5389C125.323 46.5382 125.323 46.5374 125.323 46.5366C125.323 46.5358 125.323 46.5351 125.323 46.5343C125.323 46.5335 125.323 46.5328 125.323 46.532C125.323 46.5312 125.323 46.5305 125.323 46.5297C125.323 46.5289 125.323 46.5282 125.323 46.5274C125.323 46.5266 125.323 46.5259 125.323 46.5251C125.323 46.5243 125.323 46.5236 125.323 46.5228C125.323 46.522 125.323 46.5213 125.323 46.5205C125.323 46.5197 125.323 46.519 125.323 46.5182C125.323 46.5174 125.323 46.5167 125.323 46.5159C125.323 46.5151 125.323 46.5144 125.323 46.5136C125.323 46.5128 125.323 46.5121 125.323 46.5113C125.323 46.5106 125.323 46.5098 125.323 46.509C125.323 46.5083 125.323 46.5075 125.323 46.5067C125.323 46.506 125.323 46.5052 125.323 46.5045C125.323 46.5037 125.323 46.5029 125.323 46.5022C125.323 46.5014 125.323 46.5006 125.323 46.4999C125.323 46.4991 125.323 46.4984 125.323 46.4976C125.323 46.4968 125.323 46.4961 125.323 46.4953C125.323 46.4946 125.323 46.4938 125.323 46.493C125.323 46.4923 125.323 46.4915 125.323 46.4908C125.323 46.49 125.323 46.4893 125.323 46.4885C125.323 46.4877 125.323 46.487 125.323 46.4862C125.323 46.4855 125.323 46.4847 125.323 46.4839C125.323 46.4832 125.323 46.4824 125.323 46.4817C125.323 46.4809 125.323 46.4802 125.323 46.4794C125.323 46.4786 125.323 46.4779 125.323 46.4771C125.323 46.4764 125.323 46.4756 125.323 46.4749C125.323 46.4741 125.323 46.4734 125.323 46.4726C125.323 46.4719 125.323 46.4711 125.323 46.4703C125.323 46.4696 125.323 46.4688 125.323 46.4681C125.323 46.4673 125.323 46.4666 125.323 46.4658C125.323 46.4651 125.323 46.4643 125.323 46.4636C125.323 46.4628 125.323 46.4621 125.323 46.4613C125.323 46.4606 125.323 46.4598 125.323 46.4591C125.323 46.4583 125.323 46.4575 125.323 46.4568C125.323 46.456 125.323 46.4553 125.323 46.4545C125.323 46.4538 125.323 46.453 125.323 46.4523C125.323 46.4515 125.323 46.4508 125.323 46.45C125.323 46.4493 125.323 46.4485 125.323 46.4478C125.323 46.447 125.323 46.4463 125.323 46.4456C125.323 46.4448 125.323 46.4441 125.323 46.4433C125.323 46.4426 125.323 46.4418 125.323 46.4411C125.323 46.4403 125.323 46.4396 125.323 46.4388C125.323 46.4381 125.323 46.4373 125.323 46.4366C125.323 46.4358 125.323 46.4351 125.323 46.4343C125.323 46.4336 125.323 46.4329 125.323 46.4321C125.323 46.4314 125.323 46.4306 125.323 46.4299C125.323 46.4291 125.323 46.4284 125.323 46.4276C125.323 46.4269 125.323 46.4262 125.323 46.4254C125.323 46.4247 125.323 46.4239 125.323 46.4232C125.323 46.4224 125.323 46.4217 125.323 46.421C125.323 46.4202 125.323 46.4195 125.323 46.4187C125.323 46.418 125.323 46.4172 125.323 46.4165C125.323 46.4158 125.323 46.415 125.323 46.4143C125.323 46.4135 125.323 46.4128 125.323 46.4121C125.323 46.4113 125.323 46.4106 125.323 46.4098C125.323 46.4091 125.323 46.4084 125.323 46.4076C125.323 46.4069 125.323 46.4061 125.323 46.4054C125.323 46.4047 125.323 46.4039 125.323 46.4032C125.323 46.4024 125.323 46.4017 125.323 46.401C125.323 46.4002 125.323 46.3995 125.323 46.3988C125.323 46.398 125.323 46.3973 125.323 46.3965C125.323 46.3958 125.323 46.3951 125.323 46.3943C125.323 46.3936 125.323 46.3929 125.323 46.3921C125.323 46.3914 125.323 46.3907 125.323 46.3899C125.323 46.3892 125.323 46.3885 125.323 46.3877C125.323 46.387 125.323 46.3862 125.323 46.3855C125.323 46.3848 125.323 46.384 125.323 46.3833C125.323 46.3826 125.323 46.3818 125.323 46.3811C125.323 46.3804 125.323 46.3796 125.323 46.3789C125.323 46.3782 125.323 46.3775 125.323 46.3767C125.323 46.376 125.323 46.3753 125.323 46.3745C125.323 46.3738 125.323 46.3731 125.323 46.3723C125.323 46.3716 125.323 46.3709 125.323 46.3701C125.323 46.3694 125.323 46.3687 125.323 46.3679C125.323 46.3672 125.323 46.3665 125.323 46.3658C125.323 46.365 125.323 46.3643 125.323 46.3636C125.323 46.3628 125.323 46.3621 125.323 46.3614C125.323 46.3607 125.323 46.3599 125.323 46.3592C125.323 46.3585 125.323 46.3577 125.323 46.357C125.323 46.3563 125.323 46.3556 125.323 46.3548C125.323 46.3541 125.323 46.3534 125.323 46.3527C125.323 46.3519 125.323 46.3512 125.323 46.3505C125.323 46.3498 125.323 46.349 125.323 46.3483C125.323 46.3476 125.323 46.3469 125.323 46.3461C125.323 46.3454 125.323 46.3447 125.323 46.344C125.323 46.3432 125.323 46.3425 125.323 46.3418C125.323 46.3411 125.323 46.3403 125.323 46.3396C125.323 46.3389 125.323 46.3382 125.323 46.3375C125.323 46.3367 125.323 46.336 125.323 46.3353C125.323 46.3346 125.323 46.3338 125.323 46.3331C125.323 46.3324 125.323 46.3317 125.323 46.331C125.323 46.3302 125.323 46.3295 125.323 46.3288C125.323 46.3281 125.323 46.3274 125.323 46.3266C125.323 46.3259 125.323 46.3252 125.323 46.3245C125.323 46.3238 125.323 46.323 125.323 46.3223C125.323 46.3216 125.323 46.3209 125.323 46.3202C125.323 46.3194 125.323 46.3187 125.323 46.318C125.323 46.3173 125.323 46.3166 125.323 46.3159C125.323 46.3151 125.323 46.3144 125.323 46.3137C125.323 46.313 125.323 46.3123 125.323 46.3116C125.323 46.3108 125.323 46.3101 125.323 46.3094C125.323 46.3087 125.323 46.308 125.323 46.3073C125.323 46.3065 125.323 46.3058 125.323 46.3051C125.323 46.3044 125.323 46.3037 125.323 46.303C125.323 46.3023 125.323 46.3015 125.323 46.3008C125.323 46.3001 125.323 46.2994 125.323 46.2987C125.323 46.298 125.323 46.2973 125.323 46.2966C125.323 46.2958 125.323 46.2951 125.323 46.2944C125.323 46.2937 125.323 46.293 125.323 46.2923C125.323 46.2916 125.323 46.2909 125.323 46.2902C125.323 46.2894 125.323 46.2887 125.323 46.288C125.323 46.2873 125.323 46.2866 125.323 46.2859C125.323 46.2852 125.323 46.2845 125.323 46.2838C125.323 46.2831 125.323 46.2823 125.323 46.2816C125.323 46.2809 125.323 46.2802 125.323 46.2795C125.323 46.2788 125.323 46.2781 125.323 46.2774C125.323 46.2767 125.323 46.276 125.323 46.2753C125.323 46.2746 125.323 46.2738 125.323 46.2731C125.323 46.2724 125.323 46.2717 125.323 46.271C125.323 46.2703 125.323 46.2696 125.323 46.2689C125.323 46.2682 125.323 46.2675 125.323 46.2668C125.323 46.2661 125.323 46.2654 125.323 46.2647C125.323 46.264 125.323 46.2633 125.323 46.2626C125.323 46.2619 125.323 46.2612 125.323 46.2605C125.323 46.2597 125.323 46.259 125.323 46.2583C125.323 46.2576 125.323 46.2569 125.323 46.2562C125.323 46.2555 125.323 46.2548 125.323 46.2541C125.323 46.2534 125.323 46.2527 125.323 46.252C125.323 46.2513 125.323 46.2506 125.323 46.2499C125.323 46.2492 125.323 46.2485 125.323 46.2478C125.323 46.2471 125.323 46.2464 125.323 46.2457C125.323 46.245 125.323 46.2443 125.323 46.2436C125.323 46.2429 125.323 46.2422 125.323 46.2415C125.323 46.2408 125.323 46.2401 125.323 46.2394C125.323 46.2387 125.323 46.238 125.323 46.2373C125.323 46.2366 125.323 46.2359 125.323 46.2352C125.323 46.2345 125.323 46.2338 125.323 46.2331C125.323 46.2325 125.323 46.2318 125.323 46.2311C125.323 46.2304 125.323 46.2297 125.323 46.229C125.323 46.2283 125.323 46.2276 125.323 46.2269C125.323 46.2262 125.323 46.2255 125.323 46.2248C125.323 46.2241 125.323 46.2234 125.323 46.2227C125.323 46.222 125.323 46.2213 125.323 46.2206C125.323 46.2199 125.323 46.2193 125.323 46.2186C125.323 46.2179 125.323 46.2172 125.323 46.2165C125.323 46.2158 125.323 46.2151 125.323 46.2144C125.323 46.2137 125.323 46.213 125.323 46.2123C125.323 46.2116 125.323 46.2109 125.323 46.2103C125.323 46.2096 125.323 46.2089 125.323 46.2082C125.323 46.2075 125.323 46.2068 125.323 46.2061C125.323 46.2054 125.323 46.2047 125.323 46.204C125.323 46.2034 125.323 46.2027 125.323 46.202C125.323 46.2013 125.323 46.2006 125.323 46.1999C125.323 46.1992 125.323 46.1985 125.323 46.1979C125.323 46.1972 125.323 46.1965 125.323 46.1958C125.323 46.1951 125.323 46.1944 125.323 46.1937C125.323 46.193 125.323 46.1924 125.323 46.1917C125.323 46.191 125.323 46.1903 125.323 46.1896C125.323 46.1889 125.323 46.1882 125.323 46.1876C125.323 46.1869 125.323 46.1862 125.323 46.1855C125.323 46.1848 125.323 46.1841 125.323 46.1835C125.323 46.1828 125.323 46.1821 125.323 46.1814C125.323 46.1807 125.323 46.18 125.323 46.1793C125.323 46.1787 125.323 46.178 125.323 46.1773C125.323 46.1766 125.323 46.1759 125.323 46.1753C125.323 46.1746 125.323 46.1739 125.323 46.1732C125.323 46.1725 125.323 46.1718 125.323 46.1712C125.323 46.1705 125.323 46.1698 125.323 46.1691C125.323 46.1684 125.323 46.1678 125.323 46.1671C125.323 46.1664 125.323 46.1657 125.323 46.165C125.323 46.1644 125.323 46.1637 125.323 46.163C125.323 46.1623 125.323 46.1617 125.323 46.161C125.323 46.1603 125.323 46.1596 125.323 46.1589C125.323 46.1583 125.323 46.1576 125.323 46.1569C125.323 46.1562 125.323 46.1556 125.323 46.1549C125.323 46.1542 125.323 46.1535 125.323 46.1529C125.323 46.1522 125.323 46.1515 125.323 46.1508C125.323 46.1501 125.323 46.1495 125.323 46.1488C125.323 46.1481 125.323 46.1474 125.323 46.1468C125.323 46.1461 125.323 46.1454 125.323 46.1448C125.323 46.1441 125.323 46.1434 125.323 46.1427C125.323 46.1421 125.323 46.1414 125.323 46.1407C125.323 46.14 125.323 46.1394 125.323 46.1387C125.323 46.138 125.323 46.1373 125.323 46.1367C125.323 46.136 125.323 46.1353 125.323 46.1347C125.323 46.134 125.323 46.1333 125.323 46.1327C125.323 46.132 125.323 46.1313 125.323 46.1306C125.323 46.13 125.323 46.1293 125.323 46.1286C125.323 46.128 125.323 46.1273 125.323 46.1266C125.323 46.126 125.323 46.1253 125.323 46.1246C125.323 46.1239 125.323 46.1233 125.323 46.1226C125.323 46.1219 125.323 46.1213 125.323 46.1206H123.323C123.323 46.1213 123.323 46.1219 123.323 46.1226C123.323 46.1233 123.323 46.1239 123.323 46.1246C123.323 46.1253 123.323 46.126 123.323 46.1266C123.323 46.1273 123.323 46.128 123.323 46.1286C123.323 46.1293 123.323 46.13 123.323 46.1306C123.323 46.1313 123.323 46.132 123.323 46.1327C123.323 46.1333 123.323 46.134 123.323 46.1347C123.323 46.1353 123.323 46.136 123.323 46.1367C123.323 46.1373 123.323 46.138 123.323 46.1387C123.323 46.1394 123.323 46.14 123.323 46.1407C123.323 46.1414 123.323 46.1421 123.323 46.1427C123.323 46.1434 123.323 46.1441 123.323 46.1448C123.323 46.1454 123.323 46.1461 123.323 46.1468C123.323 46.1474 123.323 46.1481 123.323 46.1488C123.323 46.1495 123.323 46.1501 123.323 46.1508C123.323 46.1515 123.323 46.1522 123.323 46.1529C123.323 46.1535 123.323 46.1542 123.323 46.1549C123.323 46.1556 123.323 46.1562 123.323 46.1569C123.323 46.1576 123.323 46.1583 123.323 46.1589C123.323 46.1596 123.323 46.1603 123.323 46.161C123.323 46.1617 123.323 46.1623 123.323 46.163C123.323 46.1637 123.323 46.1644 123.323 46.165C123.323 46.1657 123.323 46.1664 123.323 46.1671C123.323 46.1678 123.323 46.1684 123.323 46.1691C123.323 46.1698 123.323 46.1705 123.323 46.1712C123.323 46.1718 123.323 46.1725 123.323 46.1732C123.323 46.1739 123.323 46.1746 123.323 46.1753C123.323 46.1759 123.323 46.1766 123.323 46.1773C123.323 46.178 123.323 46.1787 123.323 46.1793C123.323 46.18 123.323 46.1807 123.323 46.1814C123.323 46.1821 123.323 46.1828 123.323 46.1835C123.323 46.1841 123.323 46.1848 123.323 46.1855C123.323 46.1862 123.323 46.1869 123.323 46.1876C123.323 46.1882 123.323 46.1889 123.323 46.1896C123.323 46.1903 123.323 46.191 123.323 46.1917C123.323 46.1924 123.323 46.193 123.323 46.1937C123.323 46.1944 123.323 46.1951 123.323 46.1958C123.323 46.1965 123.323 46.1972 123.323 46.1979C123.323 46.1985 123.323 46.1992 123.323 46.1999C123.323 46.2006 123.323 46.2013 123.323 46.202C123.323 46.2027 123.323 46.2034 123.323 46.204C123.323 46.2047 123.323 46.2054 123.323 46.2061C123.323 46.2068 123.323 46.2075 123.323 46.2082C123.323 46.2089 123.323 46.2096 123.323 46.2103C123.323 46.2109 123.323 46.2116 123.323 46.2123C123.323 46.213 123.323 46.2137 123.323 46.2144C123.323 46.2151 123.323 46.2158 123.323 46.2165C123.323 46.2172 123.323 46.2179 123.323 46.2186C123.323 46.2193 123.323 46.2199 123.323 46.2206C123.323 46.2213 123.323 46.222 123.323 46.2227C123.323 46.2234 123.323 46.2241 123.323 46.2248C123.323 46.2255 123.323 46.2262 123.323 46.2269C123.323 46.2276 123.323 46.2283 123.323 46.229C123.323 46.2297 123.323 46.2304 123.323 46.2311C123.323 46.2318 123.323 46.2325 123.323 46.2331C123.323 46.2338 123.323 46.2345 123.323 46.2352C123.323 46.2359 123.323 46.2366 123.323 46.2373C123.323 46.238 123.323 46.2387 123.323 46.2394C123.323 46.2401 123.323 46.2408 123.323 46.2415C123.323 46.2422 123.323 46.2429 123.323 46.2436C123.323 46.2443 123.323 46.245 123.323 46.2457C123.323 46.2464 123.323 46.2471 123.323 46.2478C123.323 46.2485 123.323 46.2492 123.323 46.2499C123.323 46.2506 123.323 46.2513 123.323 46.252C123.323 46.2527 123.323 46.2534 123.323 46.2541C123.323 46.2548 123.323 46.2555 123.323 46.2562C123.323 46.2569 123.323 46.2576 123.323 46.2583C123.323 46.259 123.323 46.2597 123.323 46.2605C123.323 46.2612 123.323 46.2619 123.323 46.2626C123.323 46.2633 123.323 46.264 123.323 46.2647C123.323 46.2654 123.323 46.2661 123.323 46.2668C123.323 46.2675 123.323 46.2682 123.323 46.2689C123.323 46.2696 123.323 46.2703 123.323 46.271C123.323 46.2717 123.323 46.2724 123.323 46.2731C123.323 46.2738 123.323 46.2746 123.323 46.2753C123.323 46.276 123.323 46.2767 123.323 46.2774C123.323 46.2781 123.323 46.2788 123.323 46.2795C123.323 46.2802 123.323 46.2809 123.323 46.2816C123.323 46.2823 123.323 46.2831 123.323 46.2838C123.323 46.2845 123.323 46.2852 123.323 46.2859C123.323 46.2866 123.323 46.2873 123.323 46.288C123.323 46.2887 123.323 46.2894 123.323 46.2902C123.323 46.2909 123.323 46.2916 123.323 46.2923C123.323 46.293 123.323 46.2937 123.323 46.2944C123.323 46.2951 123.323 46.2958 123.323 46.2966C123.323 46.2973 123.323 46.298 123.323 46.2987C123.323 46.2994 123.323 46.3001 123.323 46.3008C123.323 46.3015 123.323 46.3023 123.323 46.303C123.323 46.3037 123.323 46.3044 123.323 46.3051C123.323 46.3058 123.323 46.3065 123.323 46.3073C123.323 46.308 123.323 46.3087 123.323 46.3094C123.323 46.3101 123.323 46.3108 123.323 46.3116C123.323 46.3123 123.323 46.313 123.323 46.3137C123.323 46.3144 123.323 46.3151 123.323 46.3159C123.323 46.3166 123.323 46.3173 123.323 46.318C123.323 46.3187 123.323 46.3194 123.323 46.3202C123.323 46.3209 123.323 46.3216 123.323 46.3223C123.323 46.323 123.323 46.3238 123.323 46.3245C123.323 46.3252 123.323 46.3259 123.323 46.3266C123.323 46.3274 123.323 46.3281 123.323 46.3288C123.323 46.3295 123.323 46.3302 123.323 46.331C123.323 46.3317 123.323 46.3324 123.323 46.3331C123.323 46.3338 123.323 46.3346 123.323 46.3353C123.323 46.336 123.323 46.3367 123.323 46.3375C123.323 46.3382 123.323 46.3389 123.323 46.3396C123.323 46.3403 123.323 46.3411 123.323 46.3418C123.323 46.3425 123.323 46.3432 123.323 46.344C123.323 46.3447 123.323 46.3454 123.323 46.3461C123.323 46.3469 123.323 46.3476 123.323 46.3483C123.323 46.349 123.323 46.3498 123.323 46.3505C123.323 46.3512 123.323 46.3519 123.323 46.3527C123.323 46.3534 123.323 46.3541 123.323 46.3548C123.323 46.3556 123.323 46.3563 123.323 46.357C123.323 46.3577 123.323 46.3585 123.323 46.3592C123.323 46.3599 123.323 46.3607 123.323 46.3614C123.323 46.3621 123.323 46.3628 123.323 46.3636C123.323 46.3643 123.323 46.365 123.323 46.3658C123.323 46.3665 123.323 46.3672 123.323 46.3679C123.323 46.3687 123.323 46.3694 123.323 46.3701C123.323 46.3709 123.323 46.3716 123.323 46.3723C123.323 46.3731 123.323 46.3738 123.323 46.3745C123.323 46.3753 123.323 46.376 123.323 46.3767C123.323 46.3775 123.323 46.3782 123.323 46.3789C123.323 46.3796 123.323 46.3804 123.323 46.3811C123.323 46.3818 123.323 46.3826 123.323 46.3833C123.323 46.384 123.323 46.3848 123.323 46.3855C123.323 46.3862 123.323 46.387 123.323 46.3877C123.323 46.3885 123.323 46.3892 123.323 46.3899C123.323 46.3907 123.323 46.3914 123.323 46.3921C123.323 46.3929 123.323 46.3936 123.323 46.3943C123.323 46.3951 123.323 46.3958 123.323 46.3965C123.323 46.3973 123.323 46.398 123.323 46.3988C123.323 46.3995 123.323 46.4002 123.323 46.401C123.323 46.4017 123.323 46.4024 123.323 46.4032C123.323 46.4039 123.323 46.4047 123.323 46.4054C123.323 46.4061 123.323 46.4069 123.323 46.4076C123.323 46.4084 123.323 46.4091 123.323 46.4098C123.323 46.4106 123.323 46.4113 123.323 46.4121C123.323 46.4128 123.323 46.4135 123.323 46.4143C123.323 46.415 123.323 46.4158 123.323 46.4165C123.323 46.4172 123.323 46.418 123.323 46.4187C123.323 46.4195 123.323 46.4202 123.323 46.421C123.323 46.4217 123.323 46.4224 123.323 46.4232C123.323 46.4239 123.323 46.4247 123.323 46.4254C123.323 46.4262 123.323 46.4269 123.323 46.4276C123.323 46.4284 123.323 46.4291 123.323 46.4299C123.323 46.4306 123.323 46.4314 123.323 46.4321C123.323 46.4329 123.323 46.4336 123.323 46.4343C123.323 46.4351 123.323 46.4358 123.323 46.4366C123.323 46.4373 123.323 46.4381 123.323 46.4388C123.323 46.4396 123.323 46.4403 123.323 46.4411C123.323 46.4418 123.323 46.4426 123.323 46.4433C123.323 46.4441 123.323 46.4448 123.323 46.4456C123.323 46.4463 123.323 46.447 123.323 46.4478C123.323 46.4485 123.323 46.4493 123.323 46.45C123.323 46.4508 123.323 46.4515 123.323 46.4523C123.323 46.453 123.323 46.4538 123.323 46.4545C123.323 46.4553 123.323 46.456 123.323 46.4568C123.323 46.4575 123.323 46.4583 123.323 46.4591C123.323 46.4598 123.323 46.4606 123.323 46.4613C123.323 46.4621 123.323 46.4628 123.323 46.4636C123.323 46.4643 123.323 46.4651 123.323 46.4658C123.323 46.4666 123.323 46.4673 123.323 46.4681C123.323 46.4688 123.323 46.4696 123.323 46.4703C123.323 46.4711 123.323 46.4719 123.323 46.4726C123.323 46.4734 123.323 46.4741 123.323 46.4749C123.323 46.4756 123.323 46.4764 123.323 46.4771C123.323 46.4779 123.323 46.4786 123.323 46.4794C123.323 46.4802 123.323 46.4809 123.323 46.4817C123.323 46.4824 123.323 46.4832 123.323 46.4839C123.323 46.4847 123.323 46.4855 123.323 46.4862C123.323 46.487 123.323 46.4877 123.323 46.4885C123.323 46.4893 123.323 46.49 123.323 46.4908C123.323 46.4915 123.323 46.4923 123.323 46.493C123.323 46.4938 123.323 46.4946 123.323 46.4953C123.323 46.4961 123.323 46.4968 123.323 46.4976C123.323 46.4984 123.323 46.4991 123.323 46.4999C123.323 46.5006 123.323 46.5014 123.323 46.5022C123.323 46.5029 123.323 46.5037 123.323 46.5045C123.323 46.5052 123.323 46.506 123.323 46.5067C123.323 46.5075 123.323 46.5083 123.323 46.509C123.323 46.5098 123.323 46.5106 123.323 46.5113C123.323 46.5121 123.323 46.5128 123.323 46.5136C123.323 46.5144 123.323 46.5151 123.323 46.5159C123.323 46.5167 123.323 46.5174 123.323 46.5182C123.323 46.519 123.323 46.5197 123.323 46.5205C123.323 46.5213 123.323 46.522 123.323 46.5228C123.323 46.5236 123.323 46.5243 123.323 46.5251C123.323 46.5259 123.323 46.5266 123.323 46.5274C123.323 46.5282 123.323 46.5289 123.323 46.5297C123.323 46.5305 123.323 46.5312 123.323 46.532C123.323 46.5328 123.323 46.5335 123.323 46.5343C123.323 46.5351 123.323 46.5358 123.323 46.5366C123.323 46.5374 123.323 46.5382 123.323 46.5389C123.323 46.5397 123.323 46.5405 123.323 46.5412C123.323 46.542 123.323 46.5428 123.323 46.5435C123.323 46.5443 123.323 46.5451 123.323 46.5459C123.323 46.5466 123.323 46.5474 123.323 46.5482C123.323 46.549 123.323 46.5497 123.323 46.5505C123.323 46.5513 123.323 46.552 123.323 46.5528C123.323 46.5536 123.323 46.5544 123.323 46.5551C123.323 46.5559 123.323 46.5567 123.323 46.5575C123.323 46.5582 123.323 46.559 123.323 46.5598C123.323 46.5606 123.323 46.5613 123.323 46.5621C123.323 46.5629 123.323 46.5637 123.323 46.5644C123.323 46.5652 123.323 46.566 123.323 46.5668C123.323 46.5675 123.323 46.5683 123.323 46.5691C123.323 46.5699 123.323 46.5706 123.323 46.5714C123.323 46.5722 123.323 46.573 123.323 46.5738C123.323 46.5745 123.323 46.5753 123.323 46.5761C123.323 46.5769 123.323 46.5776 123.323 46.5784C123.323 46.5792 123.323 46.58 123.323 46.5808C123.323 46.5815 123.323 46.5823 123.323 46.5831C123.323 46.5839 123.323 46.5847 123.323 46.5854C123.323 46.5862 123.323 46.587 123.323 46.5878C123.323 46.5886 123.323 46.5893 123.323 46.5901C123.323 46.5909 123.323 46.5917 123.323 46.5925C123.323 46.5933 123.323 46.594 123.323 46.5948C123.323 46.5956 123.323 46.5964 123.323 46.5972C123.323 46.598 123.323 46.5987 123.323 46.5995C123.323 46.6003 123.323 46.6011 123.323 46.6019C123.323 46.6027 123.323 46.6034 123.323 46.6042C123.323 46.605 123.323 46.6058 123.323 46.6066C123.323 46.6074 123.323 46.6081 123.323 46.6089C123.323 46.6097 123.323 46.6105 123.323 46.6113C123.323 46.6121 123.323 46.6129 123.323 46.6137C123.323 46.6144 123.323 46.6152 123.323 46.616C123.323 46.6168 123.323 46.6176 123.323 46.6184C123.323 46.6192 123.323 46.62 123.323 46.6207C123.323 46.6215 123.323 46.6223 123.323 46.6231C123.323 46.6239 123.323 46.6247 123.323 46.6255C123.323 46.6263 123.323 46.6271 123.323 46.6278C123.323 46.6286 123.323 46.6294 123.323 46.6302C123.323 46.631 123.323 46.6318 123.323 46.6326C123.323 46.6334 123.323 46.6342 123.323 46.635C123.323 46.6358 123.323 46.6365 123.323 46.6373C123.323 46.6381 123.323 46.6389 123.323 46.6397C123.323 46.6405 123.323 46.6413 123.323 46.6421C123.323 46.6429 123.323 46.6437 123.323 46.6445C123.323 46.6453 123.323 46.6461 123.323 46.6469C123.323 46.6476 123.323 46.6484 123.323 46.6492C123.323 46.65 123.323 46.6508 123.323 46.6516C123.323 46.6524 123.323 46.6532 123.323 46.654C123.323 46.6548 123.323 46.6556 123.323 46.6564C123.323 46.6572 123.323 46.658 123.323 46.6588C123.323 46.6596 123.323 46.6604 123.323 46.6612C123.323 46.662 123.323 46.6628 123.323 46.6636C123.323 46.6644 123.323 46.6652 123.323 46.666C123.323 46.6668 123.323 46.6676 123.323 46.6684C123.323 46.6692 123.323 46.67 123.323 46.6708C123.323 46.6716 123.323 46.6724 123.323 46.6732C123.323 46.674 123.323 46.6748 123.323 46.6756C123.323 46.6764 123.323 46.6772 123.323 46.678C123.323 46.6788 123.323 46.6796 123.323 46.6804C123.323 46.6812 123.323 46.682 123.323 46.6828C123.323 46.6836 123.323 46.6844 123.323 46.6852C123.323 46.686 123.323 46.6868 123.323 46.6876C123.323 46.6884 123.323 46.6892 123.323 46.69C123.323 46.6908 123.323 46.6916 123.323 46.6924C123.323 46.6932 123.323 46.694 123.323 46.6948C123.323 46.6956 123.323 46.6964 123.323 46.6972C123.323 46.698 123.323 46.6989 123.323 46.6997C123.323 46.7005 123.323 46.7013 123.323 46.7021C123.323 46.7029 123.323 46.7037 123.323 46.7045C123.323 46.7053 123.323 46.7061 123.323 46.7069C123.323 46.7077 123.323 46.7085 123.323 46.7093C123.323 46.7101 123.323 46.711 123.323 46.7118C123.323 46.7126 123.323 46.7134 123.323 46.7142C123.323 46.715 123.323 46.7158 123.323 46.7166C123.323 46.7174 123.323 46.7182 123.323 46.719C123.323 46.7199 123.323 46.7207 123.323 46.7215C123.323 46.7223 123.323 46.7231 123.323 46.7239C123.323 46.7247 123.323 46.7255 123.323 46.7263C123.323 46.7272 123.323 46.728 123.323 46.7288C123.323 46.7296 123.323 46.7304 123.323 46.7312C123.323 46.732 123.323 46.7328 123.323 46.7337C123.323 46.7345 123.323 46.7353 123.323 46.7361C123.323 46.7369 123.323 46.7377 123.323 46.7385C123.323 46.7394 123.323 46.7402 123.323 46.741C123.323 46.7418 123.323 46.7426 123.323 46.7434C123.323 46.7442 123.323 46.7451 123.323 46.7459C123.323 46.7467 123.323 46.7475 123.323 46.7483C123.323 46.7491 123.323 46.75 123.323 46.7508C123.323 46.7516 123.323 46.7524 123.323 46.7532C123.323 46.754 123.323 46.7549 123.323 46.7557C123.323 46.7565 123.323 46.7573 123.323 46.7581C123.323 46.759 123.323 46.7598 123.323 46.7606C123.323 46.7614 123.323 46.7622 123.323 46.763C123.323 46.7639 123.323 46.7647 123.323 46.7655C123.323 46.7663 123.323 46.7671 123.323 46.768C123.323 46.7688 123.323 46.7696 123.323 46.7704C123.323 46.7713 123.323 46.7721 123.323 46.7729C123.323 46.7737 123.323 46.7745 123.323 46.7754C123.323 46.7762 123.323 46.777 123.323 46.7778C123.323 46.7787 123.323 46.7795 123.323 46.7803C123.323 46.7811 123.323 46.7819 123.323 46.7828C123.323 46.7836 123.323 46.7844 123.323 46.7852C123.323 46.7861 123.323 46.7869 123.323 46.7877C123.323 46.7885 123.323 46.7894 123.323 46.7902C123.323 46.791 123.323 46.7918 123.323 46.7927C123.323 46.7935 123.323 46.7943 123.323 46.7951C123.323 46.796 123.323 46.7968 123.323 46.7976C123.323 46.7985 123.323 46.7993 123.323 46.8001C123.323 46.8009 123.323 46.8018 123.323 46.8026C123.323 46.8034 123.323 46.8042 123.323 46.8051C123.323 46.8059 123.323 46.8067 123.323 46.8076C123.323 46.8084 123.323 46.8092 123.323 46.81C123.323 46.8109 123.323 46.8117 123.323 46.8125C123.323 46.8134 123.323 46.8142 123.323 46.815C123.323 46.8159 123.323 46.8167 123.323 46.8175C123.323 46.8184 123.323 46.8192 123.323 46.82C123.323 46.8208 123.323 46.8217 123.323 46.8225C123.323 46.8233 123.323 46.8242 123.323 46.825C123.323 46.8258 123.323 46.8267 123.323 46.8275C123.323 46.8283 123.323 46.8292 123.323 46.83C123.323 46.8308 123.323 46.8317 123.323 46.8325C123.323 46.8333 123.323 46.8342 123.323 46.835C123.323 46.8359 123.323 46.8367 123.323 46.8375C123.323 46.8384 123.323 46.8392 123.323 46.84C123.323 46.8409 123.323 46.8417 123.323 46.8425C123.323 46.8434 123.323 46.8442 123.323 46.845C123.323 46.8459 123.323 46.8467 123.323 46.8476C123.323 46.8484 123.323 46.8492 123.323 46.8501C123.323 46.8509 123.323 46.8517 123.323 46.8526C123.323 46.8534 123.323 46.8543 123.323 46.8551C123.323 46.8559 123.323 46.8568 123.323 46.8576C123.323 46.8585 123.323 46.8593 123.323 46.8601C123.323 46.861 123.323 46.8618 123.323 46.8627C123.323 46.8635 123.323 46.8643 123.323 46.8652C123.323 46.866 123.323 46.8669 123.323 46.8677C123.323 46.8686 123.323 46.8694 123.323 46.8702C123.323 46.8711 123.323 46.8719 123.323 46.8728C123.323 46.8736 123.323 46.8744 123.323 46.8753C123.323 46.8761 123.323 46.877 123.323 46.8778C123.323 46.8787 123.323 46.8795 123.323 46.8804C123.323 46.8812 123.323 46.882 123.323 46.8829C123.323 46.8837 123.323 46.8846 123.323 46.8854C123.323 46.8863 123.323 46.8871 123.323 46.888C123.323 46.8888 123.323 46.8897 123.323 46.8905C123.323 46.8913 123.323 46.8922 123.323 46.893C123.323 46.8939 123.323 46.8947 123.323 46.8956C123.323 46.8964 123.323 46.8973 123.323 46.8981C123.323 46.899 123.323 46.8998 123.323 46.9007C123.323 46.9015 123.323 46.9024 123.323 46.9032C123.323 46.9041 123.323 46.9049 123.323 46.9058C123.323 46.9066 123.323 46.9075 123.323 46.9083C123.323 46.9092 123.323 46.91 123.323 46.9109C123.323 46.9117 123.323 46.9126 123.323 46.9134C123.323 46.9143 123.323 46.9151 123.323 46.916C123.323 46.9168 123.323 46.9177 123.323 46.9185C123.323 46.9194 123.323 46.9202 123.323 46.9211C123.323 46.9219 123.323 46.9228 123.323 46.9236C123.323 46.9245 123.323 46.9254 123.323 46.9262C123.323 46.9271 123.323 46.9279 123.323 46.9288C123.323 46.9296 123.323 46.9305 123.323 46.9313C123.323 46.9322 123.323 46.933 123.323 46.9339C123.323 46.9348 123.323 46.9356 123.323 46.9365C123.323 46.9373 123.323 46.9382 123.323 46.939C123.323 46.9399 123.323 46.9407 123.323 46.9416C123.323 46.9425 123.323 46.9433 123.323 46.9442C123.323 46.945 123.323 46.9459 123.323 46.9468C123.323 46.9476 123.323 46.9485 123.323 46.9493C123.323 46.9502 123.323 46.951 123.323 46.9519C123.323 46.9528 123.323 46.9536 123.323 46.9545C123.323 46.9553 123.323 46.9562 123.323 46.9571C123.323 46.9579 123.323 46.9588 123.323 46.9596C123.323 46.9605 123.323 46.9614 123.323 46.9622C123.323 46.9631 123.323 46.9639 123.323 46.9648C123.323 46.9657 123.323 46.9665 123.323 46.9674C123.323 46.9683 123.323 46.9691 123.323 46.97C123.323 46.9708 123.323 46.9717 123.323 46.9726C123.323 46.9734 123.323 46.9743 123.323 46.9752C123.323 46.976 123.323 46.9769 123.323 46.9778C123.323 46.9786 123.323 46.9795 123.323 46.9804C123.323 46.9812 123.323 46.9821 123.323 46.9829C123.323 46.9838 123.323 46.9847 123.323 46.9855C123.323 46.9864 123.323 46.9873 123.323 46.9881C123.323 46.989 123.323 46.9899 123.323 46.9907C123.323 46.9916 123.323 46.9925 123.323 46.9933C123.323 46.9942 123.323 46.9951 123.323 46.9959C123.323 46.9968 123.323 46.9977 123.323 46.9986C123.323 46.9994 123.323 47.0003 123.323 47.0012C123.323 47.002 123.323 47.0029 123.323 47.0038C123.323 47.0046 123.323 47.0055 123.323 47.0064C123.323 47.0072 123.323 47.0081 123.323 47.009C123.323 47.0099 123.323 47.0107 123.323 47.0116C123.323 47.0125 123.323 47.0133 123.323 47.0142C123.323 47.0151 123.323 47.016 123.323 47.0168C123.323 47.0177 123.323 47.0186 123.323 47.0195C123.323 47.0203 123.323 47.0212 123.323 47.0221C123.323 47.0229 123.323 47.0238 123.323 47.0247C123.323 47.0256 123.323 47.0264 123.323 47.0273C123.323 47.0282 123.323 47.0291 123.323 47.0299C123.323 47.0308 123.323 47.0317 123.323 47.0326C123.323 47.0334 123.323 47.0343 123.323 47.0352C123.323 47.0361 123.323 47.0369 123.323 47.0378C123.323 47.0387 123.323 47.0396 123.323 47.0405C123.323 47.0413 123.323 47.0422 123.323 47.0431C123.323 47.044 123.323 47.0448 123.323 47.0457C123.323 47.0466 123.323 47.0475 123.323 47.0484C123.323 47.0492 123.323 47.0501 123.323 47.051C123.323 47.0519 123.323 47.0527 123.323 47.0536C123.323 47.0545 123.323 47.0554 123.323 47.0563C123.323 47.0571 123.323 47.058 123.323 47.0589C123.323 47.0598 123.323 47.0607 123.323 47.0616C123.323 47.0624 123.323 47.0633 123.323 47.0642C123.323 47.0651 123.323 47.066 123.323 47.0668C123.323 47.0677 123.323 47.0686 123.323 47.0695C123.323 47.0704 123.323 47.0713 123.323 47.0721C123.323 47.073 123.323 47.0739 123.323 47.0748C123.323 47.0757 123.323 47.0766 123.323 47.0774C123.323 47.0783 123.323 47.0792 123.323 47.0801C123.323 47.081 123.323 47.0819 123.323 47.0828C123.323 47.0836 123.323 47.0845 123.323 47.0854C123.323 47.0863 123.323 47.0872 123.323 47.0881C123.323 47.089 123.323 47.0898 123.323 47.0907C123.323 47.0916 123.323 47.0925 123.323 47.0934C123.323 47.0943 123.323 47.0952 123.323 47.0961C123.323 47.0969 123.323 47.0978 123.323 47.0987C123.323 47.0996 123.323 47.1005 123.323 47.1014C123.323 47.1023 123.323 47.1032 123.323 47.1041C123.323 47.1049 123.323 47.1058 123.323 47.1067C123.323 47.1076 123.323 47.1085 123.323 47.1094C123.323 47.1103 123.323 47.1112 123.323 47.1121C123.323 47.113 123.323 47.1139 123.323 47.1147C123.323 47.1156 123.323 47.1165 123.323 47.1174C123.323 47.1183 123.323 47.1192 123.323 47.1201C123.323 47.121 123.323 47.1219 123.323 47.1228C123.323 47.1237 123.323 47.1246 123.323 47.1255C123.323 47.1264 123.323 47.1273 123.323 47.1281C123.323 47.129 123.323 47.1299 123.323 47.1308C123.323 47.1317 123.323 47.1326 123.323 47.1335C123.323 47.1344 123.323 47.1353 123.323 47.1362C123.323 47.1371 123.323 47.138 123.323 47.1389C123.323 47.1398 123.323 47.1407 123.323 47.1416C123.323 47.1425 123.323 47.1434 123.323 47.1443C123.323 47.1452 123.323 47.1461 123.323 47.147C123.323 47.1479 123.323 47.1488 123.323 47.1497C123.323 47.1506 123.323 47.1515 123.323 47.1524C123.323 47.1533 123.323 47.1542 123.323 47.1551C123.323 47.156 123.323 47.1569 123.323 47.1578C123.323 47.1587 123.323 47.1596 123.323 47.1605C123.323 47.1614 123.323 47.1623 123.323 47.1632C123.323 47.1641 123.323 47.165 123.323 47.1659C123.323 47.1668 123.323 47.1677 123.323 47.1686C123.323 47.1695 123.323 47.1704 123.323 47.1713C123.323 47.1722 123.323 47.1731 123.323 47.174C123.323 47.1749 123.323 47.1758 123.323 47.1767C123.323 47.1776 123.323 47.1785 123.323 47.1794C123.323 47.1803 123.323 47.1812 123.323 47.1821C123.323 47.183 123.323 47.1839 123.323 47.1848C123.323 47.1858 123.323 47.1867 123.323 47.1876C123.323 47.1885 123.323 47.1894 123.323 47.1903C123.323 47.1912 123.323 47.1921 123.323 47.193C123.323 47.1939 123.323 47.1948 123.323 47.1957C123.323 47.1966 123.323 47.1975 123.323 47.1985C123.323 47.1994 123.323 47.2003 123.323 47.2012C123.323 47.2021 123.323 47.203 123.323 47.2039C123.323 47.2048 123.323 47.2057 123.323 47.2066C123.323 47.2075 123.323 47.2085 123.323 47.2094C123.323 47.2103 123.323 47.2112 123.323 47.2121C123.323 47.213 123.323 47.2139 123.323 47.2148C123.323 47.2157 123.323 47.2167 123.323 47.2176C123.323 47.2185 123.323 47.2194 123.323 47.2203C123.323 47.2212 123.323 47.2221 123.323 47.223C123.323 47.224 123.323 47.2249 123.323 47.2258C123.323 47.2267 123.323 47.2276 123.323 47.2285C123.323 47.2294 123.323 47.2303 123.323 47.2313C123.323 47.2322 123.323 47.2331 123.323 47.234C123.323 47.2349 123.323 47.2358 123.323 47.2368C123.323 47.2377 123.323 47.2386 123.323 47.2395C123.323 47.2404 123.323 47.2413 123.323 47.2422C123.323 47.2432 123.323 47.2441 123.323 47.245C123.323 47.2459 123.323 47.2468 123.323 47.2478C123.323 47.2487 123.323 47.2496 123.323 47.2505C123.323 47.2514 123.323 47.2523 123.323 47.2533C123.323 47.2542 123.323 47.2551 123.323 47.256C123.323 47.2569 123.323 47.2579 123.323 47.2588C123.323 47.2597 123.323 47.2606 123.323 47.2615C123.323 47.2625 123.323 47.2634 123.323 47.2643C123.323 47.2652 123.323 47.2661 123.323 47.2671C123.323 47.268 123.323 47.2689 123.323 47.2698C123.323 47.2707 123.323 47.2717 123.323 47.2726C123.323 47.2735 123.323 47.2744 123.323 47.2754C123.323 47.2763 123.323 47.2772 123.323 47.2781C123.323 47.2791 123.323 47.28 123.323 47.2809C123.323 47.2818 123.323 47.2828 123.323 47.2837C123.323 47.2846 123.323 47.2855 123.323 47.2865C123.323 47.2874 123.323 47.2883 123.323 47.2892C123.323 47.2902 123.323 47.2911 123.323 47.292C123.323 47.2929 123.323 47.2939 123.323 47.2948C123.323 47.2957 123.323 47.2966 123.323 47.2976C123.323 47.2985 123.323 47.2994 123.323 47.3003C123.323 47.3013 123.323 47.3022 123.323 47.3031C123.323 47.3041 123.323 47.305 123.323 47.3059C123.323 47.3068 123.323 47.3078 123.323 47.3087C123.323 47.3096 123.323 47.3106 123.323 47.3115C123.323 47.3124 123.323 47.3134 123.323 47.3143C123.323 47.3152 123.323 47.3161 123.323 47.3171C123.323 47.318 123.323 47.3189 123.323 47.3199C123.323 47.3208 123.323 47.3217 123.323 47.3227C123.323 47.3236 123.323 47.3245 123.323 47.3255C123.323 47.3264 123.323 47.3273 123.323 47.3283C123.323 47.3292 123.323 47.3301 123.323 47.3311C123.323 47.332 123.323 47.3329 123.323 47.3339C123.323 47.3348 123.323 47.3357 123.323 47.3367C123.323 47.3376 123.323 47.3385 123.323 47.3395C123.323 47.3404 123.323 47.3413 123.323 47.3423C123.323 47.3432 123.323 47.3441 123.323 47.3451C123.323 47.346 123.323 47.347 123.323 47.3479C123.323 47.3488 123.323 47.3498 123.323 47.3507C123.323 47.3516 123.323 47.3526 123.323 47.3535H125.323ZM125.323 46.1439C125.331 45.7953 125.339 45.4797 125.347 45.197L123.348 45.1399C123.34 45.4268 123.332 45.746 123.324 46.0974L125.323 46.1439ZM125.346 45.2239C125.362 44.9397 125.382 44.6511 125.405 44.3582L123.412 44.1965C123.387 44.5058 123.366 44.8113 123.349 45.113L125.346 45.2239ZM123.69 43.5815C123.455 43.8246 123.242 44.0254 123.052 44.1875L124.349 45.71C124.598 45.4977 124.858 45.251 125.127 44.9731L123.69 43.5815ZM123.069 44.1735C122.847 44.3543 122.573 44.5795 122.246 44.8487L123.519 46.3915C123.844 46.1237 124.115 45.9013 124.332 45.724L123.069 44.1735ZM122.257 44.8402L120.218 46.4759L121.47 48.0358L123.509 46.4001L122.257 44.8402ZM121.637 46.6458L120.575 45.2664L118.99 46.4865L120.052 47.8659L121.637 46.6458ZM120.392 46.6687L125.226 42.9456L124.006 41.3611L119.172 45.0842L120.392 46.6687ZM124.616 43.1533H126.301V41.1533H124.616V43.1533ZM125.301 42.1533V60H127.301V42.1533H125.301ZM141.657 59.6338L142.135 60.5124L142.142 60.5084L141.657 59.6338ZM135.664 59.1577L135.021 59.9236L135.024 59.9265L135.664 59.1577ZM133.723 56.0205L132.767 56.3146L132.769 56.3214L133.723 56.0205ZM133.662 46.145L132.7 45.8718L132.699 45.8756L133.662 46.145ZM135.542 42.9834L136.189 43.7457L136.193 43.7421L135.542 42.9834ZM142.28 42.9712L141.636 43.7365L141.64 43.74L142.28 42.9712ZM144.221 46.1206L143.265 46.4147L143.265 46.4163L144.221 46.1206ZM135.505 55.2026L134.53 55.4249L135.505 55.2026ZM136.726 57.6929L136.024 58.4051L136.029 58.4102L136.034 58.4153L136.726 57.6929ZM141.181 57.6929L140.49 56.9704L140.485 56.9754L141.181 57.6929ZM142.414 55.2148L141.441 54.9858L141.439 54.9926L142.414 55.2148ZM142.426 46.9507L141.451 47.1729L141.452 47.1745L142.426 46.9507ZM141.206 44.4604L140.498 45.1676L140.504 45.1727L141.206 44.4604ZM136.713 44.4604L137.415 45.1727L137.42 45.1676L136.713 44.4604ZM135.493 46.9507L134.518 46.7284L134.516 46.7338L135.493 46.9507ZM143.855 51.0522C143.855 52.4522 143.749 53.6809 143.544 54.7447L145.508 55.1234C145.742 53.9086 145.855 52.5494 145.855 51.0522H143.855ZM143.544 54.7447C143.341 55.7983 143.029 56.6468 142.63 57.314L144.347 58.3403C144.892 57.4288 145.272 56.3485 145.508 55.1234L143.544 54.7447ZM142.63 57.314C142.241 57.9637 141.755 58.4359 141.172 58.7592L142.142 60.5084C143.056 60.0016 143.791 59.2694 144.347 58.3403L142.63 57.314ZM141.18 58.7552C140.608 59.066 139.881 59.2441 138.959 59.2441V61.2441C140.138 61.2441 141.209 61.0154 142.135 60.5124L141.18 58.7552ZM138.959 59.2441C137.825 59.2441 136.964 58.939 136.303 58.3889L135.024 59.9265C136.104 60.825 137.441 61.2441 138.959 61.2441V59.2441ZM136.307 58.3919C135.625 57.8192 135.066 56.9545 134.676 55.7196L132.769 56.3214C133.242 57.8209 133.977 59.0477 135.021 59.9236L136.307 58.3919ZM134.678 55.7264C134.293 54.4728 134.088 52.9215 134.088 51.0522H132.088C132.088 53.0567 132.306 54.8175 132.767 56.3146L134.678 55.7264ZM134.088 51.0522C134.088 49.2101 134.273 47.6699 134.625 46.4144L132.699 45.8756C132.285 47.3545 132.088 49.0858 132.088 51.0522H134.088ZM134.624 46.4182C134.974 45.1834 135.513 44.3198 136.189 43.7457L134.894 42.2211C133.845 43.1118 133.13 44.356 132.7 45.8718L134.624 46.4182ZM136.193 43.7421C136.833 43.1927 137.722 42.8726 138.959 42.8726V40.8726C137.365 40.8726 135.975 41.293 134.89 42.2246L136.193 43.7421ZM138.959 42.8726C140.111 42.8726 140.977 43.182 141.636 43.7365L142.923 42.2059C141.841 41.2955 140.493 40.8726 138.959 40.8726V42.8726ZM141.64 43.74C142.326 44.3105 142.883 45.1751 143.265 46.4147L145.176 45.8265C144.712 44.3155 143.975 43.0805 142.919 42.2024L141.64 43.74ZM143.265 46.4163C143.651 47.6614 143.855 49.2 143.855 51.0522H145.855C145.855 49.0634 145.637 47.3142 145.176 45.8249L143.265 46.4163ZM134.126 51.0522C134.126 52.7562 134.255 54.2201 134.53 55.4249L136.48 54.9804C136.25 53.9716 136.126 52.6686 136.126 51.0522H134.126ZM134.53 55.4249C134.807 56.64 135.279 57.6711 136.024 58.4051L137.428 56.9806C137.049 56.6078 136.707 55.9788 136.48 54.9804L134.53 55.4249ZM136.034 58.4153C136.821 59.1681 137.828 59.5107 138.959 59.5107V57.5107C138.252 57.5107 137.77 57.3081 137.417 56.9705L136.034 58.4153ZM138.959 59.5107C140.09 59.5107 141.097 59.1681 141.878 58.4103L140.485 56.9754C140.142 57.3081 139.668 57.5107 138.959 57.5107V59.5107ZM141.873 58.4153C142.633 57.6874 143.111 56.6548 143.389 55.4371L141.439 54.9926C141.212 55.9884 140.869 56.6079 140.49 56.9705L141.873 58.4153ZM143.387 55.4439C143.672 54.2361 143.805 52.7654 143.805 51.0522H141.805C141.805 52.6757 141.677 53.9801 141.441 54.9858L143.387 55.4439ZM143.805 51.0522C143.805 49.3717 143.676 47.9237 143.401 46.7269L141.452 47.1745C141.681 48.1749 141.805 49.4613 141.805 51.0522H143.805ZM143.401 46.7284C143.124 45.5133 142.652 44.4822 141.907 43.7482L140.504 45.1727C140.882 45.5455 141.224 46.1745 141.451 47.1729L143.401 46.7284ZM141.913 43.7533C141.13 42.9711 140.11 42.6182 138.959 42.6182V44.6182C139.681 44.6182 140.158 44.8268 140.498 45.1676L141.913 43.7533ZM138.959 42.6182C137.809 42.6182 136.789 42.9711 136.006 43.7533L137.42 45.1676C137.761 44.8268 138.238 44.6182 138.959 44.6182V42.6182ZM136.011 43.7482C135.267 44.4822 134.795 45.5133 134.518 46.7284L136.468 47.1729C136.695 46.1745 137.037 45.5455 137.415 45.1727L136.011 43.7482ZM134.516 46.7338C134.251 47.9277 134.126 49.3733 134.126 51.0522H136.126C136.126 49.4597 136.246 48.1709 136.469 47.1676L134.516 46.7338ZM155.964 59.6338L156.441 60.5124L156.449 60.5084L155.964 59.6338ZM149.97 59.1577L149.327 59.9236L149.331 59.9265L149.97 59.1577ZM148.029 56.0205L147.073 56.3146L147.076 56.3214L148.029 56.0205ZM147.968 46.145L147.006 45.8718L147.005 45.8756L147.968 46.145ZM149.848 42.9834L150.495 43.7457L150.5 43.7421L149.848 42.9834ZM156.586 42.9712L155.943 43.7365L155.947 43.74L156.586 42.9712ZM158.527 46.1206L157.572 46.4147L157.572 46.4163L158.527 46.1206ZM149.812 55.2026L148.837 55.4249L149.812 55.2026ZM151.032 57.6929L150.33 58.4051L150.335 58.4102L150.341 58.4153L151.032 57.6929ZM155.488 57.6929L154.796 56.9704L154.791 56.9754L155.488 57.6929ZM156.721 55.2148L155.747 54.9858L155.746 54.9926L156.721 55.2148ZM156.733 46.9507L155.758 47.1729L155.758 47.1745L156.733 46.9507ZM155.512 44.4604L154.805 45.1676L154.81 45.1727L155.512 44.4604ZM151.02 44.4604L151.722 45.1727L151.727 45.1676L151.02 44.4604ZM149.799 46.9507L148.824 46.7284L148.823 46.7338L149.799 46.9507ZM158.162 51.0522C158.162 52.4522 158.056 53.6809 157.851 54.7447L159.814 55.1234C160.049 53.9086 160.162 52.5494 160.162 51.0522H158.162ZM157.851 54.7447C157.647 55.7983 157.336 56.6468 156.937 57.314L158.653 58.3403C159.198 57.4288 159.578 56.3485 159.814 55.1234L157.851 54.7447ZM156.937 57.314C156.548 57.9637 156.062 58.4359 155.479 58.7592L156.449 60.5084C157.363 60.0016 158.098 59.2694 158.653 58.3403L156.937 57.314ZM155.486 58.7552C154.914 59.066 154.187 59.2441 153.266 59.2441V61.2441C154.445 61.2441 155.516 61.0154 156.441 60.5124L155.486 58.7552ZM153.266 59.2441C152.131 59.2441 151.271 58.939 150.61 58.3889L149.331 59.9265C150.411 60.825 151.748 61.2441 153.266 61.2441V59.2441ZM150.613 58.3919C149.931 57.8192 149.373 56.9545 148.983 55.7196L147.076 56.3214C147.549 57.8209 148.284 59.0477 149.327 59.9236L150.613 58.3919ZM148.985 55.7264C148.599 54.4728 148.395 52.9215 148.395 51.0522H146.395C146.395 53.0567 146.613 54.8175 147.074 56.3146L148.985 55.7264ZM148.395 51.0522C148.395 49.2101 148.58 47.6699 148.931 46.4144L147.005 45.8756C146.591 47.3545 146.395 49.0858 146.395 51.0522H148.395ZM148.93 46.4182C149.281 45.1834 149.819 44.3198 150.495 43.7457L149.201 42.2211C148.152 43.1118 147.437 44.356 147.006 45.8718L148.93 46.4182ZM150.5 43.7421C151.14 43.1927 152.028 42.8726 153.266 42.8726V40.8726C151.672 40.8726 150.282 41.293 149.197 42.2246L150.5 43.7421ZM153.266 42.8726C154.418 42.8726 155.284 43.182 155.943 43.7365L157.23 42.2059C156.148 41.2955 154.8 40.8726 153.266 40.8726V42.8726ZM155.947 43.74C156.633 44.3105 157.19 45.1751 157.572 46.4147L159.483 45.8265C159.018 44.3155 158.282 43.0805 157.226 42.2024L155.947 43.74ZM157.572 46.4163C157.957 47.6614 158.162 49.2 158.162 51.0522H160.162C160.162 49.0634 159.944 47.3142 159.483 45.8249L157.572 46.4163ZM148.433 51.0522C148.433 52.7562 148.562 54.2201 148.837 55.4249L150.787 54.9804C150.557 53.9716 150.433 52.6686 150.433 51.0522H148.433ZM148.837 55.4249C149.114 56.64 149.586 57.6711 150.33 58.4051L151.734 56.9806C151.356 56.6078 151.014 55.9788 150.787 54.9804L148.837 55.4249ZM150.341 58.4153C151.127 59.1681 152.135 59.5107 153.266 59.5107V57.5107C152.558 57.5107 152.076 57.3081 151.724 56.9705L150.341 58.4153ZM153.266 59.5107C154.397 59.5107 155.404 59.1681 156.184 58.4103L154.791 56.9754C154.449 57.3081 153.974 57.5107 153.266 57.5107V59.5107ZM156.179 58.4153C156.94 57.6874 157.418 56.6548 157.696 55.4371L155.746 54.9926C155.519 55.9884 155.175 56.6079 154.796 56.9705L156.179 58.4153ZM157.694 55.4439C157.978 54.2361 158.111 52.7654 158.111 51.0522H156.111C156.111 52.6757 155.984 53.9801 155.747 54.9858L157.694 55.4439ZM158.111 51.0522C158.111 49.3717 157.982 47.9237 157.708 46.7269L155.758 47.1745C155.988 48.1749 156.111 49.4613 156.111 51.0522H158.111ZM157.708 46.7284C157.431 45.5133 156.959 44.4822 156.214 43.7482L154.81 45.1727C155.189 45.5455 155.53 46.1745 155.758 47.1729L157.708 46.7284ZM156.219 43.7533C155.437 42.9711 154.416 42.6182 153.266 42.6182V44.6182C153.988 44.6182 154.464 44.8268 154.805 45.1676L156.219 43.7533ZM153.266 42.6182C152.116 42.6182 151.095 42.9711 150.313 43.7533L151.727 45.1676C152.068 44.8268 152.544 44.6182 153.266 44.6182V42.6182ZM150.318 43.7482C149.573 44.4822 149.101 45.5133 148.824 46.7284L150.774 47.1729C151.002 46.1745 151.344 45.5455 151.722 45.1727L150.318 43.7482ZM148.823 46.7338C148.558 47.9277 148.433 49.3733 148.433 51.0522H150.433C150.433 49.4597 150.553 48.1709 150.776 47.1676L148.823 46.7338ZM166.767 61.4526H165.767V62.4526H166.767V61.4526ZM166.767 58.8892H167.767V57.9064L166.784 57.8893L166.767 58.8892ZM164.082 58.645L163.911 59.6304L163.913 59.6306L164.082 58.645ZM162.006 58.0713H161.006V58.7242L161.604 58.9868L162.006 58.0713ZM162.006 56.0938L162.427 55.1866L161.006 54.5277V56.0938H162.006ZM166.767 57.0947L166.748 58.0945L167.767 58.114V57.0947H166.767ZM166.767 51.7236H167.767V50.9654L167.037 50.7607L166.767 51.7236ZM164.094 50.6982L163.606 51.5715L163.618 51.5781L164.094 50.6982ZM162.58 45.1074L161.75 44.5501L161.748 44.5527L162.58 45.1074ZM164.252 43.7158L163.83 42.8094L164.252 43.7158ZM166.767 43.1421L166.818 44.1408L167.767 44.0925V43.1421H166.767ZM166.767 41.0303V40.0303H165.767V41.0303H166.767ZM168.256 41.0303H169.256V40.0303H168.256V41.0303ZM168.256 43.1177H167.256V44.09L168.228 44.1173L168.256 43.1177ZM170.637 43.4106L170.405 44.3834L170.415 44.3858L170.637 43.4106ZM172.626 44.0454L173.563 44.3958L173.898 43.5007L173.019 43.1256L172.626 44.0454ZM171.992 45.7422L171.623 46.6716L172.571 47.0481L172.928 46.0926L171.992 45.7422ZM168.256 44.8633L168.344 43.8671L167.256 43.772V44.8633H168.256ZM168.256 50.1978H167.256V50.9482L167.977 51.1579L168.256 50.1978ZM170.991 51.2109L170.552 52.1093L170.555 52.1112L170.991 51.2109ZM172.663 52.5415L171.847 53.1192L172.663 52.5415ZM171.918 57.4731L172.558 58.242L172.562 58.2384L171.918 57.4731ZM168.256 58.7915L168.158 57.7963L167.256 57.8851V58.7915H168.256ZM168.256 61.4526V62.4526H169.256V61.4526H168.256ZM168.256 56.9849H167.256V58.0872L168.353 57.9801L168.256 56.9849ZM170.49 56.2646L171.107 57.0519L171.109 57.0505L170.49 56.2646ZM170.942 53.6035L170.099 54.1419L170.104 54.1501L170.11 54.1582L170.942 53.6035ZM170.014 52.8467L169.56 53.7377L169.567 53.7411L169.574 53.7445L170.014 52.8467ZM168.256 52.2241L168.511 51.2572L167.256 50.9262V52.2241H168.256ZM166.767 49.6851L166.508 50.6509L167.767 50.9887V49.6851H166.767ZM166.767 44.9121H167.767V43.8432L166.701 43.9143L166.767 44.9121ZM164.289 45.9863L163.471 45.4114L163.466 45.4189L163.46 45.4265L164.289 45.9863ZM164.252 48.269L163.376 48.751L163.383 48.7641L163.391 48.777L164.252 48.269ZM165.144 49.0869L164.655 49.9594L164.665 49.9652L164.676 49.9707L165.144 49.0869ZM167.767 61.4526V58.8892H165.767V61.4526H167.767ZM166.784 57.8893C165.895 57.8738 165.051 57.7966 164.251 57.6594L163.913 59.6306C164.821 59.7864 165.767 59.8719 166.75 59.889L166.784 57.8893ZM164.252 57.6597C163.452 57.5212 162.846 57.348 162.409 57.1558L161.604 58.9868C162.241 59.2666 163.018 59.4758 163.911 59.6304L164.252 57.6597ZM163.006 58.0713V56.0938H161.006V58.0713H163.006ZM161.586 57.0009C162.235 57.3019 163.03 57.549 163.95 57.7535L164.384 55.8012C163.547 55.6151 162.901 55.4065 162.427 55.1866L161.586 57.0009ZM163.95 57.7535C164.891 57.9625 165.824 58.0769 166.748 58.0945L166.786 56.0949C166.002 56.08 165.201 55.9828 164.384 55.8012L163.95 57.7535ZM167.767 57.0947V51.7236H165.767V57.0947H167.767ZM167.037 50.7607C166.009 50.4726 165.192 50.1551 164.569 49.8184L163.618 51.5781C164.411 52.0063 165.377 52.3725 166.497 52.6865L167.037 50.7607ZM164.581 49.825C163.998 49.4995 163.611 49.1318 163.368 48.7411L161.67 49.7989C162.127 50.5313 162.79 51.1157 163.606 51.5714L164.581 49.825ZM163.368 48.7411C163.135 48.3682 162.994 47.8807 162.994 47.2314H160.994C160.994 48.1773 161.203 49.0488 161.67 49.7989L163.368 48.7411ZM162.994 47.2314C162.994 46.5628 163.149 46.0562 163.412 45.6621L161.748 44.5527C161.229 45.3305 160.994 46.24 160.994 47.2314H162.994ZM163.41 45.6647C163.697 45.2375 164.106 44.8872 164.675 44.6223L163.83 42.8094C162.966 43.2118 162.261 43.7892 161.75 44.5501L163.41 45.6647ZM164.675 44.6223C165.252 44.3534 165.959 44.1845 166.818 44.1408L166.716 42.1434C165.655 42.1974 164.685 42.4109 163.83 42.8094L164.675 44.6223ZM167.767 43.1421V41.0303H165.767V43.1421H167.767ZM166.767 42.0303H168.256V40.0303H166.767V42.0303ZM167.256 41.0303V43.1177H169.256V41.0303H167.256ZM168.228 44.1173C169.042 44.1401 169.766 44.231 170.405 44.3833L170.869 42.438C170.075 42.2485 169.212 42.1441 168.284 42.1181L168.228 44.1173ZM170.415 44.3858C171.079 44.5366 171.684 44.7306 172.234 44.9652L173.019 43.1256C172.348 42.8393 171.627 42.6102 170.858 42.4355L170.415 44.3858ZM171.69 43.695L171.055 45.3918L172.928 46.0926L173.563 44.3958L171.69 43.695ZM172.361 44.8128C171.759 44.5738 171.115 44.3729 170.431 44.2084L169.963 46.1529C170.565 46.2977 171.118 46.4711 171.623 46.6716L172.361 44.8128ZM170.431 44.2084C169.741 44.0423 169.045 43.9284 168.344 43.8671L168.169 45.8595C168.77 45.9121 169.368 46.0098 169.963 46.1529L170.431 44.2084ZM167.256 44.8633V50.1978H169.256V44.8633H167.256ZM167.977 51.1579C169.032 51.465 169.886 51.784 170.552 52.1093L171.43 50.3126C170.631 49.9217 169.662 49.5652 168.536 49.2376L167.977 51.1579ZM170.555 52.1112C171.184 52.4151 171.593 52.7605 171.847 53.1192L173.479 51.9638C172.984 51.2645 172.279 50.7229 171.426 50.3107L170.555 52.1112ZM171.847 53.1192C172.071 53.4358 172.225 53.9005 172.225 54.5923H174.225C174.225 53.6077 174.004 52.7052 173.479 51.9638L171.847 53.1192ZM172.225 54.5923C172.225 55.5002 171.908 56.1749 171.275 56.7079L172.562 58.2384C173.67 57.3066 174.225 56.0606 174.225 54.5923H172.225ZM171.279 56.7043C170.612 57.2594 169.606 57.6538 168.158 57.7963L168.354 59.7867C170.048 59.6199 171.484 59.1354 172.558 58.242L171.279 56.7043ZM167.256 58.7915V61.4526H169.256V58.7915H167.256ZM168.256 60.4526H166.767V62.4526H168.256V60.4526ZM168.353 57.9801C169.437 57.8744 170.402 57.6038 171.107 57.0519L169.874 55.4774C169.602 55.6905 169.077 55.9 168.159 55.9896L168.353 57.9801ZM171.109 57.0505C171.847 56.4692 172.235 55.6662 172.235 54.7266H170.235C170.235 55.0565 170.126 55.2788 169.872 55.4788L171.109 57.0505ZM172.235 54.7266C172.235 54.1309 172.107 53.5482 171.774 53.0488L170.11 54.1582C170.168 54.2448 170.235 54.4107 170.235 54.7266H172.235ZM171.785 53.0651C171.468 52.5696 170.99 52.2116 170.455 51.9489L169.574 53.7445C169.901 53.9049 170.041 54.0515 170.099 54.1419L171.785 53.0651ZM170.468 51.9556C169.948 51.6906 169.286 51.4615 168.511 51.2572L168.001 53.1911C168.708 53.3774 169.218 53.5633 169.56 53.7377L170.468 51.9556ZM167.256 52.2241V56.9849H169.256V52.2241H167.256ZM167.767 49.6851V44.9121H165.767V49.6851H167.767ZM166.701 43.9143C166.01 43.9604 165.372 44.0924 164.818 44.3423L165.64 46.1655C165.916 46.041 166.304 45.9452 166.834 45.9099L166.701 43.9143ZM164.818 44.3423C164.278 44.5858 163.807 44.9325 163.471 45.4114L165.107 46.5613C165.194 46.4379 165.35 46.2963 165.64 46.1655L164.818 44.3423ZM163.46 45.4265C163.13 45.9156 162.984 46.4752 162.984 47.0605H164.984C164.984 46.8158 165.041 46.6593 165.118 46.5462L163.46 45.4265ZM162.984 47.0605C162.984 47.6612 163.096 48.2408 163.376 48.751L165.129 47.7871C165.051 47.6462 164.984 47.4201 164.984 47.0605H162.984ZM163.391 48.777C163.689 49.2822 164.134 49.6678 164.655 49.9594L165.632 48.2144C165.339 48.0503 165.19 47.8907 165.114 47.7611L163.391 48.777ZM164.676 49.9707C165.18 50.2377 165.799 50.4606 166.508 50.6509L167.026 48.7192C166.401 48.5514 165.937 48.3755 165.611 48.2031L164.676 49.9707ZM183.649 42.1533L184.587 42.5021L185.088 41.1533H183.649V42.1533ZM177.009 60V61H177.704L177.946 60.3487L177.009 60ZM175.007 60L174.07 59.6507L173.567 61H175.007V60ZM181.66 42.1533V41.1533H180.965L180.723 41.804L181.66 42.1533ZM182.712 41.8046L176.072 59.6513L177.946 60.3487L184.587 42.5021L182.712 41.8046ZM177.009 59H175.007V61H177.009V59ZM175.944 60.3493L182.597 42.5026L180.723 41.804L174.07 59.6507L175.944 60.3493ZM181.66 43.1533H183.649V41.1533H181.66V43.1533ZM196.345 48.0981L197.101 47.4438L196.345 48.0981ZM195.222 59.4507L194.684 58.6074L194.681 58.6098L195.222 59.4507ZM188.105 58.1689L188.934 57.6101L188.637 57.1689H188.105V58.1689ZM187.958 58.1689V57.1689H186.879L186.961 58.2456L187.958 58.1689ZM188.044 59.3164L187.047 59.3889L187.047 59.3979L187.048 59.4069L188.044 59.3164ZM188.105 65.9814V66.9814H189.105V65.9814H188.105ZM186.066 65.9814H185.066V66.9814H186.066V65.9814ZM186.066 46.6211V45.6211H185.066V46.6211H186.066ZM187.739 46.6211L188.73 46.4865L188.612 45.6211H187.739V46.6211ZM188.007 48.5986L187.016 48.7332L187.134 49.5986H188.007V48.5986ZM188.105 48.5986V49.5986H188.652L188.947 49.1377L188.105 48.5986ZM189.057 47.4878L189.723 48.2344L189.731 48.2263L189.057 47.4878ZM190.424 46.6821L190.766 47.622L190.774 47.619L190.424 46.6821ZM189.753 48.623L189.221 47.7764L189.215 47.7799L189.753 48.623ZM188.52 50.2344L189.459 50.5796L189.46 50.5761L188.52 50.2344ZM188.105 52.9077L187.105 52.8926L187.105 52.9001V52.9077H188.105ZM188.471 56.167L187.517 56.4653L187.52 56.4743L188.471 56.167ZM189.704 57.9492L189.123 58.763L189.128 58.7668L189.704 57.9492ZM194.099 57.8882L193.47 57.1107L194.099 57.8882ZM195.332 56.0205L194.386 55.6957L194.384 55.7014L195.332 56.0205ZM194.819 49.4897L193.981 50.036L193.987 50.0444L194.819 49.4897ZM192.353 47.377C193.764 47.377 194.806 47.848 195.589 48.7525L197.101 47.4438C195.898 46.0534 194.279 45.377 192.353 45.377V47.377ZM195.589 48.7525C196.36 49.6444 196.834 51.0913 196.834 53.2739H198.834C198.834 50.8504 198.315 48.8468 197.101 47.4438L195.589 48.7525ZM196.834 53.2739C196.834 54.7024 196.619 55.833 196.235 56.7035L198.065 57.5104C198.593 56.3138 198.834 54.8891 198.834 53.2739H196.834ZM196.235 56.7035C195.847 57.5837 195.324 58.1996 194.684 58.6074L195.759 60.294C196.779 59.6439 197.542 58.6972 198.065 57.5104L196.235 56.7035ZM194.681 58.6098C194.043 59.0201 193.265 59.2441 192.304 59.2441V61.2441C193.59 61.2441 194.757 60.9392 195.763 60.2916L194.681 58.6098ZM192.304 59.2441C191.682 59.2441 191.175 59.1616 190.766 59.0191L190.107 60.9077C190.773 61.1395 191.51 61.2441 192.304 61.2441V59.2441ZM190.766 59.0191C190.325 58.8656 189.974 58.6679 189.696 58.437L188.419 59.9761C188.905 60.3799 189.474 60.6868 190.107 60.9077L190.766 59.0191ZM189.696 58.437C189.379 58.1743 189.128 57.898 188.934 57.6101L187.276 58.7278C187.586 59.1886 187.97 59.604 188.419 59.9761L189.696 58.437ZM188.105 57.1689H187.958V59.1689H188.105V57.1689ZM186.961 58.2456C186.986 58.5612 187.014 58.9422 187.047 59.3889L189.041 59.2439C189.009 58.7954 188.98 58.4114 188.956 58.0922L186.961 58.2456ZM187.048 59.4069C187.087 59.834 187.105 60.1931 187.105 60.4883H189.105C189.105 60.1161 189.082 59.694 189.04 59.2259L187.048 59.4069ZM187.105 60.4883V65.9814H189.105V60.4883H187.105ZM188.105 64.9814H186.066V66.9814H188.105V64.9814ZM187.066 65.9814V46.6211H185.066V65.9814H187.066ZM186.066 47.6211H187.739V45.6211H186.066V47.6211ZM186.748 46.7557L187.016 48.7332L188.998 48.4641L188.73 46.4865L186.748 46.7557ZM188.007 49.5986H188.105V47.5986H188.007V49.5986ZM188.947 49.1377C189.157 48.8106 189.414 48.5095 189.722 48.2343L188.392 46.7413C187.952 47.1334 187.574 47.5729 187.263 48.0596L188.947 49.1377ZM189.731 48.2263C189.998 47.9832 190.336 47.7782 190.766 47.6219L190.083 45.7423C189.438 45.9767 188.865 46.3088 188.383 46.7493L189.731 48.2263ZM190.774 47.619C191.182 47.4669 191.701 47.377 192.353 47.377V45.377C191.524 45.377 190.758 45.4904 190.075 45.7452L190.774 47.619ZM191.999 47.0859C190.952 47.0859 189.999 47.287 189.221 47.7764L190.285 49.4697C190.646 49.243 191.191 49.0859 191.999 49.0859V47.0859ZM189.215 47.7799C188.442 48.273 187.905 49.0009 187.58 49.8926L189.46 50.5761C189.656 50.0356 189.941 49.6892 190.291 49.4662L189.215 47.7799ZM187.581 49.8892C187.269 50.7374 187.122 51.7494 187.105 52.8926L189.105 52.9229C189.12 51.9175 189.25 51.1473 189.459 50.5796L187.581 49.8892ZM187.105 52.9077V53.2983H189.105V52.9077H187.105ZM187.105 53.2983C187.105 54.495 187.233 55.5585 187.517 56.4653L189.426 55.8687C189.221 55.213 189.105 54.364 189.105 53.2983H187.105ZM187.52 56.4743C187.826 57.4232 188.35 58.2108 189.123 58.763L190.285 57.1355C189.919 56.8739 189.621 56.4733 189.423 55.8597L187.52 56.4743ZM189.128 58.7668C189.927 59.3291 190.923 59.5596 192.023 59.5596V57.5596C191.187 57.5596 190.637 57.3831 190.28 57.1316L189.128 58.7668ZM192.023 59.5596C193.043 59.5596 193.967 59.2805 194.728 58.6657L193.47 57.1107C193.123 57.3911 192.664 57.5596 192.023 57.5596V59.5596ZM194.728 58.6657C195.454 58.0784 195.961 57.2838 196.279 56.3396L194.384 55.7014C194.165 56.3522 193.85 56.8028 193.47 57.1107L194.728 58.6657ZM196.277 56.3453C196.597 55.4148 196.747 54.378 196.747 53.2495H194.747C194.747 54.2044 194.62 55.0149 194.386 55.6957L196.277 56.3453ZM196.747 53.2495C196.747 51.5521 196.416 50.0822 195.651 48.935L193.987 50.0444C194.459 50.7528 194.747 51.7894 194.747 53.2495H196.747ZM195.656 48.9435C194.834 47.6821 193.552 47.0859 191.999 47.0859V49.0859C192.985 49.0859 193.583 49.4257 193.981 50.036L195.656 48.9435ZM203.4 46.6211H204.4V45.6211H203.4V46.6211ZM203.4 60V61H204.4V60H203.4ZM201.374 60H200.374V61H201.374V60ZM201.374 46.6211V45.6211H200.374V46.6211H201.374ZM203.266 41.9458L202.585 42.6777L202.598 42.6898L202.611 42.7015L203.266 41.9458ZM203.266 43.9478L202.597 43.2045L202.591 43.2101L202.585 43.2159L203.266 43.9478ZM201.533 43.9478L200.839 44.6676L200.845 44.6737L200.851 44.6796L201.533 43.9478ZM201.533 41.9458L202.213 42.6786L202.214 42.6777L201.533 41.9458ZM202.4 46.6211V60H204.4V46.6211H202.4ZM203.4 59H201.374V61H203.4V59ZM202.374 60V46.6211H200.374V60H202.374ZM201.374 47.6211H203.4V45.6211H201.374V47.6211ZM202.412 42.6162C202.502 42.6162 202.541 42.6368 202.585 42.6777L203.948 41.2139C203.519 40.8154 202.988 40.6162 202.412 40.6162V42.6162ZM202.611 42.7015C202.593 42.6854 202.593 42.6745 202.602 42.6983C202.613 42.7289 202.632 42.8046 202.632 42.9468H204.632C204.632 42.3244 204.463 41.6598 203.921 41.1901L202.611 42.7015ZM202.632 42.9468C202.632 43.0825 202.613 43.1568 202.602 43.1891C202.592 43.2155 202.588 43.2126 202.597 43.2045L203.935 44.691C204.458 44.2202 204.632 43.5707 204.632 42.9468H202.632ZM202.585 43.2159C202.541 43.2568 202.502 43.2773 202.412 43.2773V45.2773C202.988 45.2773 203.519 45.0782 203.948 44.6796L202.585 43.2159ZM202.412 43.2773C202.291 43.2773 202.249 43.2479 202.214 43.2159L200.851 44.6796C201.289 45.0871 201.832 45.2773 202.412 45.2773V43.2773ZM202.227 43.2279C202.24 43.2404 202.234 43.2434 202.223 43.2096C202.209 43.1705 202.191 43.0889 202.191 42.9468H200.191C200.191 43.5516 200.346 44.1926 200.839 44.6676L202.227 43.2279ZM202.191 42.9468C202.191 42.7984 202.21 42.7153 202.223 42.6779C202.234 42.6463 202.236 42.6576 202.213 42.6786L200.852 41.213C200.341 41.6874 200.191 42.3436 200.191 42.9468H202.191ZM202.214 42.6777C202.249 42.6457 202.291 42.6162 202.412 42.6162V40.6162C201.832 40.6162 201.289 40.8065 200.851 41.2139L202.214 42.6777ZM215.498 46.6211V45.6211H215.048L214.75 45.9574L215.498 46.6211ZM217.731 46.6211L218.477 47.2876L219.967 45.6211H217.731V46.6211ZM211.958 53.0786L211.212 52.4121L210.614 53.0813L211.215 53.7481L211.958 53.0786ZM218.195 60V61H220.443L218.938 59.3305L218.195 60ZM215.815 60L215.07 60.6672L215.368 61H215.815V60ZM209.736 53.2129L210.481 52.5457L208.736 50.5976V53.2129H209.736ZM209.736 60V61H210.736V60H209.736ZM207.697 60H206.697V61H207.697V60ZM207.697 46.6211V45.6211H206.697V46.6211H207.697ZM209.736 46.6211H210.736V45.6211H209.736V46.6211ZM209.736 53.1152H208.736V55.7491L210.484 53.7789L209.736 53.1152ZM215.498 47.6211H217.731V45.6211H215.498V47.6211ZM216.986 45.9545L211.212 52.4121L212.703 53.7452L218.477 47.2876L216.986 45.9545ZM211.215 53.7481L217.452 60.6695L218.938 59.3305L212.7 52.4091L211.215 53.7481ZM218.195 59H215.815V61H218.195V59ZM216.56 59.3328L210.481 52.5457L208.991 53.8801L215.07 60.6672L216.56 59.3328ZM208.736 53.2129V60H210.736V53.2129H208.736ZM209.736 59H207.697V61H209.736V59ZM208.697 60V46.6211H206.697V60H208.697ZM207.697 47.6211H209.736V45.6211H207.697V47.6211ZM208.736 46.6211V53.1152H210.736V46.6211H208.736ZM210.484 53.7789L216.246 47.2848L214.75 45.9574L208.988 52.4516L210.484 53.7789Z" fill="white" mask="url(#path-3-outside-1_87_26)"/>
</g>
</g>
<defs>
<filter id="filter0_d_87_26" x="0" y="0" width="358" height="108.824" filterUnits="userSpaceOnUse" color-interpolation-filters="sRGB">
<feFlood flood-opacity="0" result="BackgroundImageFix"/>
<feColorMatrix in="SourceAlpha" type="matrix" values="0 0 0 0 0 0 0 0 0 0 0 0 0 0 0 0 0 0 127 0" result="hardAlpha"/>
<feOffset dy="4"/>
<feGaussianBlur stdDeviation="2"/>
<feComposite in2="hardAlpha" operator="out"/>
<feColorMatrix type="matrix" values="0 0 0 0 0 0 0 0 0 0 0 0 0 0 0 0 0 0 0.25 0"/>
<feBlend mode="normal" in2="BackgroundImageFix" result="effect1_dropShadow_87_26"/>
<feBlend mode="normal" in="SourceGraphic" in2="effect1_dropShadow_87_26" result="shape"/>
</filter>
<filter id="filter1_d_87_26" x="0" y="0" width="358" height="108.824" filterUnits="userSpaceOnUse" color-interpolation-filters="sRGB">
<feFlood flood-opacity="0" result="BackgroundImageFix"/>
<feColorMatrix in="SourceAlpha" type="matrix" values="0 0 0 0 0 0 0 0 0 0 0 0 0 0 0 0 0 0 127 0" result="hardAlpha"/>
<feOffset dy="4"/>
<feGaussianBlur stdDeviation="2"/>
<feComposite in2="hardAlpha" operator="out"/>
<feColorMatrix type="matrix" values="0 0 0 0 0 0 0 0 0 0 0 0 0 0 0 0 0 0 0.25 0"/>
<feBlend mode="normal" in2="BackgroundImageFix" result="effect1_dropShadow_87_26"/>
<feBlend mode="normal" in="SourceGraphic" in2="effect1_dropShadow_87_26" result="shape"/>
</filter>
<filter id="filter2_d_87_26" x="115.782" y="41.0312" width="106.413" height="32.9492" filterUnits="userSpaceOnUse" color-interpolation-filters="sRGB">
<feFlood flood-opacity="0" result="BackgroundImageFix"/>
<feColorMatrix in="SourceAlpha" type="matrix" values="0 0 0 0 0 0 0 0 0 0 0 0 0 0 0 0 0 0 127 0" result="hardAlpha"/>
<feOffset dy="4"/>
<feGaussianBlur stdDeviation="2"/>
<feComposite in2="hardAlpha" operator="out"/>
<feColorMatrix type="matrix" values="0 0 0 0 0 0 0 0 0 0 0 0 0 0 0 0 0 0 0.25 0"/>
<feBlend mode="normal" in2="BackgroundImageFix" result="effect1_dropShadow_87_26"/>
<feBlend mode="normal" in="SourceGraphic" in2="effect1_dropShadow_87_26" result="shape"/>
</filter>
</defs>
</svg>
