<svg width="358" height="109" viewBox="0 0 358 109" fill="none" xmlns="http://www.w3.org/2000/svg">
<g filter="url(#filter0_d_87_26)">
<g opacity="0.5" filter="url(#filter1_d_87_26)">
<path d="M4 30C4 13.4314 17.4315 0 34 0H324C340.569 0 354 13.4315 354 30V70.8234C354 87.392 340.569 100.823 324 100.823H34C17.4315 100.823 4 87.392 4 70.8234V30Z" fill="#0859D2"/>
<path d="M34 0.5H324C340.292 0.5 353.5 13.7076 353.5 30V70.8234C353.5 87.1158 340.292 100.323 324 100.323H34C17.7076 100.323 4.5 87.1158 4.5 70.8234V30C4.5 13.7076 17.7076 0.5 34 0.5Z" stroke="white"/>
</g>
<g filter="url(#filter2_d_87_26)">
<mask id="path-3-outside-1_87_26" maskUnits="userSpaceOnUse" x="117" y="40" width="104" height="27" fill="black">
<rect fill="white" x="117" y="40" width="104" height="27"/>
<path d="M130.451 60H118.757V58.3032L123.53 53.457C124.417 52.5618 125.161 51.7643 125.764 51.0645C126.374 50.3646 126.838 49.6769 127.155 49.0015C127.473 48.3179 127.631 47.5692 127.631 46.7554C127.631 45.7463 127.33 44.9772 126.728 44.4482C126.134 43.9111 125.349 43.6426 124.372 43.6426C123.518 43.6426 122.761 43.7891 122.102 44.082C121.442 44.375 120.767 44.79 120.075 45.3271L118.989 43.96C119.461 43.5612 119.973 43.2072 120.527 42.8979C121.088 42.5887 121.687 42.3446 122.321 42.1655C122.964 41.9865 123.648 41.897 124.372 41.897C125.471 41.897 126.419 42.0882 127.216 42.4707C128.014 42.8532 128.628 43.3984 129.06 44.1064C129.499 44.8145 129.719 45.6567 129.719 46.6333C129.719 47.5773 129.532 48.4562 129.157 49.27C128.783 50.0757 128.258 50.8773 127.583 51.6748C126.907 52.4642 126.118 53.3024 125.214 54.1895L121.333 58.0591V58.1445H130.451V60ZM138.703 49.0869C139.916 49.0869 140.97 49.2944 141.865 49.7095C142.76 50.1164 143.452 50.7104 143.94 51.4917C144.436 52.2729 144.685 53.221 144.685 54.3359C144.685 55.5566 144.42 56.6105 143.891 57.4976C143.362 58.3765 142.601 59.056 141.608 59.5361C140.616 60.0081 139.427 60.2441 138.044 60.2441C137.116 60.2441 136.254 60.1628 135.456 60C134.659 59.8372 133.987 59.5931 133.442 59.2676V57.3389C134.036 57.6969 134.756 57.9818 135.603 58.1934C136.449 58.4049 137.271 58.5107 138.068 58.5107C138.972 58.5107 139.761 58.3683 140.437 58.0835C141.12 57.7905 141.649 57.3511 142.023 56.7651C142.406 56.1711 142.597 55.4264 142.597 54.5312C142.597 53.3431 142.231 52.4276 141.499 51.7847C140.774 51.1336 139.627 50.8081 138.056 50.8081C137.552 50.8081 136.998 50.8488 136.396 50.9302C135.794 51.0116 135.297 51.1011 134.907 51.1987L133.881 50.5273L134.565 42.1533H143.439V44.0088H136.298L135.847 49.3921C136.156 49.327 136.555 49.2619 137.043 49.1968C137.531 49.1235 138.085 49.0869 138.703 49.0869ZM159.162 51.0522C159.162 52.5008 159.052 53.7948 158.833 54.9341C158.613 56.0734 158.267 57.0378 157.795 57.8271C157.323 58.6165 156.713 59.2188 155.964 59.6338C155.215 60.0407 154.316 60.2441 153.266 60.2441C151.94 60.2441 150.841 59.882 149.97 59.1577C149.108 58.4334 148.461 57.3877 148.029 56.0205C147.606 54.6452 147.395 52.9891 147.395 51.0522C147.395 49.1479 147.586 47.5122 147.968 46.145C148.359 44.7697 148.986 43.7158 149.848 42.9834C150.711 42.2428 151.85 41.8726 153.266 41.8726C154.609 41.8726 155.716 42.2388 156.586 42.9712C157.457 43.6955 158.104 44.7453 158.527 46.1206C158.951 47.4878 159.162 49.1317 159.162 51.0522ZM149.433 51.0522C149.433 52.7124 149.559 54.0959 149.812 55.2026C150.064 56.3094 150.471 57.1395 151.032 57.6929C151.602 58.2381 152.347 58.5107 153.266 58.5107C154.186 58.5107 154.926 58.2381 155.488 57.6929C156.057 57.1476 156.468 56.3216 156.721 55.2148C156.981 54.1081 157.111 52.7205 157.111 51.0522C157.111 49.4165 156.985 48.0493 156.733 46.9507C156.481 45.8439 156.074 45.0138 155.512 44.4604C154.951 43.8989 154.202 43.6182 153.266 43.6182C152.33 43.6182 151.582 43.8989 151.02 44.4604C150.458 45.0138 150.052 45.8439 149.799 46.9507C149.555 48.0493 149.433 49.4165 149.433 51.0522ZM166.767 61.4526V58.8892C165.831 58.8729 164.936 58.7915 164.082 58.645C163.235 58.4985 162.543 58.3073 162.006 58.0713V56.0938C162.568 56.3542 163.288 56.582 164.167 56.7773C165.046 56.9727 165.913 57.0785 166.767 57.0947V51.7236C165.693 51.4225 164.802 51.0807 164.094 50.6982C163.394 50.3076 162.869 49.8315 162.519 49.27C162.169 48.7085 161.994 48.029 161.994 47.2314C161.994 46.4014 162.189 45.6934 162.58 45.1074C162.979 44.5133 163.536 44.0495 164.252 43.7158C164.969 43.3822 165.807 43.1909 166.767 43.1421V41.0303H168.256V43.1177C169.127 43.1421 169.921 43.2397 170.637 43.4106C171.353 43.5734 172.016 43.785 172.626 44.0454L171.992 45.7422C171.438 45.5225 170.84 45.3353 170.197 45.1807C169.554 45.026 168.907 44.9202 168.256 44.8633V50.1978C169.347 50.5151 170.258 50.8529 170.991 51.2109C171.731 51.569 172.289 52.0125 172.663 52.5415C173.037 53.0705 173.225 53.7541 173.225 54.5923C173.225 55.7804 172.789 56.7407 171.918 57.4731C171.048 58.1974 169.827 58.6369 168.256 58.7915V61.4526H166.767ZM168.256 56.9849C169.257 56.8872 170.002 56.6471 170.49 56.2646C170.987 55.874 171.235 55.3613 171.235 54.7266C171.235 54.2708 171.137 53.8965 170.942 53.6035C170.755 53.3105 170.445 53.0583 170.014 52.8467C169.583 52.627 168.997 52.4194 168.256 52.2241V56.9849ZM166.767 49.6851V44.9121C166.157 44.9528 165.644 45.0667 165.229 45.2539C164.814 45.4411 164.501 45.6852 164.289 45.9863C164.086 46.2874 163.984 46.6455 163.984 47.0605C163.984 47.5407 164.073 47.9435 164.252 48.269C164.44 48.5864 164.737 48.859 165.144 49.0869C165.559 49.3066 166.1 49.506 166.767 49.6851ZM183.649 42.1533L177.009 60H175.007L181.66 42.1533H183.649ZM192.353 46.377C194.021 46.377 195.352 46.9507 196.345 48.0981C197.338 49.2456 197.834 50.9709 197.834 53.2739C197.834 54.7957 197.606 56.0734 197.15 57.1069C196.695 58.1405 196.052 58.9217 195.222 59.4507C194.4 59.9797 193.427 60.2441 192.304 60.2441C191.596 60.2441 190.974 60.1506 190.437 59.9634C189.899 59.7762 189.44 59.5239 189.057 59.2065C188.675 58.8892 188.357 58.5433 188.105 58.1689H187.958C187.983 58.4863 188.011 58.8688 188.044 59.3164C188.085 59.764 188.105 60.1546 188.105 60.4883V65.9814H186.066V46.6211H187.739L188.007 48.5986H188.105C188.365 48.1917 188.683 47.8215 189.057 47.4878C189.431 47.146 189.887 46.8774 190.424 46.6821C190.97 46.4787 191.612 46.377 192.353 46.377ZM191.999 48.0859C191.071 48.0859 190.323 48.265 189.753 48.623C189.191 48.9811 188.78 49.5182 188.52 50.2344C188.26 50.9424 188.121 51.8335 188.105 52.9077V53.2983C188.105 54.4295 188.227 55.3857 188.471 56.167C188.723 56.9482 189.134 57.5423 189.704 57.9492C190.282 58.3561 191.055 58.5596 192.023 58.5596C192.854 58.5596 193.545 58.3358 194.099 57.8882C194.652 57.4406 195.063 56.818 195.332 56.0205C195.608 55.2148 195.747 54.2912 195.747 53.2495C195.747 51.6707 195.437 50.4175 194.819 49.4897C194.208 48.5539 193.269 48.0859 191.999 48.0859ZM203.4 46.6211V60H201.374V46.6211H203.4ZM202.412 41.6162C202.745 41.6162 203.03 41.7261 203.266 41.9458C203.51 42.1574 203.632 42.491 203.632 42.9468C203.632 43.3944 203.51 43.728 203.266 43.9478C203.03 44.1675 202.745 44.2773 202.412 44.2773C202.062 44.2773 201.769 44.1675 201.533 43.9478C201.305 43.728 201.191 43.3944 201.191 42.9468C201.191 42.491 201.305 42.1574 201.533 41.9458C201.769 41.7261 202.062 41.6162 202.412 41.6162ZM215.498 46.6211H217.731L211.958 53.0786L218.195 60H215.815L209.736 53.2129V60H207.697V46.6211H209.736V53.1152L215.498 46.6211Z"/>
</mask>
<path d="M130.451 60H118.757V58.3032L123.53 53.457C124.417 52.5618 125.161 51.7643 125.764 51.0645C126.374 50.3646 126.838 49.6769 127.155 49.0015C127.473 48.3179 127.631 47.5692 127.631 46.7554C127.631 45.7463 127.33 44.9772 126.728 44.4482C126.134 43.9111 125.349 43.6426 124.372 43.6426C123.518 43.6426 122.761 43.7891 122.102 44.082C121.442 44.375 120.767 44.79 120.075 45.3271L118.989 43.96C119.461 43.5612 119.973 43.2072 120.527 42.8979C121.088 42.5887 121.687 42.3446 122.321 42.1655C122.964 41.9865 123.648 41.897 124.372 41.897C125.471 41.897 126.419 42.0882 127.216 42.4707C128.014 42.8532 128.628 43.3984 129.06 44.1064C129.499 44.8145 129.719 45.6567 129.719 46.6333C129.719 47.5773 129.532 48.4562 129.157 49.27C128.783 50.0757 128.258 50.8773 127.583 51.6748C126.907 52.4642 126.118 53.3024 125.214 54.1895L121.333 58.0591V58.1445H130.451V60ZM138.703 49.0869C139.916 49.0869 140.97 49.2944 141.865 49.7095C142.76 50.1164 143.452 50.7104 143.94 51.4917C144.436 52.2729 144.685 53.221 144.685 54.3359C144.685 55.5566 144.42 56.6105 143.891 57.4976C143.362 58.3765 142.601 59.056 141.608 59.5361C140.616 60.0081 139.427 60.2441 138.044 60.2441C137.116 60.2441 136.254 60.1628 135.456 60C134.659 59.8372 133.987 59.5931 133.442 59.2676V57.3389C134.036 57.6969 134.756 57.9818 135.603 58.1934C136.449 58.4049 137.271 58.5107 138.068 58.5107C138.972 58.5107 139.761 58.3683 140.437 58.0835C141.12 57.7905 141.649 57.3511 142.023 56.7651C142.406 56.1711 142.597 55.4264 142.597 54.5312C142.597 53.3431 142.231 52.4276 141.499 51.7847C140.774 51.1336 139.627 50.8081 138.056 50.8081C137.552 50.8081 136.998 50.8488 136.396 50.9302C135.794 51.0116 135.297 51.1011 134.907 51.1987L133.881 50.5273L134.565 42.1533H143.439V44.0088H136.298L135.847 49.3921C136.156 49.327 136.555 49.2619 137.043 49.1968C137.531 49.1235 138.085 49.0869 138.703 49.0869ZM159.162 51.0522C159.162 52.5008 159.052 53.7948 158.833 54.9341C158.613 56.0734 158.267 57.0378 157.795 57.8271C157.323 58.6165 156.713 59.2188 155.964 59.6338C155.215 60.0407 154.316 60.2441 153.266 60.2441C151.94 60.2441 150.841 59.882 149.97 59.1577C149.108 58.4334 148.461 57.3877 148.029 56.0205C147.606 54.6452 147.395 52.9891 147.395 51.0522C147.395 49.1479 147.586 47.5122 147.968 46.145C148.359 44.7697 148.986 43.7158 149.848 42.9834C150.711 42.2428 151.85 41.8726 153.266 41.8726C154.609 41.8726 155.716 42.2388 156.586 42.9712C157.457 43.6955 158.104 44.7453 158.527 46.1206C158.951 47.4878 159.162 49.1317 159.162 51.0522ZM149.433 51.0522C149.433 52.7124 149.559 54.0959 149.812 55.2026C150.064 56.3094 150.471 57.1395 151.032 57.6929C151.602 58.2381 152.347 58.5107 153.266 58.5107C154.186 58.5107 154.926 58.2381 155.488 57.6929C156.057 57.1476 156.468 56.3216 156.721 55.2148C156.981 54.1081 157.111 52.7205 157.111 51.0522C157.111 49.4165 156.985 48.0493 156.733 46.9507C156.481 45.8439 156.074 45.0138 155.512 44.4604C154.951 43.8989 154.202 43.6182 153.266 43.6182C152.33 43.6182 151.582 43.8989 151.02 44.4604C150.458 45.0138 150.052 45.8439 149.799 46.9507C149.555 48.0493 149.433 49.4165 149.433 51.0522ZM166.767 61.4526V58.8892C165.831 58.8729 164.936 58.7915 164.082 58.645C163.235 58.4985 162.543 58.3073 162.006 58.0713V56.0938C162.568 56.3542 163.288 56.582 164.167 56.7773C165.046 56.9727 165.913 57.0785 166.767 57.0947V51.7236C165.693 51.4225 164.802 51.0807 164.094 50.6982C163.394 50.3076 162.869 49.8315 162.519 49.27C162.169 48.7085 161.994 48.029 161.994 47.2314C161.994 46.4014 162.189 45.6934 162.58 45.1074C162.979 44.5133 163.536 44.0495 164.252 43.7158C164.969 43.3822 165.807 43.1909 166.767 43.1421V41.0303H168.256V43.1177C169.127 43.1421 169.921 43.2397 170.637 43.4106C171.353 43.5734 172.016 43.785 172.626 44.0454L171.992 45.7422C171.438 45.5225 170.84 45.3353 170.197 45.1807C169.554 45.026 168.907 44.9202 168.256 44.8633V50.1978C169.347 50.5151 170.258 50.8529 170.991 51.2109C171.731 51.569 172.289 52.0125 172.663 52.5415C173.037 53.0705 173.225 53.7541 173.225 54.5923C173.225 55.7804 172.789 56.7407 171.918 57.4731C171.048 58.1974 169.827 58.6369 168.256 58.7915V61.4526H166.767ZM168.256 56.9849C169.257 56.8872 170.002 56.6471 170.49 56.2646C170.987 55.874 171.235 55.3613 171.235 54.7266C171.235 54.2708 171.137 53.8965 170.942 53.6035C170.755 53.3105 170.445 53.0583 170.014 52.8467C169.583 52.627 168.997 52.4194 168.256 52.2241V56.9849ZM166.767 49.6851V44.9121C166.157 44.9528 165.644 45.0667 165.229 45.2539C164.814 45.4411 164.501 45.6852 164.289 45.9863C164.086 46.2874 163.984 46.6455 163.984 47.0605C163.984 47.5407 164.073 47.9435 164.252 48.269C164.44 48.5864 164.737 48.859 165.144 49.0869C165.559 49.3066 166.1 49.506 166.767 49.6851ZM183.649 42.1533L177.009 60H175.007L181.66 42.1533H183.649ZM192.353 46.377C194.021 46.377 195.352 46.9507 196.345 48.0981C197.338 49.2456 197.834 50.9709 197.834 53.2739C197.834 54.7957 197.606 56.0734 197.15 57.1069C196.695 58.1405 196.052 58.9217 195.222 59.4507C194.4 59.9797 193.427 60.2441 192.304 60.2441C191.596 60.2441 190.974 60.1506 190.437 59.9634C189.899 59.7762 189.44 59.5239 189.057 59.2065C188.675 58.8892 188.357 58.5433 188.105 58.1689H187.958C187.983 58.4863 188.011 58.8688 188.044 59.3164C188.085 59.764 188.105 60.1546 188.105 60.4883V65.9814H186.066V46.6211H187.739L188.007 48.5986H188.105C188.365 48.1917 188.683 47.8215 189.057 47.4878C189.431 47.146 189.887 46.8774 190.424 46.6821C190.97 46.4787 191.612 46.377 192.353 46.377ZM191.999 48.0859C191.071 48.0859 190.323 48.265 189.753 48.623C189.191 48.9811 188.78 49.5182 188.52 50.2344C188.26 50.9424 188.121 51.8335 188.105 52.9077V53.2983C188.105 54.4295 188.227 55.3857 188.471 56.167C188.723 56.9482 189.134 57.5423 189.704 57.9492C190.282 58.3561 191.055 58.5596 192.023 58.5596C192.854 58.5596 193.545 58.3358 194.099 57.8882C194.652 57.4406 195.063 56.818 195.332 56.0205C195.608 55.2148 195.747 54.2912 195.747 53.2495C195.747 51.6707 195.437 50.4175 194.819 49.4897C194.208 48.5539 193.269 48.0859 191.999 48.0859ZM203.4 46.6211V60H201.374V46.6211H203.4ZM202.412 41.6162C202.745 41.6162 203.03 41.7261 203.266 41.9458C203.51 42.1574 203.632 42.491 203.632 42.9468C203.632 43.3944 203.51 43.728 203.266 43.9478C203.03 44.1675 202.745 44.2773 202.412 44.2773C202.062 44.2773 201.769 44.1675 201.533 43.9478C201.305 43.728 201.191 43.3944 201.191 42.9468C201.191 42.491 201.305 42.1574 201.533 41.9458C201.769 41.7261 202.062 41.6162 202.412 41.6162ZM215.498 46.6211H217.731L211.958 53.0786L218.195 60H215.815L209.736 53.2129V60H207.697V46.6211H209.736V53.1152L215.498 46.6211Z" fill="white"/>
<path d="M130.451 60V61H131.451V60H130.451ZM118.757 60H117.757V61H118.757V60ZM118.757 58.3032L118.044 57.6015L117.757 57.8935V58.3032H118.757ZM123.53 53.457L122.819 52.7532L122.817 52.7553L123.53 53.457ZM125.764 51.0645L125.01 50.4072L125.006 50.4122L125.764 51.0645ZM127.155 49.0015L128.06 49.4267L128.062 49.4226L127.155 49.0015ZM126.728 44.4482L126.057 45.19L126.063 45.1948L126.068 45.1996L126.728 44.4482ZM120.075 45.3271L119.292 45.9493L119.907 46.7234L120.688 46.117L120.075 45.3271ZM118.989 43.96L118.343 43.1961L117.602 43.8223L118.206 44.5821L118.989 43.96ZM120.527 42.8979L120.044 42.022L120.039 42.025L120.527 42.8979ZM122.321 42.1655L122.053 41.2022L122.05 41.2031L122.321 42.1655ZM129.06 44.1064L128.206 44.6267L128.21 44.6338L129.06 44.1064ZM129.157 49.27L130.064 49.6914L130.066 49.6879L129.157 49.27ZM127.583 51.6748L128.342 52.325L128.346 52.3211L127.583 51.6748ZM125.214 54.1895L124.514 53.4759L124.508 53.4812L125.214 54.1895ZM121.333 58.0591L120.627 57.3509L120.333 57.6439V58.0591H121.333ZM121.333 58.1445H120.333V59.1445H121.333V58.1445ZM130.451 58.1445H131.451V57.1445H130.451V58.1445ZM130.451 59H118.757V61H130.451V59ZM119.757 60V58.3032H117.757V60H119.757ZM119.469 59.0049L124.242 54.1587L122.817 52.7553L118.044 57.6015L119.469 59.0049ZM124.24 54.1609C125.138 53.2546 125.9 52.4394 126.522 51.7167L125.006 50.4122C124.423 51.0893 123.695 51.8691 122.819 52.7532L124.24 54.1609ZM126.517 51.7217C127.174 50.9682 127.695 50.2037 128.06 49.4267L126.25 48.5762C125.981 49.1501 125.574 49.761 125.01 50.4072L126.517 51.7217ZM128.062 49.4226C128.446 48.5968 128.631 47.7028 128.631 46.7554H126.631C126.631 47.4355 126.5 48.039 126.248 48.5804L128.062 49.4226ZM128.631 46.7554C128.631 45.5387 128.26 44.4629 127.388 43.6969L126.068 45.1996C126.4 45.4915 126.631 45.9538 126.631 46.7554H128.631ZM127.399 43.7065C126.582 42.9685 125.539 42.6426 124.372 42.6426V44.6426C125.158 44.6426 125.685 44.8537 126.057 45.19L127.399 43.7065ZM124.372 42.6426C123.403 42.6426 122.504 42.8089 121.695 43.1682L122.508 44.9958C123.018 44.7692 123.632 44.6426 124.372 44.6426V42.6426ZM121.695 43.1682C120.949 43.5001 120.204 43.9608 119.462 44.5373L120.688 46.117C121.33 45.6193 121.936 45.2499 122.508 44.9958L121.695 43.1682ZM120.858 44.705L119.772 43.3378L118.206 44.5821L119.292 45.9493L120.858 44.705ZM119.634 44.7238C120.056 44.3675 120.516 44.0497 121.015 43.7709L120.039 42.025C119.431 42.3647 118.866 42.7549 118.343 43.1961L119.634 44.7238ZM121.009 43.7739C121.502 43.5025 122.029 43.2869 122.593 43.128L122.05 41.2031C121.344 41.4022 120.675 41.6749 120.044 42.022L121.009 43.7739ZM122.59 43.1289C123.138 42.9761 123.731 42.897 124.372 42.897V40.897C123.565 40.897 122.79 40.9968 122.053 41.2022L122.59 43.1289ZM124.372 42.897C125.356 42.897 126.15 43.0683 126.784 43.3724L127.649 41.569C126.688 41.1081 125.585 40.897 124.372 40.897V42.897ZM126.784 43.3724C127.419 43.677 127.882 44.0952 128.206 44.6267L129.914 43.5862C129.375 42.7017 128.609 42.0293 127.649 41.569L126.784 43.3724ZM128.21 44.6338C128.535 45.1579 128.719 45.8106 128.719 46.6333H130.719C130.719 45.5029 130.463 44.471 129.909 43.5791L128.21 44.6338ZM128.719 46.6333C128.719 47.441 128.56 48.1764 128.249 48.8521L130.066 49.6879C130.504 48.736 130.719 47.7136 130.719 46.6333H128.719ZM128.25 48.8486C127.92 49.5605 127.447 50.2875 126.819 51.0285L128.346 52.3211C129.069 51.467 129.646 50.5909 130.064 49.6914L128.25 48.8486ZM126.823 51.0247C126.17 51.788 125.401 52.605 124.514 53.4759L125.915 54.903C126.835 53.9999 127.645 53.1404 128.342 52.325L126.823 51.0247ZM124.508 53.4812L120.627 57.3509L122.039 58.7673L125.92 54.8977L124.508 53.4812ZM120.333 58.0591V58.1445H122.333V58.0591H120.333ZM121.333 59.1445H130.451V57.1445H121.333V59.1445ZM129.451 58.1445V60H131.451V58.1445H129.451ZM141.865 49.7095L141.444 50.6167L141.451 50.6198L141.865 49.7095ZM143.94 51.4917L143.092 52.0217L143.096 52.028L143.94 51.4917ZM143.891 57.4976L144.748 58.0132L144.75 58.0097L143.891 57.4976ZM141.608 59.5361L142.038 60.4393L142.044 60.4364L141.608 59.5361ZM133.442 59.2676H132.442V59.8352L132.929 60.1262L133.442 59.2676ZM133.442 57.3389L133.958 56.4824L132.442 55.5685V57.3389H133.442ZM140.437 58.0835L140.825 59.0049L140.83 59.0026L140.437 58.0835ZM142.023 56.7651L141.183 56.2238L141.181 56.2267L142.023 56.7651ZM141.499 51.7847L140.83 52.5284L140.839 52.5362L141.499 51.7847ZM134.907 51.1987L134.359 52.0353L134.725 52.275L135.149 52.1689L134.907 51.1987ZM133.881 50.5273L132.885 50.446L132.836 51.0384L133.334 51.364L133.881 50.5273ZM134.565 42.1533V41.1533H133.643L133.568 42.072L134.565 42.1533ZM143.439 42.1533H144.439V41.1533H143.439V42.1533ZM143.439 44.0088V45.0088H144.439V44.0088H143.439ZM136.298 44.0088V43.0088H135.379L135.302 43.9252L136.298 44.0088ZM135.847 49.3921L134.85 49.3085L134.738 50.6474L136.053 50.3706L135.847 49.3921ZM137.043 49.1968L137.175 50.188L137.183 50.1869L137.191 50.1857L137.043 49.1968ZM138.703 50.0869C139.803 50.0869 140.707 50.2751 141.444 50.6167L142.285 48.8022C141.232 48.3138 140.028 48.0869 138.703 48.0869V50.0869ZM141.451 50.6198C142.18 50.9511 142.715 51.4186 143.092 52.0217L144.788 50.9617C144.188 50.0023 143.34 49.2816 142.279 48.7991L141.451 50.6198ZM143.096 52.028C143.471 52.6188 143.685 53.3718 143.685 54.3359H145.685C145.685 53.0703 145.401 51.9271 144.784 50.9554L143.096 52.028ZM143.685 54.3359C143.685 55.4094 143.453 56.2794 143.032 56.9854L144.75 58.0097C145.387 56.9417 145.685 55.7039 145.685 54.3359H143.685ZM143.034 56.9819C142.613 57.6818 142.005 58.2336 141.173 58.6359L142.044 60.4364C143.198 59.8783 144.111 59.0711 144.748 58.0132L143.034 56.9819ZM141.179 58.633C140.35 59.0269 139.316 59.2441 138.044 59.2441V61.2441C139.539 61.2441 140.881 60.9893 142.038 60.4393L141.179 58.633ZM138.044 59.2441C137.174 59.2441 136.379 59.1678 135.656 59.0202L135.256 60.9798C136.128 61.1577 137.058 61.2441 138.044 61.2441V59.2441ZM135.656 59.0202C134.939 58.8739 134.38 58.6631 133.955 58.409L132.929 60.1262C133.594 60.5231 134.378 60.8006 135.256 60.9798L135.656 59.0202ZM134.442 59.2676V57.3389H132.442V59.2676H134.442ZM132.926 58.1953C133.623 58.6159 134.441 58.9337 135.36 59.1635L135.845 57.2232C135.071 57.0298 134.448 56.778 133.958 56.4824L132.926 58.1953ZM135.36 59.1635C136.278 59.3931 137.182 59.5107 138.068 59.5107V57.5107C137.36 57.5107 136.619 57.4168 135.845 57.2232L135.36 59.1635ZM138.068 59.5107C139.075 59.5107 140.002 59.3522 140.825 59.0049L140.048 57.1621C139.52 57.3845 138.868 57.5107 138.068 57.5107V59.5107ZM140.83 59.0026C141.685 58.6364 142.376 58.0705 142.866 57.3035L141.181 56.2267C140.922 56.6316 140.555 56.9446 140.043 57.1644L140.83 59.0026ZM142.864 57.3065C143.375 56.5129 143.597 55.5675 143.597 54.5312H141.597C141.597 55.2854 141.437 55.8292 141.183 56.2238L142.864 57.3065ZM143.597 54.5312C143.597 53.1239 143.154 51.9069 142.158 51.0331L140.839 52.5362C141.308 52.9482 141.597 53.5623 141.597 54.5312H143.597ZM142.167 51.041C141.175 50.1494 139.731 49.8081 138.056 49.8081V51.8081C139.523 51.8081 140.373 52.1178 140.83 52.5284L142.167 51.041ZM138.056 49.8081C137.499 49.8081 136.9 49.853 136.262 49.9392L136.53 51.9212C137.096 51.8446 137.604 51.8081 138.056 51.8081V49.8081ZM136.262 49.9392C135.64 50.0233 135.104 50.1187 134.664 50.2286L135.149 52.1689C135.491 52.0834 135.948 51.9998 136.53 51.9212L136.262 49.9392ZM135.455 50.3621L134.429 49.6907L133.334 51.364L134.359 52.0353L135.455 50.3621ZM134.878 50.6087L135.562 42.2347L133.568 42.072L132.885 50.446L134.878 50.6087ZM134.565 43.1533H143.439V41.1533H134.565V43.1533ZM142.439 42.1533V44.0088H144.439V42.1533H142.439ZM143.439 43.0088H136.298V45.0088H143.439V43.0088ZM135.302 43.9252L134.85 49.3085L136.843 49.4757L137.295 44.0924L135.302 43.9252ZM136.053 50.3706C136.328 50.3127 136.7 50.2514 137.175 50.188L136.911 48.2055C136.41 48.2724 135.984 48.3413 135.641 48.4135L136.053 50.3706ZM137.191 50.1857C137.62 50.1214 138.122 50.0869 138.703 50.0869V48.0869C138.047 48.0869 137.442 48.1257 136.895 48.2078L137.191 50.1857ZM155.964 59.6338L156.441 60.5124L156.449 60.5084L155.964 59.6338ZM149.97 59.1577L149.327 59.9236L149.331 59.9265L149.97 59.1577ZM148.029 56.0205L147.073 56.3146L147.076 56.3214L148.029 56.0205ZM147.968 46.145L147.006 45.8718L147.005 45.8756L147.968 46.145ZM149.848 42.9834L150.495 43.7457L150.5 43.7421L149.848 42.9834ZM156.586 42.9712L155.943 43.7365L155.947 43.74L156.586 42.9712ZM158.527 46.1206L157.572 46.4147L157.572 46.4163L158.527 46.1206ZM149.812 55.2026L148.837 55.4249L149.812 55.2026ZM151.032 57.6929L150.33 58.4051L150.335 58.4102L150.341 58.4153L151.032 57.6929ZM155.488 57.6929L154.796 56.9704L154.791 56.9754L155.488 57.6929ZM156.721 55.2148L155.747 54.9858L155.746 54.9926L156.721 55.2148ZM156.733 46.9507L155.758 47.1729L155.758 47.1745L156.733 46.9507ZM155.512 44.4604L154.805 45.1676L154.81 45.1727L155.512 44.4604ZM151.02 44.4604L151.722 45.1727L151.727 45.1676L151.02 44.4604ZM149.799 46.9507L148.824 46.7284L148.823 46.7338L149.799 46.9507ZM158.162 51.0522C158.162 52.4522 158.056 53.6809 157.851 54.7447L159.814 55.1234C160.049 53.9086 160.162 52.5494 160.162 51.0522H158.162ZM157.851 54.7447C157.647 55.7983 157.336 56.6468 156.937 57.314L158.653 58.3403C159.198 57.4288 159.578 56.3485 159.814 55.1234L157.851 54.7447ZM156.937 57.314C156.548 57.9637 156.062 58.4359 155.479 58.7592L156.449 60.5084C157.363 60.0016 158.098 59.2694 158.653 58.3403L156.937 57.314ZM155.486 58.7552C154.914 59.066 154.187 59.2441 153.266 59.2441V61.2441C154.445 61.2441 155.516 61.0154 156.441 60.5124L155.486 58.7552ZM153.266 59.2441C152.131 59.2441 151.271 58.939 150.61 58.3889L149.331 59.9265C150.411 60.825 151.748 61.2441 153.266 61.2441V59.2441ZM150.613 58.3919C149.931 57.8192 149.373 56.9545 148.983 55.7196L147.076 56.3214C147.549 57.8209 148.284 59.0477 149.327 59.9236L150.613 58.3919ZM148.985 55.7264C148.599 54.4728 148.395 52.9215 148.395 51.0522H146.395C146.395 53.0567 146.613 54.8175 147.074 56.3146L148.985 55.7264ZM148.395 51.0522C148.395 49.2101 148.58 47.6699 148.931 46.4144L147.005 45.8756C146.591 47.3545 146.395 49.0858 146.395 51.0522H148.395ZM148.93 46.4182C149.281 45.1834 149.819 44.3198 150.495 43.7457L149.201 42.2211C148.152 43.1118 147.437 44.356 147.006 45.8718L148.93 46.4182ZM150.5 43.7421C151.14 43.1927 152.028 42.8726 153.266 42.8726V40.8726C151.672 40.8726 150.282 41.293 149.197 42.2246L150.5 43.7421ZM153.266 42.8726C154.418 42.8726 155.284 43.182 155.943 43.7365L157.23 42.2059C156.148 41.2955 154.8 40.8726 153.266 40.8726V42.8726ZM155.947 43.74C156.633 44.3105 157.19 45.1751 157.572 46.4147L159.483 45.8265C159.018 44.3155 158.282 43.0805 157.226 42.2024L155.947 43.74ZM157.572 46.4163C157.957 47.6614 158.162 49.2 158.162 51.0522H160.162C160.162 49.0634 159.944 47.3142 159.483 45.8249L157.572 46.4163ZM148.433 51.0522C148.433 52.7562 148.562 54.2201 148.837 55.4249L150.787 54.9804C150.557 53.9716 150.433 52.6686 150.433 51.0522H148.433ZM148.837 55.4249C149.114 56.64 149.586 57.6711 150.33 58.4051L151.734 56.9806C151.356 56.6078 151.014 55.9788 150.787 54.9804L148.837 55.4249ZM150.341 58.4153C151.127 59.1681 152.135 59.5107 153.266 59.5107V57.5107C152.558 57.5107 152.076 57.3081 151.724 56.9705L150.341 58.4153ZM153.266 59.5107C154.397 59.5107 155.404 59.1681 156.184 58.4103L154.791 56.9754C154.449 57.3081 153.974 57.5107 153.266 57.5107V59.5107ZM156.179 58.4153C156.94 57.6874 157.418 56.6548 157.696 55.4371L155.746 54.9926C155.519 55.9884 155.175 56.6079 154.796 56.9705L156.179 58.4153ZM157.694 55.4439C157.978 54.2361 158.111 52.7654 158.111 51.0522H156.111C156.111 52.6757 155.984 53.9801 155.747 54.9858L157.694 55.4439ZM158.111 51.0522C158.111 49.3717 157.982 47.9237 157.708 46.7269L155.758 47.1745C155.988 48.1749 156.111 49.4613 156.111 51.0522H158.111ZM157.708 46.7284C157.431 45.5133 156.959 44.4822 156.214 43.7482L154.81 45.1727C155.189 45.5455 155.53 46.1745 155.758 47.1729L157.708 46.7284ZM156.219 43.7533C155.437 42.9711 154.416 42.6182 153.266 42.6182V44.6182C153.988 44.6182 154.464 44.8268 154.805 45.1676L156.219 43.7533ZM153.266 42.6182C152.116 42.6182 151.095 42.9711 150.313 43.7533L151.727 45.1676C152.068 44.8268 152.544 44.6182 153.266 44.6182V42.6182ZM150.318 43.7482C149.573 44.4822 149.101 45.5133 148.824 46.7284L150.774 47.1729C151.002 46.1745 151.344 45.5455 151.722 45.1727L150.318 43.7482ZM148.823 46.7338C148.558 47.9277 148.433 49.3733 148.433 51.0522H150.433C150.433 49.4597 150.553 48.1709 150.776 47.1676L148.823 46.7338ZM166.767 61.4526H165.767V62.4526H166.767V61.4526ZM166.767 58.8892H167.767V57.9064L166.784 57.8893L166.767 58.8892ZM164.082 58.645L163.911 59.6304L163.913 59.6306L164.082 58.645ZM162.006 58.0713H161.006V58.7242L161.604 58.9868L162.006 58.0713ZM162.006 56.0938L162.427 55.1866L161.006 54.5277V56.0938H162.006ZM166.767 57.0947L166.748 58.0945L167.767 58.114V57.0947H166.767ZM166.767 51.7236H167.767V50.9654L167.037 50.7607L166.767 51.7236ZM164.094 50.6982L163.606 51.5715L163.618 51.5781L164.094 50.6982ZM162.58 45.1074L161.75 44.5501L161.748 44.5527L162.58 45.1074ZM164.252 43.7158L163.83 42.8094L164.252 43.7158ZM166.767 43.1421L166.818 44.1408L167.767 44.0925V43.1421H166.767ZM166.767 41.0303V40.0303H165.767V41.0303H166.767ZM168.256 41.0303H169.256V40.0303H168.256V41.0303ZM168.256 43.1177H167.256V44.09L168.228 44.1173L168.256 43.1177ZM170.637 43.4106L170.405 44.3834L170.415 44.3858L170.637 43.4106ZM172.626 44.0454L173.563 44.3958L173.898 43.5007L173.019 43.1256L172.626 44.0454ZM171.992 45.7422L171.623 46.6716L172.571 47.0481L172.928 46.0926L171.992 45.7422ZM168.256 44.8633L168.344 43.8671L167.256 43.772V44.8633H168.256ZM168.256 50.1978H167.256V50.9482L167.977 51.1579L168.256 50.1978ZM170.991 51.2109L170.552 52.1093L170.555 52.1112L170.991 51.2109ZM172.663 52.5415L171.847 53.1192L172.663 52.5415ZM171.918 57.4731L172.558 58.242L172.562 58.2384L171.918 57.4731ZM168.256 58.7915L168.158 57.7963L167.256 57.8851V58.7915H168.256ZM168.256 61.4526V62.4526H169.256V61.4526H168.256ZM168.256 56.9849H167.256V58.0872L168.353 57.9801L168.256 56.9849ZM170.49 56.2646L171.107 57.0519L171.109 57.0505L170.49 56.2646ZM170.942 53.6035L170.099 54.1419L170.104 54.1501L170.11 54.1582L170.942 53.6035ZM170.014 52.8467L169.56 53.7377L169.567 53.7411L169.574 53.7445L170.014 52.8467ZM168.256 52.2241L168.511 51.2572L167.256 50.9262V52.2241H168.256ZM166.767 49.6851L166.508 50.6509L167.767 50.9887V49.6851H166.767ZM166.767 44.9121H167.767V43.8432L166.701 43.9143L166.767 44.9121ZM164.289 45.9863L163.471 45.4114L163.466 45.4189L163.46 45.4265L164.289 45.9863ZM164.252 48.269L163.376 48.751L163.383 48.7641L163.391 48.777L164.252 48.269ZM165.144 49.0869L164.655 49.9594L164.665 49.9652L164.676 49.9707L165.144 49.0869ZM167.767 61.4526V58.8892H165.767V61.4526H167.767ZM166.784 57.8893C165.895 57.8738 165.051 57.7966 164.251 57.6594L163.913 59.6306C164.821 59.7864 165.767 59.8719 166.75 59.889L166.784 57.8893ZM164.252 57.6597C163.452 57.5212 162.846 57.348 162.409 57.1558L161.604 58.9868C162.241 59.2666 163.018 59.4758 163.911 59.6304L164.252 57.6597ZM163.006 58.0713V56.0938H161.006V58.0713H163.006ZM161.586 57.0009C162.235 57.3019 163.03 57.549 163.95 57.7535L164.384 55.8012C163.547 55.6151 162.901 55.4065 162.427 55.1866L161.586 57.0009ZM163.95 57.7535C164.891 57.9625 165.824 58.0769 166.748 58.0945L166.786 56.0949C166.002 56.08 165.201 55.9828 164.384 55.8012L163.95 57.7535ZM167.767 57.0947V51.7236H165.767V57.0947H167.767ZM167.037 50.7607C166.009 50.4726 165.192 50.1551 164.569 49.8184L163.618 51.5781C164.411 52.0063 165.377 52.3725 166.497 52.6865L167.037 50.7607ZM164.581 49.825C163.998 49.4995 163.611 49.1318 163.368 48.7411L161.67 49.7989C162.127 50.5313 162.79 51.1157 163.606 51.5714L164.581 49.825ZM163.368 48.7411C163.135 48.3682 162.994 47.8807 162.994 47.2314H160.994C160.994 48.1773 161.203 49.0488 161.67 49.7989L163.368 48.7411ZM162.994 47.2314C162.994 46.5628 163.149 46.0562 163.412 45.6621L161.748 44.5527C161.229 45.3305 160.994 46.24 160.994 47.2314H162.994ZM163.41 45.6647C163.697 45.2375 164.106 44.8872 164.675 44.6223L163.83 42.8094C162.966 43.2118 162.261 43.7892 161.75 44.5501L163.41 45.6647ZM164.675 44.6223C165.252 44.3534 165.959 44.1845 166.818 44.1408L166.716 42.1434C165.655 42.1974 164.685 42.4109 163.83 42.8094L164.675 44.6223ZM167.767 43.1421V41.0303H165.767V43.1421H167.767ZM166.767 42.0303H168.256V40.0303H166.767V42.0303ZM167.256 41.0303V43.1177H169.256V41.0303H167.256ZM168.228 44.1173C169.042 44.1401 169.766 44.231 170.405 44.3833L170.869 42.438C170.075 42.2485 169.212 42.1441 168.284 42.1181L168.228 44.1173ZM170.415 44.3858C171.079 44.5366 171.684 44.7306 172.234 44.9652L173.019 43.1256C172.348 42.8393 171.627 42.6102 170.858 42.4355L170.415 44.3858ZM171.69 43.695L171.055 45.3918L172.928 46.0926L173.563 44.3958L171.69 43.695ZM172.361 44.8128C171.759 44.5738 171.115 44.3729 170.431 44.2084L169.963 46.1529C170.565 46.2977 171.118 46.4711 171.623 46.6716L172.361 44.8128ZM170.431 44.2084C169.741 44.0423 169.045 43.9284 168.344 43.8671L168.169 45.8595C168.77 45.9121 169.368 46.0098 169.963 46.1529L170.431 44.2084ZM167.256 44.8633V50.1978H169.256V44.8633H167.256ZM167.977 51.1579C169.032 51.465 169.886 51.784 170.552 52.1093L171.43 50.3126C170.631 49.9217 169.662 49.5652 168.536 49.2376L167.977 51.1579ZM170.555 52.1112C171.184 52.4151 171.593 52.7605 171.847 53.1192L173.479 51.9638C172.984 51.2645 172.279 50.7229 171.426 50.3107L170.555 52.1112ZM171.847 53.1192C172.071 53.4358 172.225 53.9005 172.225 54.5923H174.225C174.225 53.6077 174.004 52.7052 173.479 51.9638L171.847 53.1192ZM172.225 54.5923C172.225 55.5002 171.908 56.1749 171.275 56.7079L172.562 58.2384C173.67 57.3066 174.225 56.0606 174.225 54.5923H172.225ZM171.279 56.7043C170.612 57.2594 169.606 57.6538 168.158 57.7963L168.354 59.7867C170.048 59.6199 171.484 59.1354 172.558 58.242L171.279 56.7043ZM167.256 58.7915V61.4526H169.256V58.7915H167.256ZM168.256 60.4526H166.767V62.4526H168.256V60.4526ZM168.353 57.9801C169.437 57.8744 170.402 57.6038 171.107 57.0519L169.874 55.4774C169.602 55.6905 169.077 55.9 168.159 55.9896L168.353 57.9801ZM171.109 57.0505C171.847 56.4692 172.235 55.6662 172.235 54.7266H170.235C170.235 55.0565 170.126 55.2788 169.872 55.4788L171.109 57.0505ZM172.235 54.7266C172.235 54.1309 172.107 53.5482 171.774 53.0488L170.11 54.1582C170.168 54.2448 170.235 54.4107 170.235 54.7266H172.235ZM171.785 53.0651C171.468 52.5696 170.99 52.2116 170.455 51.9489L169.574 53.7445C169.901 53.9049 170.041 54.0515 170.099 54.1419L171.785 53.0651ZM170.468 51.9556C169.948 51.6906 169.286 51.4615 168.511 51.2572L168.001 53.1911C168.708 53.3774 169.218 53.5633 169.56 53.7377L170.468 51.9556ZM167.256 52.2241V56.9849H169.256V52.2241H167.256ZM167.767 49.6851V44.9121H165.767V49.6851H167.767ZM166.701 43.9143C166.01 43.9604 165.372 44.0924 164.818 44.3423L165.64 46.1655C165.916 46.041 166.304 45.9452 166.834 45.9099L166.701 43.9143ZM164.818 44.3423C164.278 44.5858 163.807 44.9325 163.471 45.4114L165.107 46.5613C165.194 46.4379 165.35 46.2963 165.64 46.1655L164.818 44.3423ZM163.46 45.4265C163.13 45.9156 162.984 46.4752 162.984 47.0605H164.984C164.984 46.8158 165.041 46.6593 165.118 46.5462L163.46 45.4265ZM162.984 47.0605C162.984 47.6612 163.096 48.2408 163.376 48.751L165.129 47.7871C165.051 47.6462 164.984 47.4201 164.984 47.0605H162.984ZM163.391 48.777C163.689 49.2822 164.134 49.6678 164.655 49.9594L165.632 48.2144C165.339 48.0503 165.19 47.8907 165.114 47.7611L163.391 48.777ZM164.676 49.9707C165.18 50.2377 165.799 50.4606 166.508 50.6509L167.026 48.7192C166.401 48.5514 165.937 48.3755 165.611 48.2031L164.676 49.9707ZM183.649 42.1533L184.587 42.5021L185.088 41.1533H183.649V42.1533ZM177.009 60V61H177.704L177.946 60.3487L177.009 60ZM175.007 60L174.07 59.6507L173.567 61H175.007V60ZM181.66 42.1533V41.1533H180.965L180.723 41.804L181.66 42.1533ZM182.712 41.8046L176.072 59.6513L177.946 60.3487L184.587 42.5021L182.712 41.8046ZM177.009 59H175.007V61H177.009V59ZM175.944 60.3493L182.597 42.5026L180.723 41.804L174.07 59.6507L175.944 60.3493ZM181.66 43.1533H183.649V41.1533H181.66V43.1533ZM196.345 48.0981L197.101 47.4438L196.345 48.0981ZM195.222 59.4507L194.684 58.6074L194.681 58.6098L195.222 59.4507ZM188.105 58.1689L188.934 57.6101L188.637 57.1689H188.105V58.1689ZM187.958 58.1689V57.1689H186.879L186.961 58.2456L187.958 58.1689ZM188.044 59.3164L187.047 59.3889L187.047 59.3979L187.048 59.4069L188.044 59.3164ZM188.105 65.9814V66.9814H189.105V65.9814H188.105ZM186.066 65.9814H185.066V66.9814H186.066V65.9814ZM186.066 46.6211V45.6211H185.066V46.6211H186.066ZM187.739 46.6211L188.73 46.4865L188.612 45.6211H187.739V46.6211ZM188.007 48.5986L187.016 48.7332L187.134 49.5986H188.007V48.5986ZM188.105 48.5986V49.5986H188.652L188.947 49.1377L188.105 48.5986ZM189.057 47.4878L189.723 48.2344L189.731 48.2263L189.057 47.4878ZM190.424 46.6821L190.766 47.622L190.774 47.619L190.424 46.6821ZM189.753 48.623L189.221 47.7764L189.215 47.7799L189.753 48.623ZM188.52 50.2344L189.459 50.5796L189.46 50.5761L188.52 50.2344ZM188.105 52.9077L187.105 52.8926L187.105 52.9001V52.9077H188.105ZM188.471 56.167L187.517 56.4653L187.52 56.4743L188.471 56.167ZM189.704 57.9492L189.123 58.763L189.128 58.7668L189.704 57.9492ZM194.099 57.8882L193.47 57.1107L194.099 57.8882ZM195.332 56.0205L194.386 55.6957L194.384 55.7014L195.332 56.0205ZM194.819 49.4897L193.981 50.036L193.987 50.0444L194.819 49.4897ZM192.353 47.377C193.764 47.377 194.806 47.848 195.589 48.7525L197.101 47.4438C195.898 46.0534 194.279 45.377 192.353 45.377V47.377ZM195.589 48.7525C196.36 49.6444 196.834 51.0913 196.834 53.2739H198.834C198.834 50.8504 198.315 48.8468 197.101 47.4438L195.589 48.7525ZM196.834 53.2739C196.834 54.7024 196.619 55.833 196.235 56.7035L198.065 57.5104C198.593 56.3138 198.834 54.8891 198.834 53.2739H196.834ZM196.235 56.7035C195.847 57.5837 195.324 58.1996 194.684 58.6074L195.759 60.294C196.779 59.6439 197.542 58.6972 198.065 57.5104L196.235 56.7035ZM194.681 58.6098C194.043 59.0201 193.265 59.2441 192.304 59.2441V61.2441C193.59 61.2441 194.757 60.9392 195.763 60.2916L194.681 58.6098ZM192.304 59.2441C191.682 59.2441 191.175 59.1616 190.766 59.0191L190.107 60.9077C190.773 61.1395 191.51 61.2441 192.304 61.2441V59.2441ZM190.766 59.0191C190.325 58.8656 189.974 58.6679 189.696 58.437L188.419 59.9761C188.905 60.3799 189.474 60.6868 190.107 60.9077L190.766 59.0191ZM189.696 58.437C189.379 58.1743 189.128 57.898 188.934 57.6101L187.276 58.7278C187.586 59.1886 187.97 59.604 188.419 59.9761L189.696 58.437ZM188.105 57.1689H187.958V59.1689H188.105V57.1689ZM186.961 58.2456C186.986 58.5612 187.014 58.9422 187.047 59.3889L189.041 59.2439C189.009 58.7954 188.98 58.4114 188.956 58.0922L186.961 58.2456ZM187.048 59.4069C187.087 59.834 187.105 60.1931 187.105 60.4883H189.105C189.105 60.1161 189.082 59.694 189.04 59.2259L187.048 59.4069ZM187.105 60.4883V65.9814H189.105V60.4883H187.105ZM188.105 64.9814H186.066V66.9814H188.105V64.9814ZM187.066 65.9814V46.6211H185.066V65.9814H187.066ZM186.066 47.6211H187.739V45.6211H186.066V47.6211ZM186.748 46.7557L187.016 48.7332L188.998 48.4641L188.73 46.4865L186.748 46.7557ZM188.007 49.5986H188.105V47.5986H188.007V49.5986ZM188.947 49.1377C189.157 48.8106 189.414 48.5095 189.722 48.2343L188.392 46.7413C187.952 47.1334 187.574 47.5729 187.263 48.0596L188.947 49.1377ZM189.731 48.2263C189.998 47.9832 190.336 47.7782 190.766 47.6219L190.083 45.7423C189.438 45.9767 188.865 46.3088 188.383 46.7493L189.731 48.2263ZM190.774 47.619C191.182 47.4669 191.701 47.377 192.353 47.377V45.377C191.524 45.377 190.758 45.4904 190.075 45.7452L190.774 47.619ZM191.999 47.0859C190.952 47.0859 189.999 47.287 189.221 47.7764L190.285 49.4697C190.646 49.243 191.191 49.0859 191.999 49.0859V47.0859ZM189.215 47.7799C188.442 48.273 187.905 49.0009 187.58 49.8926L189.46 50.5761C189.656 50.0356 189.941 49.6892 190.291 49.4662L189.215 47.7799ZM187.581 49.8892C187.269 50.7374 187.122 51.7494 187.105 52.8926L189.105 52.9229C189.12 51.9175 189.25 51.1473 189.459 50.5796L187.581 49.8892ZM187.105 52.9077V53.2983H189.105V52.9077H187.105ZM187.105 53.2983C187.105 54.495 187.233 55.5585 187.517 56.4653L189.426 55.8687C189.221 55.213 189.105 54.364 189.105 53.2983H187.105ZM187.52 56.4743C187.826 57.4232 188.35 58.2108 189.123 58.763L190.285 57.1355C189.919 56.8739 189.621 56.4733 189.423 55.8597L187.52 56.4743ZM189.128 58.7668C189.927 59.3291 190.923 59.5596 192.023 59.5596V57.5596C191.187 57.5596 190.637 57.3831 190.28 57.1316L189.128 58.7668ZM192.023 59.5596C193.043 59.5596 193.967 59.2805 194.728 58.6657L193.47 57.1107C193.123 57.3911 192.664 57.5596 192.023 57.5596V59.5596ZM194.728 58.6657C195.454 58.0784 195.961 57.2838 196.279 56.3396L194.384 55.7014C194.165 56.3522 193.85 56.8028 193.47 57.1107L194.728 58.6657ZM196.277 56.3453C196.597 55.4148 196.747 54.378 196.747 53.2495H194.747C194.747 54.2044 194.62 55.0149 194.386 55.6957L196.277 56.3453ZM196.747 53.2495C196.747 51.5521 196.416 50.0822 195.651 48.935L193.987 50.0444C194.459 50.7528 194.747 51.7894 194.747 53.2495H196.747ZM195.656 48.9435C194.834 47.6821 193.552 47.0859 191.999 47.0859V49.0859C192.985 49.0859 193.583 49.4257 193.981 50.036L195.656 48.9435ZM203.4 46.6211H204.4V45.6211H203.4V46.6211ZM203.4 60V61H204.4V60H203.4ZM201.374 60H200.374V61H201.374V60ZM201.374 46.6211V45.6211H200.374V46.6211H201.374ZM203.266 41.9458L202.585 42.6777L202.598 42.6898L202.611 42.7015L203.266 41.9458ZM203.266 43.9478L202.597 43.2045L202.591 43.2101L202.585 43.2159L203.266 43.9478ZM201.533 43.9478L200.839 44.6676L200.845 44.6737L200.851 44.6796L201.533 43.9478ZM201.533 41.9458L202.213 42.6786L202.214 42.6777L201.533 41.9458ZM202.4 46.6211V60H204.4V46.6211H202.4ZM203.4 59H201.374V61H203.4V59ZM202.374 60V46.6211H200.374V60H202.374ZM201.374 47.6211H203.4V45.6211H201.374V47.6211ZM202.412 42.6162C202.502 42.6162 202.541 42.6368 202.585 42.6777L203.948 41.2139C203.519 40.8154 202.988 40.6162 202.412 40.6162V42.6162ZM202.611 42.7015C202.593 42.6854 202.593 42.6745 202.602 42.6983C202.613 42.7289 202.632 42.8046 202.632 42.9468H204.632C204.632 42.3244 204.463 41.6598 203.921 41.1901L202.611 42.7015ZM202.632 42.9468C202.632 43.0825 202.613 43.1568 202.602 43.1891C202.592 43.2155 202.588 43.2126 202.597 43.2045L203.935 44.691C204.458 44.2202 204.632 43.5707 204.632 42.9468H202.632ZM202.585 43.2159C202.541 43.2568 202.502 43.2773 202.412 43.2773V45.2773C202.988 45.2773 203.519 45.0782 203.948 44.6796L202.585 43.2159ZM202.412 43.2773C202.291 43.2773 202.249 43.2479 202.214 43.2159L200.851 44.6796C201.289 45.0871 201.832 45.2773 202.412 45.2773V43.2773ZM202.227 43.2279C202.24 43.2404 202.234 43.2434 202.223 43.2096C202.209 43.1705 202.191 43.0889 202.191 42.9468H200.191C200.191 43.5516 200.346 44.1926 200.839 44.6676L202.227 43.2279ZM202.191 42.9468C202.191 42.7984 202.21 42.7153 202.223 42.6779C202.234 42.6463 202.236 42.6576 202.213 42.6786L200.852 41.213C200.341 41.6874 200.191 42.3436 200.191 42.9468H202.191ZM202.214 42.6777C202.249 42.6457 202.291 42.6162 202.412 42.6162V40.6162C201.832 40.6162 201.289 40.8065 200.851 41.2139L202.214 42.6777ZM215.498 46.6211V45.6211H215.048L214.75 45.9574L215.498 46.6211ZM217.731 46.6211L218.477 47.2876L219.967 45.6211H217.731V46.6211ZM211.958 53.0786L211.212 52.4121L210.614 53.0813L211.215 53.7481L211.958 53.0786ZM218.195 60V61H220.443L218.938 59.3305L218.195 60ZM215.815 60L215.07 60.6672L215.368 61H215.815V60ZM209.736 53.2129L210.481 52.5457L208.736 50.5976V53.2129H209.736ZM209.736 60V61H210.736V60H209.736ZM207.697 60H206.697V61H207.697V60ZM207.697 46.6211V45.6211H206.697V46.6211H207.697ZM209.736 46.6211H210.736V45.6211H209.736V46.6211ZM209.736 53.1152H208.736V55.7491L210.484 53.7789L209.736 53.1152ZM215.498 47.6211H217.731V45.6211H215.498V47.6211ZM216.986 45.9545L211.212 52.4121L212.703 53.7452L218.477 47.2876L216.986 45.9545ZM211.215 53.7481L217.452 60.6695L218.938 59.3305L212.7 52.4091L211.215 53.7481ZM218.195 59H215.815V61H218.195V59ZM216.56 59.3328L210.481 52.5457L208.991 53.8801L215.07 60.6672L216.56 59.3328ZM208.736 53.2129V60H210.736V53.2129H208.736ZM209.736 59H207.697V61H209.736V59ZM208.697 60V46.6211H206.697V60H208.697ZM207.697 47.6211H209.736V45.6211H207.697V47.6211ZM208.736 46.6211V53.1152H210.736V46.6211H208.736ZM210.484 53.7789L216.246 47.2848L214.75 45.9574L208.988 52.4516L210.484 53.7789Z" fill="white" mask="url(#path-3-outside-1_87_26)"/>
</g>
</g>
<defs>
<filter id="filter0_d_87_26" x="0" y="0" width="358" height="108.824" filterUnits="userSpaceOnUse" color-interpolation-filters="sRGB">
<feFlood flood-opacity="0" result="BackgroundImageFix"/>
<feColorMatrix in="SourceAlpha" type="matrix" values="0 0 0 0 0 0 0 0 0 0 0 0 0 0 0 0 0 0 127 0" result="hardAlpha"/>
<feOffset dy="4"/>
<feGaussianBlur stdDeviation="2"/>
<feComposite in2="hardAlpha" operator="out"/>
<feColorMatrix type="matrix" values="0 0 0 0 0 0 0 0 0 0 0 0 0 0 0 0 0 0 0.25 0"/>
<feBlend mode="normal" in2="BackgroundImageFix" result="effect1_dropShadow_87_26"/>
<feBlend mode="normal" in="SourceGraphic" in2="effect1_dropShadow_87_26" result="shape"/>
</filter>
<filter id="filter1_d_87_26" x="0" y="0" width="358" height="108.824" filterUnits="userSpaceOnUse" color-interpolation-filters="sRGB">
<feFlood flood-opacity="0" result="BackgroundImageFix"/>
<feColorMatrix in="SourceAlpha" type="matrix" values="0 0 0 0 0 0 0 0 0 0 0 0 0 0 0 0 0 0 127 0" result="hardAlpha"/>
<feOffset dy="4"/>
<feGaussianBlur stdDeviation="2"/>
<feComposite in2="hardAlpha" operator="out"/>
<feColorMatrix type="matrix" values="0 0 0 0 0 0 0 0 0 0 0 0 0 0 0 0 0 0 0.25 0"/>
<feBlend mode="normal" in2="BackgroundImageFix" result="effect1_dropShadow_87_26"/>
<feBlend mode="normal" in="SourceGraphic" in2="effect1_dropShadow_87_26" result="shape"/>
</filter>
<filter id="filter2_d_87_26" x="114.757" y="41.0312" width="107.438" height="32.9492" filterUnits="userSpaceOnUse" color-interpolation-filters="sRGB">
<feFlood flood-opacity="0" result="BackgroundImageFix"/>
<feColorMatrix in="SourceAlpha" type="matrix" values="0 0 0 0 0 0 0 0 0 0 0 0 0 0 0 0 0 0 127 0" result="hardAlpha"/>
<feOffset dy="4"/>
<feGaussianBlur stdDeviation="2"/>
<feComposite in2="hardAlpha" operator="out"/>
<feColorMatrix type="matrix" values="0 0 0 0 0 0 0 0 0 0 0 0 0 0 0 0 0 0 0.25 0"/>
<feBlend mode="normal" in2="BackgroundImageFix" result="effect1_dropShadow_87_26"/>
<feBlend mode="normal" in="SourceGraphic" in2="effect1_dropShadow_87_26" result="shape"/>
</filter>
</defs>
</svg>
