<svg width="358" height="109" viewBox="0 0 358 109" fill="none" xmlns="http://www.w3.org/2000/svg">
<g opacity="0.5" filter="url(#filter0_d_87_22)">
<path d="M4 30C4 13.4314 17.4315 0 34 0H324C340.569 0 354 13.4315 354 30V70.8234C354 87.392 340.569 100.823 324 100.823H34C17.4315 100.823 4 87.392 4 70.8234V30Z" fill="#0859D2"/>
<path d="M34 0.5H324C340.292 0.5 353.5 13.7076 353.5 30V70.8234C353.5 87.1158 340.292 100.323 324 100.323H34C17.7076 100.323 4.5 87.1158 4.5 70.8234V30C4.5 13.7076 17.7076 0.5 34 0.5Z" stroke="white"/>
</g>
<g filter="url(#filter1_d_87_22)">
<mask id="path-3-outside-1_87_22" maskUnits="userSpaceOnUse" x="119" y="40" width="103" height="27" fill="black">
<rect fill="white" x="119" y="40" width="103" height="27"/>
<path d="M125.396 49.0869C126.609 49.0869 127.663 49.2944 128.558 49.7095C129.453 50.1164 130.145 50.7104 130.633 51.4917C131.13 52.2729 131.378 53.221 131.378 54.3359C131.378 55.5566 131.113 56.6105 130.584 57.4976C130.056 58.3765 129.295 59.056 128.302 59.5361C127.309 60.0081 126.121 60.2441 124.737 60.2441C123.81 60.2441 122.947 60.1628 122.149 60C121.352 59.8372 120.681 59.5931 120.135 59.2676V57.3389C120.729 57.6969 121.45 57.9818 122.296 58.1934C123.142 58.4049 123.964 58.5107 124.762 58.5107C125.665 58.5107 126.454 58.3683 127.13 58.0835C127.813 57.7905 128.342 57.3511 128.717 56.7651C129.099 56.1711 129.291 55.4264 129.291 54.5312C129.291 53.3431 128.924 52.4276 128.192 51.7847C127.468 51.1336 126.32 50.8081 124.75 50.8081C124.245 50.8081 123.692 50.8488 123.089 50.9302C122.487 51.0116 121.991 51.1011 121.6 51.1987L120.575 50.5273L121.258 42.1533H130.133V44.0088H122.992L122.54 49.3921C122.849 49.327 123.248 49.2619 123.736 49.1968C124.225 49.1235 124.778 49.0869 125.396 49.0869ZM145.855 51.0522C145.855 52.5008 145.746 53.7948 145.526 54.9341C145.306 56.0734 144.96 57.0378 144.488 57.8271C144.016 58.6165 143.406 59.2188 142.657 59.6338C141.909 60.0407 141.009 60.2441 139.959 60.2441C138.633 60.2441 137.534 59.882 136.664 59.1577C135.801 58.4334 135.154 57.3877 134.723 56.0205C134.299 54.6452 134.088 52.9891 134.088 51.0522C134.088 49.1479 134.279 47.5122 134.662 46.145C135.052 44.7697 135.679 43.7158 136.542 42.9834C137.404 42.2428 138.543 41.8726 139.959 41.8726C141.302 41.8726 142.409 42.2388 143.28 42.9712C144.151 43.6955 144.798 44.7453 145.221 46.1206C145.644 47.4878 145.855 49.1317 145.855 51.0522ZM136.126 51.0522C136.126 52.7124 136.253 54.0959 136.505 55.2026C136.757 56.3094 137.164 57.1395 137.726 57.6929C138.295 58.2381 139.04 58.5107 139.959 58.5107C140.879 58.5107 141.62 58.2381 142.181 57.6929C142.751 57.1476 143.162 56.3216 143.414 55.2148C143.674 54.1081 143.805 52.7205 143.805 51.0522C143.805 49.4165 143.679 48.0493 143.426 46.9507C143.174 45.8439 142.767 45.0138 142.206 44.4604C141.644 43.8989 140.895 43.6182 139.959 43.6182C139.024 43.6182 138.275 43.8989 137.713 44.4604C137.152 45.0138 136.745 45.8439 136.493 46.9507C136.249 48.0493 136.126 49.4165 136.126 51.0522ZM160.162 51.0522C160.162 52.5008 160.052 53.7948 159.833 54.9341C159.613 56.0734 159.267 57.0378 158.795 57.8271C158.323 58.6165 157.713 59.2188 156.964 59.6338C156.215 60.0407 155.316 60.2441 154.266 60.2441C152.94 60.2441 151.841 59.882 150.97 59.1577C150.108 58.4334 149.461 57.3877 149.029 56.0205C148.606 54.6452 148.395 52.9891 148.395 51.0522C148.395 49.1479 148.586 47.5122 148.968 46.145C149.359 44.7697 149.986 43.7158 150.848 42.9834C151.711 42.2428 152.85 41.8726 154.266 41.8726C155.609 41.8726 156.716 42.2388 157.586 42.9712C158.457 43.6955 159.104 44.7453 159.527 46.1206C159.951 47.4878 160.162 49.1317 160.162 51.0522ZM150.433 51.0522C150.433 52.7124 150.559 54.0959 150.812 55.2026C151.064 56.3094 151.471 57.1395 152.032 57.6929C152.602 58.2381 153.347 58.5107 154.266 58.5107C155.186 58.5107 155.926 58.2381 156.488 57.6929C157.057 57.1476 157.468 56.3216 157.721 55.2148C157.981 54.1081 158.111 52.7205 158.111 51.0522C158.111 49.4165 157.985 48.0493 157.733 46.9507C157.481 45.8439 157.074 45.0138 156.512 44.4604C155.951 43.8989 155.202 43.6182 154.266 43.6182C153.33 43.6182 152.582 43.8989 152.02 44.4604C151.458 45.0138 151.052 45.8439 150.799 46.9507C150.555 48.0493 150.433 49.4165 150.433 51.0522ZM167.767 61.4526V58.8892C166.831 58.8729 165.936 58.7915 165.082 58.645C164.235 58.4985 163.543 58.3073 163.006 58.0713V56.0938C163.568 56.3542 164.288 56.582 165.167 56.7773C166.046 56.9727 166.913 57.0785 167.767 57.0947V51.7236C166.693 51.4225 165.802 51.0807 165.094 50.6982C164.394 50.3076 163.869 49.8315 163.519 49.27C163.169 48.7085 162.994 48.029 162.994 47.2314C162.994 46.4014 163.189 45.6934 163.58 45.1074C163.979 44.5133 164.536 44.0495 165.252 43.7158C165.969 43.3822 166.807 43.1909 167.767 43.1421V41.0303H169.256V43.1177C170.127 43.1421 170.921 43.2397 171.637 43.4106C172.353 43.5734 173.016 43.785 173.626 44.0454L172.992 45.7422C172.438 45.5225 171.84 45.3353 171.197 45.1807C170.554 45.026 169.907 44.9202 169.256 44.8633V50.1978C170.347 50.5151 171.258 50.8529 171.991 51.2109C172.731 51.569 173.289 52.0125 173.663 52.5415C174.037 53.0705 174.225 53.7541 174.225 54.5923C174.225 55.7804 173.789 56.7407 172.918 57.4731C172.048 58.1974 170.827 58.6369 169.256 58.7915V61.4526H167.767ZM169.256 56.9849C170.257 56.8872 171.002 56.6471 171.49 56.2646C171.987 55.874 172.235 55.3613 172.235 54.7266C172.235 54.2708 172.137 53.8965 171.942 53.6035C171.755 53.3105 171.445 53.0583 171.014 52.8467C170.583 52.627 169.997 52.4194 169.256 52.2241V56.9849ZM167.767 49.6851V44.9121C167.157 44.9528 166.644 45.0667 166.229 45.2539C165.814 45.4411 165.501 45.6852 165.289 45.9863C165.086 46.2874 164.984 46.6455 164.984 47.0605C164.984 47.5407 165.073 47.9435 165.252 48.269C165.44 48.5864 165.737 48.859 166.144 49.0869C166.559 49.3066 167.1 49.506 167.767 49.6851ZM184.649 42.1533L178.009 60H176.007L182.66 42.1533H184.649ZM193.353 46.377C195.021 46.377 196.352 46.9507 197.345 48.0981C198.338 49.2456 198.834 50.9709 198.834 53.2739C198.834 54.7957 198.606 56.0734 198.15 57.1069C197.695 58.1405 197.052 58.9217 196.222 59.4507C195.4 59.9797 194.427 60.2441 193.304 60.2441C192.596 60.2441 191.974 60.1506 191.437 59.9634C190.899 59.7762 190.44 59.5239 190.057 59.2065C189.675 58.8892 189.357 58.5433 189.105 58.1689H188.958C188.983 58.4863 189.011 58.8688 189.044 59.3164C189.085 59.764 189.105 60.1546 189.105 60.4883V65.9814H187.066V46.6211H188.739L189.007 48.5986H189.105C189.365 48.1917 189.683 47.8215 190.057 47.4878C190.431 47.146 190.887 46.8774 191.424 46.6821C191.97 46.4787 192.612 46.377 193.353 46.377ZM192.999 48.0859C192.071 48.0859 191.323 48.265 190.753 48.623C190.191 48.9811 189.78 49.5182 189.52 50.2344C189.26 50.9424 189.121 51.8335 189.105 52.9077V53.2983C189.105 54.4295 189.227 55.3857 189.471 56.167C189.723 56.9482 190.134 57.5423 190.704 57.9492C191.282 58.3561 192.055 58.5596 193.023 58.5596C193.854 58.5596 194.545 58.3358 195.099 57.8882C195.652 57.4406 196.063 56.818 196.332 56.0205C196.608 55.2148 196.747 54.2912 196.747 53.2495C196.747 51.6707 196.437 50.4175 195.819 49.4897C195.208 48.5539 194.269 48.0859 192.999 48.0859ZM204.4 46.6211V60H202.374V46.6211H204.4ZM203.412 41.6162C203.745 41.6162 204.03 41.7261 204.266 41.9458C204.51 42.1574 204.632 42.491 204.632 42.9468C204.632 43.3944 204.51 43.728 204.266 43.9478C204.03 44.1675 203.745 44.2773 203.412 44.2773C203.062 44.2773 202.769 44.1675 202.533 43.9478C202.305 43.728 202.191 43.3944 202.191 42.9468C202.191 42.491 202.305 42.1574 202.533 41.9458C202.769 41.7261 203.062 41.6162 203.412 41.6162ZM216.498 46.6211H218.731L212.958 53.0786L219.195 60H216.815L210.736 53.2129V60H208.697V46.6211H210.736V53.1152L216.498 46.6211Z"/>
</mask>
<path d="M125.396 49.0869C126.609 49.0869 127.663 49.2944 128.558 49.7095C129.453 50.1164 130.145 50.7104 130.633 51.4917C131.13 52.2729 131.378 53.221 131.378 54.3359C131.378 55.5566 131.113 56.6105 130.584 57.4976C130.056 58.3765 129.295 59.056 128.302 59.5361C127.309 60.0081 126.121 60.2441 124.737 60.2441C123.81 60.2441 122.947 60.1628 122.149 60C121.352 59.8372 120.681 59.5931 120.135 59.2676V57.3389C120.729 57.6969 121.45 57.9818 122.296 58.1934C123.142 58.4049 123.964 58.5107 124.762 58.5107C125.665 58.5107 126.454 58.3683 127.13 58.0835C127.813 57.7905 128.342 57.3511 128.717 56.7651C129.099 56.1711 129.291 55.4264 129.291 54.5312C129.291 53.3431 128.924 52.4276 128.192 51.7847C127.468 51.1336 126.32 50.8081 124.75 50.8081C124.245 50.8081 123.692 50.8488 123.089 50.9302C122.487 51.0116 121.991 51.1011 121.6 51.1987L120.575 50.5273L121.258 42.1533H130.133V44.0088H122.992L122.54 49.3921C122.849 49.327 123.248 49.2619 123.736 49.1968C124.225 49.1235 124.778 49.0869 125.396 49.0869ZM145.855 51.0522C145.855 52.5008 145.746 53.7948 145.526 54.9341C145.306 56.0734 144.96 57.0378 144.488 57.8271C144.016 58.6165 143.406 59.2188 142.657 59.6338C141.909 60.0407 141.009 60.2441 139.959 60.2441C138.633 60.2441 137.534 59.882 136.664 59.1577C135.801 58.4334 135.154 57.3877 134.723 56.0205C134.299 54.6452 134.088 52.9891 134.088 51.0522C134.088 49.1479 134.279 47.5122 134.662 46.145C135.052 44.7697 135.679 43.7158 136.542 42.9834C137.404 42.2428 138.543 41.8726 139.959 41.8726C141.302 41.8726 142.409 42.2388 143.28 42.9712C144.151 43.6955 144.798 44.7453 145.221 46.1206C145.644 47.4878 145.855 49.1317 145.855 51.0522ZM136.126 51.0522C136.126 52.7124 136.253 54.0959 136.505 55.2026C136.757 56.3094 137.164 57.1395 137.726 57.6929C138.295 58.2381 139.04 58.5107 139.959 58.5107C140.879 58.5107 141.62 58.2381 142.181 57.6929C142.751 57.1476 143.162 56.3216 143.414 55.2148C143.674 54.1081 143.805 52.7205 143.805 51.0522C143.805 49.4165 143.679 48.0493 143.426 46.9507C143.174 45.8439 142.767 45.0138 142.206 44.4604C141.644 43.8989 140.895 43.6182 139.959 43.6182C139.024 43.6182 138.275 43.8989 137.713 44.4604C137.152 45.0138 136.745 45.8439 136.493 46.9507C136.249 48.0493 136.126 49.4165 136.126 51.0522ZM160.162 51.0522C160.162 52.5008 160.052 53.7948 159.833 54.9341C159.613 56.0734 159.267 57.0378 158.795 57.8271C158.323 58.6165 157.713 59.2188 156.964 59.6338C156.215 60.0407 155.316 60.2441 154.266 60.2441C152.94 60.2441 151.841 59.882 150.97 59.1577C150.108 58.4334 149.461 57.3877 149.029 56.0205C148.606 54.6452 148.395 52.9891 148.395 51.0522C148.395 49.1479 148.586 47.5122 148.968 46.145C149.359 44.7697 149.986 43.7158 150.848 42.9834C151.711 42.2428 152.85 41.8726 154.266 41.8726C155.609 41.8726 156.716 42.2388 157.586 42.9712C158.457 43.6955 159.104 44.7453 159.527 46.1206C159.951 47.4878 160.162 49.1317 160.162 51.0522ZM150.433 51.0522C150.433 52.7124 150.559 54.0959 150.812 55.2026C151.064 56.3094 151.471 57.1395 152.032 57.6929C152.602 58.2381 153.347 58.5107 154.266 58.5107C155.186 58.5107 155.926 58.2381 156.488 57.6929C157.057 57.1476 157.468 56.3216 157.721 55.2148C157.981 54.1081 158.111 52.7205 158.111 51.0522C158.111 49.4165 157.985 48.0493 157.733 46.9507C157.481 45.8439 157.074 45.0138 156.512 44.4604C155.951 43.8989 155.202 43.6182 154.266 43.6182C153.33 43.6182 152.582 43.8989 152.02 44.4604C151.458 45.0138 151.052 45.8439 150.799 46.9507C150.555 48.0493 150.433 49.4165 150.433 51.0522ZM167.767 61.4526V58.8892C166.831 58.8729 165.936 58.7915 165.082 58.645C164.235 58.4985 163.543 58.3073 163.006 58.0713V56.0938C163.568 56.3542 164.288 56.582 165.167 56.7773C166.046 56.9727 166.913 57.0785 167.767 57.0947V51.7236C166.693 51.4225 165.802 51.0807 165.094 50.6982C164.394 50.3076 163.869 49.8315 163.519 49.27C163.169 48.7085 162.994 48.029 162.994 47.2314C162.994 46.4014 163.189 45.6934 163.58 45.1074C163.979 44.5133 164.536 44.0495 165.252 43.7158C165.969 43.3822 166.807 43.1909 167.767 43.1421V41.0303H169.256V43.1177C170.127 43.1421 170.921 43.2397 171.637 43.4106C172.353 43.5734 173.016 43.785 173.626 44.0454L172.992 45.7422C172.438 45.5225 171.84 45.3353 171.197 45.1807C170.554 45.026 169.907 44.9202 169.256 44.8633V50.1978C170.347 50.5151 171.258 50.8529 171.991 51.2109C172.731 51.569 173.289 52.0125 173.663 52.5415C174.037 53.0705 174.225 53.7541 174.225 54.5923C174.225 55.7804 173.789 56.7407 172.918 57.4731C172.048 58.1974 170.827 58.6369 169.256 58.7915V61.4526H167.767ZM169.256 56.9849C170.257 56.8872 171.002 56.6471 171.49 56.2646C171.987 55.874 172.235 55.3613 172.235 54.7266C172.235 54.2708 172.137 53.8965 171.942 53.6035C171.755 53.3105 171.445 53.0583 171.014 52.8467C170.583 52.627 169.997 52.4194 169.256 52.2241V56.9849ZM167.767 49.6851V44.9121C167.157 44.9528 166.644 45.0667 166.229 45.2539C165.814 45.4411 165.501 45.6852 165.289 45.9863C165.086 46.2874 164.984 46.6455 164.984 47.0605C164.984 47.5407 165.073 47.9435 165.252 48.269C165.44 48.5864 165.737 48.859 166.144 49.0869C166.559 49.3066 167.1 49.506 167.767 49.6851ZM184.649 42.1533L178.009 60H176.007L182.66 42.1533H184.649ZM193.353 46.377C195.021 46.377 196.352 46.9507 197.345 48.0981C198.338 49.2456 198.834 50.9709 198.834 53.2739C198.834 54.7957 198.606 56.0734 198.15 57.1069C197.695 58.1405 197.052 58.9217 196.222 59.4507C195.4 59.9797 194.427 60.2441 193.304 60.2441C192.596 60.2441 191.974 60.1506 191.437 59.9634C190.899 59.7762 190.44 59.5239 190.057 59.2065C189.675 58.8892 189.357 58.5433 189.105 58.1689H188.958C188.983 58.4863 189.011 58.8688 189.044 59.3164C189.085 59.764 189.105 60.1546 189.105 60.4883V65.9814H187.066V46.6211H188.739L189.007 48.5986H189.105C189.365 48.1917 189.683 47.8215 190.057 47.4878C190.431 47.146 190.887 46.8774 191.424 46.6821C191.97 46.4787 192.612 46.377 193.353 46.377ZM192.999 48.0859C192.071 48.0859 191.323 48.265 190.753 48.623C190.191 48.9811 189.78 49.5182 189.52 50.2344C189.26 50.9424 189.121 51.8335 189.105 52.9077V53.2983C189.105 54.4295 189.227 55.3857 189.471 56.167C189.723 56.9482 190.134 57.5423 190.704 57.9492C191.282 58.3561 192.055 58.5596 193.023 58.5596C193.854 58.5596 194.545 58.3358 195.099 57.8882C195.652 57.4406 196.063 56.818 196.332 56.0205C196.608 55.2148 196.747 54.2912 196.747 53.2495C196.747 51.6707 196.437 50.4175 195.819 49.4897C195.208 48.5539 194.269 48.0859 192.999 48.0859ZM204.4 46.6211V60H202.374V46.6211H204.4ZM203.412 41.6162C203.745 41.6162 204.03 41.7261 204.266 41.9458C204.51 42.1574 204.632 42.491 204.632 42.9468C204.632 43.3944 204.51 43.728 204.266 43.9478C204.03 44.1675 203.745 44.2773 203.412 44.2773C203.062 44.2773 202.769 44.1675 202.533 43.9478C202.305 43.728 202.191 43.3944 202.191 42.9468C202.191 42.491 202.305 42.1574 202.533 41.9458C202.769 41.7261 203.062 41.6162 203.412 41.6162ZM216.498 46.6211H218.731L212.958 53.0786L219.195 60H216.815L210.736 53.2129V60H208.697V46.6211H210.736V53.1152L216.498 46.6211Z" fill="white"/>
<path d="M128.558 49.7095L128.137 50.6167L128.144 50.6198L128.558 49.7095ZM130.633 51.4917L129.785 52.0217L129.789 52.028L130.633 51.4917ZM130.584 57.4976L131.441 58.0132L131.443 58.0097L130.584 57.4976ZM128.302 59.5361L128.731 60.4393L128.737 60.4364L128.302 59.5361ZM120.135 59.2676H119.135V59.8352L119.623 60.1262L120.135 59.2676ZM120.135 57.3389L120.651 56.4824L119.135 55.5685V57.3389H120.135ZM127.13 58.0835L127.518 59.0049L127.524 59.0026L127.13 58.0835ZM128.717 56.7651L127.876 56.2238L127.874 56.2267L128.717 56.7651ZM128.192 51.7847L127.523 52.5284L127.532 52.5362L128.192 51.7847ZM121.6 51.1987L121.052 52.0353L121.418 52.275L121.843 52.1689L121.6 51.1987ZM120.575 50.5273L119.578 50.446L119.53 51.0384L120.027 51.364L120.575 50.5273ZM121.258 42.1533V41.1533H120.337L120.262 42.072L121.258 42.1533ZM130.133 42.1533H131.133V41.1533H130.133V42.1533ZM130.133 44.0088V45.0088H131.133V44.0088H130.133ZM122.992 44.0088V43.0088H122.072L121.995 43.9252L122.992 44.0088ZM122.54 49.3921L121.544 49.3085L121.431 50.6474L122.746 50.3706L122.54 49.3921ZM123.736 49.1968L123.868 50.188L123.877 50.1869L123.885 50.1857L123.736 49.1968ZM125.396 50.0869C126.496 50.0869 127.401 50.2751 128.137 50.6167L128.979 48.8022C127.925 48.3138 126.722 48.0869 125.396 48.0869V50.0869ZM128.144 50.6198C128.873 50.9511 129.408 51.4186 129.785 52.0217L131.481 50.9617C130.882 50.0023 130.033 49.2816 128.972 48.7991L128.144 50.6198ZM129.789 52.028C130.165 52.6188 130.378 53.3718 130.378 54.3359H132.378C132.378 53.0703 132.095 51.9271 131.477 50.9554L129.789 52.028ZM130.378 54.3359C130.378 55.4094 130.147 56.2794 129.726 56.9854L131.443 58.0097C132.08 56.9417 132.378 55.7039 132.378 54.3359H130.378ZM129.728 56.9819C129.306 57.6818 128.698 58.2336 127.866 58.6359L128.737 60.4364C129.891 59.8783 130.805 59.0711 131.441 58.0132L129.728 56.9819ZM127.872 58.633C127.044 59.0269 126.01 59.2441 124.737 59.2441V61.2441C126.232 61.2441 127.574 60.9893 128.731 60.4393L127.872 58.633ZM124.737 59.2441C123.868 59.2441 123.073 59.1678 122.349 59.0202L121.949 60.9798C122.821 61.1577 123.752 61.2441 124.737 61.2441V59.2441ZM122.349 59.0202C121.633 58.8739 121.074 58.6631 120.648 58.409L119.623 60.1262C120.287 60.5231 121.071 60.8006 121.949 60.9798L122.349 59.0202ZM121.135 59.2676V57.3389H119.135V59.2676H121.135ZM119.619 58.1953C120.317 58.6159 121.134 58.9337 122.053 59.1635L122.538 57.2232C121.765 57.0298 121.142 56.778 120.651 56.4824L119.619 58.1953ZM122.053 59.1635C122.972 59.3931 123.875 59.5107 124.762 59.5107V57.5107C124.053 57.5107 123.313 57.4168 122.538 57.2232L122.053 59.1635ZM124.762 59.5107C125.768 59.5107 126.695 59.3522 127.518 59.0049L126.741 57.1621C126.214 57.3845 125.562 57.5107 124.762 57.5107V59.5107ZM127.524 59.0026C128.378 58.6364 129.069 58.0705 129.559 57.3035L127.874 56.2267C127.615 56.6316 127.249 56.9446 126.736 57.1644L127.524 59.0026ZM129.558 57.3065C130.069 56.5129 130.291 55.5675 130.291 54.5312H128.291C128.291 55.2854 128.13 55.8292 127.876 56.2238L129.558 57.3065ZM130.291 54.5312C130.291 53.1239 129.847 51.9069 128.852 51.0331L127.532 52.5362C128.002 52.9482 128.291 53.5623 128.291 54.5312H130.291ZM128.86 51.041C127.869 50.1494 126.424 49.8081 124.75 49.8081V51.8081C126.216 51.8081 127.067 52.1178 127.523 52.5284L128.86 51.041ZM124.75 49.8081C124.192 49.8081 123.593 49.853 122.955 49.9392L123.223 51.9212C123.79 51.8446 124.298 51.8081 124.75 51.8081V49.8081ZM122.955 49.9392C122.333 50.0233 121.797 50.1187 121.358 50.2286L121.843 52.1689C122.184 52.0834 122.641 51.9998 123.223 51.9212L122.955 49.9392ZM122.148 50.3621L121.122 49.6907L120.027 51.364L121.052 52.0353L122.148 50.3621ZM121.571 50.6087L122.255 42.2347L120.262 42.072L119.578 50.446L121.571 50.6087ZM121.258 43.1533H130.133V41.1533H121.258V43.1533ZM129.133 42.1533V44.0088H131.133V42.1533H129.133ZM130.133 43.0088H122.992V45.0088H130.133V43.0088ZM121.995 43.9252L121.544 49.3085L123.537 49.4757L123.988 44.0924L121.995 43.9252ZM122.746 50.3706C123.021 50.3127 123.393 50.2514 123.868 50.188L123.604 48.2055C123.103 48.2724 122.677 48.3413 122.334 48.4135L122.746 50.3706ZM123.885 50.1857C124.313 50.1214 124.816 50.0869 125.396 50.0869V48.0869C124.74 48.0869 124.136 48.1257 123.588 48.2078L123.885 50.1857ZM142.657 59.6338L143.135 60.5124L143.142 60.5084L142.657 59.6338ZM136.664 59.1577L136.021 59.9236L136.024 59.9265L136.664 59.1577ZM134.723 56.0205L133.767 56.3146L133.769 56.3214L134.723 56.0205ZM134.662 46.145L133.7 45.8718L133.699 45.8756L134.662 46.145ZM136.542 42.9834L137.189 43.7457L137.193 43.7421L136.542 42.9834ZM143.28 42.9712L142.636 43.7365L142.64 43.74L143.28 42.9712ZM145.221 46.1206L144.265 46.4147L144.265 46.4163L145.221 46.1206ZM136.505 55.2026L135.53 55.4249L136.505 55.2026ZM137.726 57.6929L137.024 58.4051L137.029 58.4102L137.034 58.4153L137.726 57.6929ZM142.181 57.6929L141.49 56.9704L141.485 56.9754L142.181 57.6929ZM143.414 55.2148L142.441 54.9858L142.439 54.9926L143.414 55.2148ZM143.426 46.9507L142.451 47.1729L142.452 47.1745L143.426 46.9507ZM142.206 44.4604L141.498 45.1676L141.504 45.1727L142.206 44.4604ZM137.713 44.4604L138.415 45.1727L138.42 45.1676L137.713 44.4604ZM136.493 46.9507L135.518 46.7284L135.516 46.7338L136.493 46.9507ZM144.855 51.0522C144.855 52.4522 144.749 53.6809 144.544 54.7447L146.508 55.1234C146.742 53.9086 146.855 52.5494 146.855 51.0522H144.855ZM144.544 54.7447C144.341 55.7983 144.029 56.6468 143.63 57.314L145.347 58.3403C145.892 57.4288 146.272 56.3485 146.508 55.1234L144.544 54.7447ZM143.63 57.314C143.241 57.9637 142.755 58.4359 142.172 58.7592L143.142 60.5084C144.056 60.0016 144.791 59.2694 145.347 58.3403L143.63 57.314ZM142.18 58.7552C141.608 59.066 140.881 59.2441 139.959 59.2441V61.2441C141.138 61.2441 142.209 61.0154 143.135 60.5124L142.18 58.7552ZM139.959 59.2441C138.825 59.2441 137.964 58.939 137.303 58.3889L136.024 59.9265C137.104 60.825 138.441 61.2441 139.959 61.2441V59.2441ZM137.307 58.3919C136.625 57.8192 136.066 56.9545 135.676 55.7196L133.769 56.3214C134.242 57.8209 134.977 59.0477 136.021 59.9236L137.307 58.3919ZM135.678 55.7264C135.293 54.4728 135.088 52.9215 135.088 51.0522H133.088C133.088 53.0567 133.306 54.8175 133.767 56.3146L135.678 55.7264ZM135.088 51.0522C135.088 49.2101 135.273 47.6699 135.625 46.4144L133.699 45.8756C133.285 47.3545 133.088 49.0858 133.088 51.0522H135.088ZM135.624 46.4182C135.974 45.1834 136.513 44.3198 137.189 43.7457L135.894 42.2211C134.845 43.1118 134.13 44.356 133.7 45.8718L135.624 46.4182ZM137.193 43.7421C137.833 43.1927 138.722 42.8726 139.959 42.8726V40.8726C138.365 40.8726 136.975 41.293 135.89 42.2246L137.193 43.7421ZM139.959 42.8726C141.111 42.8726 141.977 43.182 142.636 43.7365L143.923 42.2059C142.841 41.2955 141.493 40.8726 139.959 40.8726V42.8726ZM142.64 43.74C143.326 44.3105 143.883 45.1751 144.265 46.4147L146.176 45.8265C145.712 44.3155 144.975 43.0805 143.919 42.2024L142.64 43.74ZM144.265 46.4163C144.651 47.6614 144.855 49.2 144.855 51.0522H146.855C146.855 49.0634 146.637 47.3142 146.176 45.8249L144.265 46.4163ZM135.126 51.0522C135.126 52.7562 135.255 54.2201 135.53 55.4249L137.48 54.9804C137.25 53.9716 137.126 52.6686 137.126 51.0522H135.126ZM135.53 55.4249C135.807 56.64 136.279 57.6711 137.024 58.4051L138.428 56.9806C138.049 56.6078 137.707 55.9788 137.48 54.9804L135.53 55.4249ZM137.034 58.4153C137.821 59.1681 138.828 59.5107 139.959 59.5107V57.5107C139.252 57.5107 138.77 57.3081 138.417 56.9705L137.034 58.4153ZM139.959 59.5107C141.09 59.5107 142.097 59.1681 142.878 58.4103L141.485 56.9754C141.142 57.3081 140.668 57.5107 139.959 57.5107V59.5107ZM142.873 58.4153C143.633 57.6874 144.111 56.6548 144.389 55.4371L142.439 54.9926C142.212 55.9884 141.869 56.6079 141.49 56.9705L142.873 58.4153ZM144.387 55.4439C144.672 54.2361 144.805 52.7654 144.805 51.0522H142.805C142.805 52.6757 142.677 53.9801 142.441 54.9858L144.387 55.4439ZM144.805 51.0522C144.805 49.3717 144.676 47.9237 144.401 46.7269L142.452 47.1745C142.681 48.1749 142.805 49.4613 142.805 51.0522H144.805ZM144.401 46.7284C144.124 45.5133 143.652 44.4822 142.907 43.7482L141.504 45.1727C141.882 45.5455 142.224 46.1745 142.451 47.1729L144.401 46.7284ZM142.913 43.7533C142.13 42.9711 141.11 42.6182 139.959 42.6182V44.6182C140.681 44.6182 141.158 44.8268 141.498 45.1676L142.913 43.7533ZM139.959 42.6182C138.809 42.6182 137.789 42.9711 137.006 43.7533L138.42 45.1676C138.761 44.8268 139.238 44.6182 139.959 44.6182V42.6182ZM137.011 43.7482C136.267 44.4822 135.795 45.5133 135.518 46.7284L137.468 47.1729C137.695 46.1745 138.037 45.5455 138.415 45.1727L137.011 43.7482ZM135.516 46.7338C135.251 47.9277 135.126 49.3733 135.126 51.0522H137.126C137.126 49.4597 137.246 48.1709 137.469 47.1676L135.516 46.7338ZM156.964 59.6338L157.441 60.5124L157.449 60.5084L156.964 59.6338ZM150.97 59.1577L150.327 59.9236L150.331 59.9265L150.97 59.1577ZM149.029 56.0205L148.073 56.3146L148.076 56.3214L149.029 56.0205ZM148.968 46.145L148.006 45.8718L148.005 45.8756L148.968 46.145ZM150.848 42.9834L151.495 43.7457L151.5 43.7421L150.848 42.9834ZM157.586 42.9712L156.943 43.7365L156.947 43.74L157.586 42.9712ZM159.527 46.1206L158.572 46.4147L158.572 46.4163L159.527 46.1206ZM150.812 55.2026L149.837 55.4249L150.812 55.2026ZM152.032 57.6929L151.33 58.4051L151.335 58.4102L151.341 58.4153L152.032 57.6929ZM156.488 57.6929L155.796 56.9704L155.791 56.9754L156.488 57.6929ZM157.721 55.2148L156.747 54.9858L156.746 54.9926L157.721 55.2148ZM157.733 46.9507L156.758 47.1729L156.758 47.1745L157.733 46.9507ZM156.512 44.4604L155.805 45.1676L155.81 45.1727L156.512 44.4604ZM152.02 44.4604L152.722 45.1727L152.727 45.1676L152.02 44.4604ZM150.799 46.9507L149.824 46.7284L149.823 46.7338L150.799 46.9507ZM159.162 51.0522C159.162 52.4522 159.056 53.6809 158.851 54.7447L160.814 55.1234C161.049 53.9086 161.162 52.5494 161.162 51.0522H159.162ZM158.851 54.7447C158.647 55.7983 158.336 56.6468 157.937 57.314L159.653 58.3403C160.198 57.4288 160.578 56.3485 160.814 55.1234L158.851 54.7447ZM157.937 57.314C157.548 57.9637 157.062 58.4359 156.479 58.7592L157.449 60.5084C158.363 60.0016 159.098 59.2694 159.653 58.3403L157.937 57.314ZM156.486 58.7552C155.914 59.066 155.187 59.2441 154.266 59.2441V61.2441C155.445 61.2441 156.516 61.0154 157.441 60.5124L156.486 58.7552ZM154.266 59.2441C153.131 59.2441 152.271 58.939 151.61 58.3889L150.331 59.9265C151.411 60.825 152.748 61.2441 154.266 61.2441V59.2441ZM151.613 58.3919C150.931 57.8192 150.373 56.9545 149.983 55.7196L148.076 56.3214C148.549 57.8209 149.284 59.0477 150.327 59.9236L151.613 58.3919ZM149.985 55.7264C149.599 54.4728 149.395 52.9215 149.395 51.0522H147.395C147.395 53.0567 147.613 54.8175 148.074 56.3146L149.985 55.7264ZM149.395 51.0522C149.395 49.2101 149.58 47.6699 149.931 46.4144L148.005 45.8756C147.591 47.3545 147.395 49.0858 147.395 51.0522H149.395ZM149.93 46.4182C150.281 45.1834 150.819 44.3198 151.495 43.7457L150.201 42.2211C149.152 43.1118 148.437 44.356 148.006 45.8718L149.93 46.4182ZM151.5 43.7421C152.14 43.1927 153.028 42.8726 154.266 42.8726V40.8726C152.672 40.8726 151.282 41.293 150.197 42.2246L151.5 43.7421ZM154.266 42.8726C155.418 42.8726 156.284 43.182 156.943 43.7365L158.23 42.2059C157.148 41.2955 155.8 40.8726 154.266 40.8726V42.8726ZM156.947 43.74C157.633 44.3105 158.19 45.1751 158.572 46.4147L160.483 45.8265C160.018 44.3155 159.282 43.0805 158.226 42.2024L156.947 43.74ZM158.572 46.4163C158.957 47.6614 159.162 49.2 159.162 51.0522H161.162C161.162 49.0634 160.944 47.3142 160.483 45.8249L158.572 46.4163ZM149.433 51.0522C149.433 52.7562 149.562 54.2201 149.837 55.4249L151.787 54.9804C151.557 53.9716 151.433 52.6686 151.433 51.0522H149.433ZM149.837 55.4249C150.114 56.64 150.586 57.6711 151.33 58.4051L152.734 56.9806C152.356 56.6078 152.014 55.9788 151.787 54.9804L149.837 55.4249ZM151.341 58.4153C152.127 59.1681 153.135 59.5107 154.266 59.5107V57.5107C153.558 57.5107 153.076 57.3081 152.724 56.9705L151.341 58.4153ZM154.266 59.5107C155.397 59.5107 156.404 59.1681 157.184 58.4103L155.791 56.9754C155.449 57.3081 154.974 57.5107 154.266 57.5107V59.5107ZM157.179 58.4153C157.94 57.6874 158.418 56.6548 158.696 55.4371L156.746 54.9926C156.519 55.9884 156.175 56.6079 155.796 56.9705L157.179 58.4153ZM158.694 55.4439C158.978 54.2361 159.111 52.7654 159.111 51.0522H157.111C157.111 52.6757 156.984 53.9801 156.747 54.9858L158.694 55.4439ZM159.111 51.0522C159.111 49.3717 158.982 47.9237 158.708 46.7269L156.758 47.1745C156.988 48.1749 157.111 49.4613 157.111 51.0522H159.111ZM158.708 46.7284C158.431 45.5133 157.959 44.4822 157.214 43.7482L155.81 45.1727C156.189 45.5455 156.53 46.1745 156.758 47.1729L158.708 46.7284ZM157.219 43.7533C156.437 42.9711 155.416 42.6182 154.266 42.6182V44.6182C154.988 44.6182 155.464 44.8268 155.805 45.1676L157.219 43.7533ZM154.266 42.6182C153.116 42.6182 152.095 42.9711 151.313 43.7533L152.727 45.1676C153.068 44.8268 153.544 44.6182 154.266 44.6182V42.6182ZM151.318 43.7482C150.573 44.4822 150.101 45.5133 149.824 46.7284L151.774 47.1729C152.002 46.1745 152.344 45.5455 152.722 45.1727L151.318 43.7482ZM149.823 46.7338C149.558 47.9277 149.433 49.3733 149.433 51.0522H151.433C151.433 49.4597 151.553 48.1709 151.776 47.1676L149.823 46.7338ZM167.767 61.4526H166.767V62.4526H167.767V61.4526ZM167.767 58.8892H168.767V57.9064L167.784 57.8893L167.767 58.8892ZM165.082 58.645L164.911 59.6304L164.913 59.6306L165.082 58.645ZM163.006 58.0713H162.006V58.7242L162.604 58.9868L163.006 58.0713ZM163.006 56.0938L163.427 55.1866L162.006 54.5277V56.0938H163.006ZM167.767 57.0947L167.748 58.0945L168.767 58.114V57.0947H167.767ZM167.767 51.7236H168.767V50.9654L168.037 50.7607L167.767 51.7236ZM165.094 50.6982L164.606 51.5715L164.618 51.5781L165.094 50.6982ZM163.58 45.1074L162.75 44.5501L162.748 44.5527L163.58 45.1074ZM165.252 43.7158L164.83 42.8094L165.252 43.7158ZM167.767 43.1421L167.818 44.1408L168.767 44.0925V43.1421H167.767ZM167.767 41.0303V40.0303H166.767V41.0303H167.767ZM169.256 41.0303H170.256V40.0303H169.256V41.0303ZM169.256 43.1177H168.256V44.09L169.228 44.1173L169.256 43.1177ZM171.637 43.4106L171.405 44.3834L171.415 44.3858L171.637 43.4106ZM173.626 44.0454L174.563 44.3958L174.898 43.5007L174.019 43.1256L173.626 44.0454ZM172.992 45.7422L172.623 46.6716L173.571 47.0481L173.928 46.0926L172.992 45.7422ZM169.256 44.8633L169.344 43.8671L168.256 43.772V44.8633H169.256ZM169.256 50.1978H168.256V50.9482L168.977 51.1579L169.256 50.1978ZM171.991 51.2109L171.552 52.1093L171.555 52.1112L171.991 51.2109ZM173.663 52.5415L172.847 53.1192L173.663 52.5415ZM172.918 57.4731L173.558 58.242L173.562 58.2384L172.918 57.4731ZM169.256 58.7915L169.158 57.7963L168.256 57.8851V58.7915H169.256ZM169.256 61.4526V62.4526H170.256V61.4526H169.256ZM169.256 56.9849H168.256V58.0872L169.353 57.9801L169.256 56.9849ZM171.49 56.2646L172.107 57.0519L172.109 57.0505L171.49 56.2646ZM171.942 53.6035L171.099 54.1419L171.104 54.1501L171.11 54.1582L171.942 53.6035ZM171.014 52.8467L170.56 53.7377L170.567 53.7411L170.574 53.7445L171.014 52.8467ZM169.256 52.2241L169.511 51.2572L168.256 50.9262V52.2241H169.256ZM167.767 49.6851L167.508 50.6509L168.767 50.9887V49.6851H167.767ZM167.767 44.9121H168.767V43.8432L167.701 43.9143L167.767 44.9121ZM165.289 45.9863L164.471 45.4114L164.466 45.4189L164.46 45.4265L165.289 45.9863ZM165.252 48.269L164.376 48.751L164.383 48.7641L164.391 48.777L165.252 48.269ZM166.144 49.0869L165.655 49.9594L165.665 49.9652L165.676 49.9707L166.144 49.0869ZM168.767 61.4526V58.8892H166.767V61.4526H168.767ZM167.784 57.8893C166.895 57.8738 166.051 57.7966 165.251 57.6594L164.913 59.6306C165.821 59.7864 166.767 59.8719 167.75 59.889L167.784 57.8893ZM165.252 57.6597C164.452 57.5212 163.846 57.348 163.409 57.1558L162.604 58.9868C163.241 59.2666 164.018 59.4758 164.911 59.6304L165.252 57.6597ZM164.006 58.0713V56.0938H162.006V58.0713H164.006ZM162.586 57.0009C163.235 57.3019 164.03 57.549 164.95 57.7535L165.384 55.8012C164.547 55.6151 163.901 55.4065 163.427 55.1866L162.586 57.0009ZM164.95 57.7535C165.891 57.9625 166.824 58.0769 167.748 58.0945L167.786 56.0949C167.002 56.08 166.201 55.9828 165.384 55.8012L164.95 57.7535ZM168.767 57.0947V51.7236H166.767V57.0947H168.767ZM168.037 50.7607C167.009 50.4726 166.192 50.1551 165.569 49.8184L164.618 51.5781C165.411 52.0063 166.377 52.3725 167.497 52.6865L168.037 50.7607ZM165.581 49.825C164.998 49.4995 164.611 49.1318 164.368 48.7411L162.67 49.7989C163.127 50.5313 163.79 51.1157 164.606 51.5714L165.581 49.825ZM164.368 48.7411C164.135 48.3682 163.994 47.8807 163.994 47.2314H161.994C161.994 48.1773 162.203 49.0488 162.67 49.7989L164.368 48.7411ZM163.994 47.2314C163.994 46.5628 164.149 46.0562 164.412 45.6621L162.748 44.5527C162.229 45.3305 161.994 46.24 161.994 47.2314H163.994ZM164.41 45.6647C164.697 45.2375 165.106 44.8872 165.675 44.6223L164.83 42.8094C163.966 43.2118 163.261 43.7892 162.75 44.5501L164.41 45.6647ZM165.675 44.6223C166.252 44.3534 166.959 44.1845 167.818 44.1408L167.716 42.1434C166.655 42.1974 165.685 42.4109 164.83 42.8094L165.675 44.6223ZM168.767 43.1421V41.0303H166.767V43.1421H168.767ZM167.767 42.0303H169.256V40.0303H167.767V42.0303ZM168.256 41.0303V43.1177H170.256V41.0303H168.256ZM169.228 44.1173C170.042 44.1401 170.766 44.231 171.405 44.3833L171.869 42.438C171.075 42.2485 170.212 42.1441 169.284 42.1181L169.228 44.1173ZM171.415 44.3858C172.079 44.5366 172.684 44.7306 173.234 44.9652L174.019 43.1256C173.348 42.8393 172.627 42.6102 171.858 42.4355L171.415 44.3858ZM172.69 43.695L172.055 45.3918L173.928 46.0926L174.563 44.3958L172.69 43.695ZM173.361 44.8128C172.759 44.5738 172.115 44.3729 171.431 44.2084L170.963 46.1529C171.565 46.2977 172.118 46.4711 172.623 46.6716L173.361 44.8128ZM171.431 44.2084C170.741 44.0423 170.045 43.9284 169.344 43.8671L169.169 45.8595C169.77 45.9121 170.368 46.0098 170.963 46.1529L171.431 44.2084ZM168.256 44.8633V50.1978H170.256V44.8633H168.256ZM168.977 51.1579C170.032 51.465 170.886 51.784 171.552 52.1093L172.43 50.3126C171.631 49.9217 170.662 49.5652 169.536 49.2376L168.977 51.1579ZM171.555 52.1112C172.184 52.4151 172.593 52.7605 172.847 53.1192L174.479 51.9638C173.984 51.2645 173.279 50.7229 172.426 50.3107L171.555 52.1112ZM172.847 53.1192C173.071 53.4358 173.225 53.9005 173.225 54.5923H175.225C175.225 53.6077 175.004 52.7052 174.479 51.9638L172.847 53.1192ZM173.225 54.5923C173.225 55.5002 172.908 56.1749 172.275 56.7079L173.562 58.2384C174.67 57.3066 175.225 56.0606 175.225 54.5923H173.225ZM172.279 56.7043C171.612 57.2594 170.606 57.6538 169.158 57.7963L169.354 59.7867C171.048 59.6199 172.484 59.1354 173.558 58.242L172.279 56.7043ZM168.256 58.7915V61.4526H170.256V58.7915H168.256ZM169.256 60.4526H167.767V62.4526H169.256V60.4526ZM169.353 57.9801C170.437 57.8744 171.402 57.6038 172.107 57.0519L170.874 55.4774C170.602 55.6905 170.077 55.9 169.159 55.9896L169.353 57.9801ZM172.109 57.0505C172.847 56.4692 173.235 55.6662 173.235 54.7266H171.235C171.235 55.0565 171.126 55.2788 170.872 55.4788L172.109 57.0505ZM173.235 54.7266C173.235 54.1309 173.107 53.5482 172.774 53.0488L171.11 54.1582C171.168 54.2448 171.235 54.4107 171.235 54.7266H173.235ZM172.785 53.0651C172.468 52.5696 171.99 52.2116 171.455 51.9489L170.574 53.7445C170.901 53.9049 171.041 54.0515 171.099 54.1419L172.785 53.0651ZM171.468 51.9556C170.948 51.6906 170.286 51.4615 169.511 51.2572L169.001 53.1911C169.708 53.3774 170.218 53.5633 170.56 53.7377L171.468 51.9556ZM168.256 52.2241V56.9849H170.256V52.2241H168.256ZM168.767 49.6851V44.9121H166.767V49.6851H168.767ZM167.701 43.9143C167.01 43.9604 166.372 44.0924 165.818 44.3423L166.64 46.1655C166.916 46.041 167.304 45.9452 167.834 45.9099L167.701 43.9143ZM165.818 44.3423C165.278 44.5858 164.807 44.9325 164.471 45.4114L166.107 46.5613C166.194 46.4379 166.35 46.2963 166.64 46.1655L165.818 44.3423ZM164.46 45.4265C164.13 45.9156 163.984 46.4752 163.984 47.0605H165.984C165.984 46.8158 166.041 46.6593 166.118 46.5462L164.46 45.4265ZM163.984 47.0605C163.984 47.6612 164.096 48.2408 164.376 48.751L166.129 47.7871C166.051 47.6462 165.984 47.4201 165.984 47.0605H163.984ZM164.391 48.777C164.689 49.2822 165.134 49.6678 165.655 49.9594L166.632 48.2144C166.339 48.0503 166.19 47.8907 166.114 47.7611L164.391 48.777ZM165.676 49.9707C166.18 50.2377 166.799 50.4606 167.508 50.6509L168.026 48.7192C167.401 48.5514 166.937 48.3755 166.611 48.2031L165.676 49.9707ZM184.649 42.1533L185.587 42.5021L186.088 41.1533H184.649V42.1533ZM178.009 60V61H178.704L178.946 60.3487L178.009 60ZM176.007 60L175.07 59.6507L174.567 61H176.007V60ZM182.66 42.1533V41.1533H181.965L181.723 41.804L182.66 42.1533ZM183.712 41.8046L177.072 59.6513L178.946 60.3487L185.587 42.5021L183.712 41.8046ZM178.009 59H176.007V61H178.009V59ZM176.944 60.3493L183.597 42.5026L181.723 41.804L175.07 59.6507L176.944 60.3493ZM182.66 43.1533H184.649V41.1533H182.66V43.1533ZM197.345 48.0981L198.101 47.4438L197.345 48.0981ZM196.222 59.4507L195.684 58.6074L195.681 58.6098L196.222 59.4507ZM189.105 58.1689L189.934 57.6101L189.637 57.1689H189.105V58.1689ZM188.958 58.1689V57.1689H187.879L187.961 58.2456L188.958 58.1689ZM189.044 59.3164L188.047 59.3889L188.047 59.3979L188.048 59.4069L189.044 59.3164ZM189.105 65.9814V66.9814H190.105V65.9814H189.105ZM187.066 65.9814H186.066V66.9814H187.066V65.9814ZM187.066 46.6211V45.6211H186.066V46.6211H187.066ZM188.739 46.6211L189.73 46.4865L189.612 45.6211H188.739V46.6211ZM189.007 48.5986L188.016 48.7332L188.134 49.5986H189.007V48.5986ZM189.105 48.5986V49.5986H189.652L189.947 49.1377L189.105 48.5986ZM190.057 47.4878L190.723 48.2344L190.731 48.2263L190.057 47.4878ZM191.424 46.6821L191.766 47.622L191.774 47.619L191.424 46.6821ZM190.753 48.623L190.221 47.7764L190.215 47.7799L190.753 48.623ZM189.52 50.2344L190.459 50.5796L190.46 50.5761L189.52 50.2344ZM189.105 52.9077L188.105 52.8926L188.105 52.9001V52.9077H189.105ZM189.471 56.167L188.517 56.4653L188.52 56.4743L189.471 56.167ZM190.704 57.9492L190.123 58.763L190.128 58.7668L190.704 57.9492ZM195.099 57.8882L194.47 57.1107L195.099 57.8882ZM196.332 56.0205L195.386 55.6957L195.384 55.7014L196.332 56.0205ZM195.819 49.4897L194.981 50.036L194.987 50.0444L195.819 49.4897ZM193.353 47.377C194.764 47.377 195.806 47.848 196.589 48.7525L198.101 47.4438C196.898 46.0534 195.279 45.377 193.353 45.377V47.377ZM196.589 48.7525C197.36 49.6444 197.834 51.0913 197.834 53.2739H199.834C199.834 50.8504 199.315 48.8468 198.101 47.4438L196.589 48.7525ZM197.834 53.2739C197.834 54.7024 197.619 55.833 197.235 56.7035L199.065 57.5104C199.593 56.3138 199.834 54.8891 199.834 53.2739H197.834ZM197.235 56.7035C196.847 57.5837 196.324 58.1996 195.684 58.6074L196.759 60.294C197.779 59.6439 198.542 58.6972 199.065 57.5104L197.235 56.7035ZM195.681 58.6098C195.043 59.0201 194.265 59.2441 193.304 59.2441V61.2441C194.59 61.2441 195.757 60.9392 196.763 60.2916L195.681 58.6098ZM193.304 59.2441C192.682 59.2441 192.175 59.1616 191.766 59.0191L191.107 60.9077C191.773 61.1395 192.51 61.2441 193.304 61.2441V59.2441ZM191.766 59.0191C191.325 58.8656 190.974 58.6679 190.696 58.437L189.419 59.9761C189.905 60.3799 190.474 60.6868 191.107 60.9077L191.766 59.0191ZM190.696 58.437C190.379 58.1743 190.128 57.898 189.934 57.6101L188.276 58.7278C188.586 59.1886 188.97 59.604 189.419 59.9761L190.696 58.437ZM189.105 57.1689H188.958V59.1689H189.105V57.1689ZM187.961 58.2456C187.986 58.5612 188.014 58.9422 188.047 59.3889L190.041 59.2439C190.009 58.7954 189.98 58.4114 189.956 58.0922L187.961 58.2456ZM188.048 59.4069C188.087 59.834 188.105 60.1931 188.105 60.4883H190.105C190.105 60.1161 190.082 59.694 190.04 59.2259L188.048 59.4069ZM188.105 60.4883V65.9814H190.105V60.4883H188.105ZM189.105 64.9814H187.066V66.9814H189.105V64.9814ZM188.066 65.9814V46.6211H186.066V65.9814H188.066ZM187.066 47.6211H188.739V45.6211H187.066V47.6211ZM187.748 46.7557L188.016 48.7332L189.998 48.4641L189.73 46.4865L187.748 46.7557ZM189.007 49.5986H189.105V47.5986H189.007V49.5986ZM189.947 49.1377C190.157 48.8106 190.414 48.5095 190.722 48.2343L189.392 46.7413C188.952 47.1334 188.574 47.5729 188.263 48.0596L189.947 49.1377ZM190.731 48.2263C190.998 47.9832 191.336 47.7782 191.766 47.6219L191.083 45.7423C190.438 45.9767 189.865 46.3088 189.383 46.7493L190.731 48.2263ZM191.774 47.619C192.182 47.4669 192.701 47.377 193.353 47.377V45.377C192.524 45.377 191.758 45.4904 191.075 45.7452L191.774 47.619ZM192.999 47.0859C191.952 47.0859 190.999 47.287 190.221 47.7764L191.285 49.4697C191.646 49.243 192.191 49.0859 192.999 49.0859V47.0859ZM190.215 47.7799C189.442 48.273 188.905 49.0009 188.58 49.8926L190.46 50.5761C190.656 50.0356 190.941 49.6892 191.291 49.4662L190.215 47.7799ZM188.581 49.8892C188.269 50.7374 188.122 51.7494 188.105 52.8926L190.105 52.9229C190.12 51.9175 190.25 51.1473 190.459 50.5796L188.581 49.8892ZM188.105 52.9077V53.2983H190.105V52.9077H188.105ZM188.105 53.2983C188.105 54.495 188.233 55.5585 188.517 56.4653L190.426 55.8687C190.221 55.213 190.105 54.364 190.105 53.2983H188.105ZM188.52 56.4743C188.826 57.4232 189.35 58.2108 190.123 58.763L191.285 57.1355C190.919 56.8739 190.621 56.4733 190.423 55.8597L188.52 56.4743ZM190.128 58.7668C190.927 59.3291 191.923 59.5596 193.023 59.5596V57.5596C192.187 57.5596 191.637 57.3831 191.28 57.1316L190.128 58.7668ZM193.023 59.5596C194.043 59.5596 194.967 59.2805 195.728 58.6657L194.47 57.1107C194.123 57.3911 193.664 57.5596 193.023 57.5596V59.5596ZM195.728 58.6657C196.454 58.0784 196.961 57.2838 197.279 56.3396L195.384 55.7014C195.165 56.3522 194.85 56.8028 194.47 57.1107L195.728 58.6657ZM197.277 56.3453C197.597 55.4148 197.747 54.378 197.747 53.2495H195.747C195.747 54.2044 195.62 55.0149 195.386 55.6957L197.277 56.3453ZM197.747 53.2495C197.747 51.5521 197.416 50.0822 196.651 48.935L194.987 50.0444C195.459 50.7528 195.747 51.7894 195.747 53.2495H197.747ZM196.656 48.9435C195.834 47.6821 194.552 47.0859 192.999 47.0859V49.0859C193.985 49.0859 194.583 49.4257 194.981 50.036L196.656 48.9435ZM204.4 46.6211H205.4V45.6211H204.4V46.6211ZM204.4 60V61H205.4V60H204.4ZM202.374 60H201.374V61H202.374V60ZM202.374 46.6211V45.6211H201.374V46.6211H202.374ZM204.266 41.9458L203.585 42.6777L203.598 42.6898L203.611 42.7015L204.266 41.9458ZM204.266 43.9478L203.597 43.2045L203.591 43.2101L203.585 43.2159L204.266 43.9478ZM202.533 43.9478L201.839 44.6676L201.845 44.6737L201.851 44.6796L202.533 43.9478ZM202.533 41.9458L203.213 42.6786L203.214 42.6777L202.533 41.9458ZM203.4 46.6211V60H205.4V46.6211H203.4ZM204.4 59H202.374V61H204.4V59ZM203.374 60V46.6211H201.374V60H203.374ZM202.374 47.6211H204.4V45.6211H202.374V47.6211ZM203.412 42.6162C203.502 42.6162 203.541 42.6368 203.585 42.6777L204.948 41.2139C204.519 40.8154 203.988 40.6162 203.412 40.6162V42.6162ZM203.611 42.7015C203.593 42.6854 203.593 42.6745 203.602 42.6983C203.613 42.7289 203.632 42.8046 203.632 42.9468H205.632C205.632 42.3244 205.463 41.6598 204.921 41.1901L203.611 42.7015ZM203.632 42.9468C203.632 43.0825 203.613 43.1568 203.602 43.1891C203.592 43.2155 203.588 43.2126 203.597 43.2045L204.935 44.691C205.458 44.2202 205.632 43.5707 205.632 42.9468H203.632ZM203.585 43.2159C203.541 43.2568 203.502 43.2773 203.412 43.2773V45.2773C203.988 45.2773 204.519 45.0782 204.948 44.6796L203.585 43.2159ZM203.412 43.2773C203.291 43.2773 203.249 43.2479 203.214 43.2159L201.851 44.6796C202.289 45.0871 202.832 45.2773 203.412 45.2773V43.2773ZM203.227 43.2279C203.24 43.2404 203.234 43.2434 203.223 43.2096C203.209 43.1705 203.191 43.0889 203.191 42.9468H201.191C201.191 43.5516 201.346 44.1926 201.839 44.6676L203.227 43.2279ZM203.191 42.9468C203.191 42.7984 203.21 42.7153 203.223 42.6779C203.234 42.6463 203.236 42.6576 203.213 42.6786L201.852 41.213C201.341 41.6874 201.191 42.3436 201.191 42.9468H203.191ZM203.214 42.6777C203.249 42.6457 203.291 42.6162 203.412 42.6162V40.6162C202.832 40.6162 202.289 40.8065 201.851 41.2139L203.214 42.6777ZM216.498 46.6211V45.6211H216.048L215.75 45.9574L216.498 46.6211ZM218.731 46.6211L219.477 47.2876L220.967 45.6211H218.731V46.6211ZM212.958 53.0786L212.212 52.4121L211.614 53.0813L212.215 53.7481L212.958 53.0786ZM219.195 60V61H221.443L219.938 59.3305L219.195 60ZM216.815 60L216.07 60.6672L216.368 61H216.815V60ZM210.736 53.2129L211.481 52.5457L209.736 50.5976V53.2129H210.736ZM210.736 60V61H211.736V60H210.736ZM208.697 60H207.697V61H208.697V60ZM208.697 46.6211V45.6211H207.697V46.6211H208.697ZM210.736 46.6211H211.736V45.6211H210.736V46.6211ZM210.736 53.1152H209.736V55.7491L211.484 53.7789L210.736 53.1152ZM216.498 47.6211H218.731V45.6211H216.498V47.6211ZM217.986 45.9545L212.212 52.4121L213.703 53.7452L219.477 47.2876L217.986 45.9545ZM212.215 53.7481L218.452 60.6695L219.938 59.3305L213.7 52.4091L212.215 53.7481ZM219.195 59H216.815V61H219.195V59ZM217.56 59.3328L211.481 52.5457L209.991 53.8801L216.07 60.6672L217.56 59.3328ZM209.736 53.2129V60H211.736V53.2129H209.736ZM210.736 59H208.697V61H210.736V59ZM209.697 60V46.6211H207.697V60H209.697ZM208.697 47.6211H210.736V45.6211H208.697V47.6211ZM209.736 46.6211V53.1152H211.736V46.6211H209.736ZM211.484 53.7789L217.246 47.2848L215.75 45.9574L209.988 52.4516L211.484 53.7789Z" fill="white" mask="url(#path-3-outside-1_87_22)"/>
</g>
<defs>
<filter id="filter0_d_87_22" x="0" y="0" width="358" height="108.824" filterUnits="userSpaceOnUse" color-interpolation-filters="sRGB">
<feFlood flood-opacity="0" result="BackgroundImageFix"/>
<feColorMatrix in="SourceAlpha" type="matrix" values="0 0 0 0 0 0 0 0 0 0 0 0 0 0 0 0 0 0 127 0" result="hardAlpha"/>
<feOffset dy="4"/>
<feGaussianBlur stdDeviation="2"/>
<feComposite in2="hardAlpha" operator="out"/>
<feColorMatrix type="matrix" values="0 0 0 0 0 0 0 0 0 0 0 0 0 0 0 0 0 0 0.25 0"/>
<feBlend mode="normal" in2="BackgroundImageFix" result="effect1_dropShadow_87_22"/>
<feBlend mode="normal" in="SourceGraphic" in2="effect1_dropShadow_87_22" result="shape"/>
</filter>
<filter id="filter1_d_87_22" x="116.135" y="41.0312" width="107.06" height="32.9492" filterUnits="userSpaceOnUse" color-interpolation-filters="sRGB">
<feFlood flood-opacity="0" result="BackgroundImageFix"/>
<feColorMatrix in="SourceAlpha" type="matrix" values="0 0 0 0 0 0 0 0 0 0 0 0 0 0 0 0 0 0 127 0" result="hardAlpha"/>
<feOffset dy="4"/>
<feGaussianBlur stdDeviation="2"/>
<feComposite in2="hardAlpha" operator="out"/>
<feColorMatrix type="matrix" values="0 0 0 0 0 0 0 0 0 0 0 0 0 0 0 0 0 0 0.25 0"/>
<feBlend mode="normal" in2="BackgroundImageFix" result="effect1_dropShadow_87_22"/>
<feBlend mode="normal" in="SourceGraphic" in2="effect1_dropShadow_87_22" result="shape"/>
</filter>
</defs>
</svg>
