<svg width="150" height="150" viewBox="0 0 150 150" fill="none" xmlns="http://www.w3.org/2000/svg">
<rect width="150" height="150" fill="black"/>
<path fill-rule="evenodd" clip-rule="evenodd" d="M131.25 42.1875V131.25C131.25 136.223 129.275 140.992 125.758 144.508C122.242 148.025 117.473 150 112.5 150H103.125V140.625H112.5C114.986 140.625 117.371 139.637 119.129 137.879C120.887 136.121 121.875 133.736 121.875 131.25V42.1875H103.125C99.3954 42.1875 95.8185 40.7059 93.1813 38.0687C90.5441 35.4315 89.0625 31.8546 89.0625 28.125V9.375H37.5C35.0136 9.375 32.629 10.3627 30.8709 12.1209C29.1127 13.879 28.125 16.2636 28.125 18.75V103.125H18.75V18.75C18.75 13.7772 20.7254 9.00805 24.2417 5.49175C27.7581 1.97544 32.5272 0 37.5 0L89.0625 0L131.25 42.1875ZM24.1406 142.519H7.35938V132.459H23.1562V126.778H7.35938V117.169H24.1406V111.094H0V148.584H24.1406V142.519ZM59.1562 111.094H50.7844L43.0687 124.584H42.7313L34.9313 111.094H26.2031L37.7062 129.684L26.0906 148.584H34.1625L42.1594 135.319H42.4875L50.4562 148.584H58.9688L47.2125 129.909L59.1562 111.094ZM68.7656 142.519H85.5469V148.584H61.3875V111.094H85.5375V117.169H68.7562V126.778H84.5437V132.459H68.7562L68.7656 142.519Z" fill="white"/>
</svg>
