<svg width="36" height="36" viewBox="0 0 36 36" fill="none" xmlns="http://www.w3.org/2000/svg">
<path d="M8.00004 11.333L11.3334 14.6663L18 7.99967L24.6667 14.6663L28 11.333L18 1.33301L8.00004 11.333ZM8.00004 24.6663L11.3334 21.333L18 27.9997L23.8334 22.1663L27.1667 25.4997L18 34.6663L8.00004 24.6663ZM31.3334 14.6663L34.6667 17.9997L31.3334 21.333L28 17.9997L31.3334 14.6663ZM4.66671 14.6663L8.00004 17.9997L4.66671 21.333L1.33337 17.9997L4.66671 14.6663ZM18 14.6663L21.3334 17.9997L18 21.333L14.6667 17.9997L18 14.6663Z" stroke="black" stroke-width="2" stroke-linecap="round" stroke-linejoin="round"/>
</svg>
