<svg width="39" height="40" viewBox="0 0 39 40" fill="none" xmlns="http://www.w3.org/2000/svg">
<path d="M32.4254 27.0765C32.4254 26.5841 32.331 26.0966 32.1477 25.6417C31.9644 25.1868 31.6956 24.7735 31.3569 24.4254C31.0181 24.0773 30.616 23.8013 30.1734 23.613C29.7308 23.4247 29.2565 23.3279 28.7776 23.3282H10.1329C9.65383 23.3279 9.17938 23.4248 8.73671 23.6132C8.29403 23.8015 7.89181 24.0778 7.55304 24.426C7.21426 24.7743 6.94557 25.1878 6.76232 25.6428C6.57907 26.0979 6.48486 26.5856 6.48508 27.0782V28.6115C6.48508 29.5632 6.77366 30.4932 7.31193 31.2698C9.81355 34.8765 13.9024 36.6632 19.4488 36.6632C24.9935 36.6632 29.0872 34.8782 31.5921 31.2715C32.1328 30.4952 32.4241 29.5646 32.4254 28.6098V27.0765ZM27.5567 11.6698C27.557 9.91475 27.0181 8.20441 26.0171 6.78268C25.0161 5.36094 23.6039 4.3004 21.9821 3.75228C20.3602 3.20415 18.6114 3.19642 16.985 3.7302C15.3586 4.26397 13.9376 5.31199 12.9248 6.72483C12.8073 6.68658 12.6848 6.66691 12.5616 6.66649H8.51167C8.18918 6.66649 7.87989 6.79819 7.65186 7.03261C7.42382 7.26703 7.29571 7.58497 7.29571 7.91649V17.0798C7.29529 17.682 7.41029 18.2784 7.63416 18.8348C7.85803 19.3913 8.18638 19.8969 8.60043 20.3229C9.01448 20.7488 9.50613 21.0867 10.0473 21.3173C10.5884 21.5478 11.1684 21.6665 11.7542 21.6665H12.1595V21.6598H12.1757C12.4504 21.6603 12.7207 21.5888 12.9611 21.4522C13.2015 21.3156 13.4041 21.1183 13.5498 20.8789C13.6955 20.6396 13.7796 20.366 13.794 20.084C13.8085 19.802 13.7529 19.5209 13.6324 19.2671C13.512 19.0134 13.3307 18.7953 13.1056 18.6334C12.8805 18.4716 12.619 18.3713 12.3458 18.3421C12.0726 18.3129 11.7967 18.3556 11.544 18.4663C11.2913 18.577 11.0701 18.752 10.9014 18.9748C10.5503 18.8074 10.2532 18.5401 10.0452 18.2046C9.83718 17.8691 9.72698 17.4794 9.72762 17.0815V16.6665H10.9403C11.5564 16.6665 12.1287 16.4632 12.594 16.1198C13.5318 17.6481 14.9273 18.8217 16.5703 19.4636C18.2133 20.1056 20.0148 20.1812 21.7032 19.6791C23.3917 19.1769 24.8756 18.1242 25.9314 16.6796C26.9872 15.235 27.5576 13.4767 27.5567 11.6698ZM11.344 11.4932C11.3417 11.6109 11.3417 11.7287 11.344 11.8465V13.7482C11.344 13.8587 11.3013 13.9646 11.2253 14.0428C11.1493 14.1209 11.0462 14.1648 10.9387 14.1648H9.72762V9.16816H11.3456L11.344 11.4932Z" fill="black"/>
</svg>
