<svg width="40" height="40" viewBox="0 0 40 40" fill="none" xmlns="http://www.w3.org/2000/svg">
<path d="M29.8333 28.9835C29.3999 27.6502 28.1499 26.6668 26.6666 26.6668H24.9999V21.6668C24.9999 21.2248 24.8243 20.8009 24.5118 20.4883C24.1992 20.1758 23.7753 20.0002 23.3333 20.0002H13.3333V16.6668H16.6666C17.1086 16.6668 17.5325 16.4912 17.8451 16.1787C18.1577 15.8661 18.3333 15.4422 18.3333 15.0002V11.6668H21.6666C22.5506 11.6668 23.3985 11.3156 24.0236 10.6905C24.6487 10.0654 24.9999 9.21755 24.9999 8.3335V7.65016C26.994 8.4541 28.7637 9.72929 30.1573 11.3666C31.5509 13.0038 32.5271 14.9544 33.0022 17.0513C33.4772 19.1483 33.4371 21.3291 32.8852 23.4072C32.3334 25.4852 31.2862 27.3986 29.8333 28.9835ZM18.3333 33.2168C11.7499 32.4002 6.66659 26.8002 6.66659 20.0002C6.66659 18.9668 6.79992 17.9668 7.01659 17.0168L14.9999 25.0002V26.6668C14.9999 27.5509 15.3511 28.3987 15.9762 29.0239C16.6014 29.649 17.4492 30.0002 18.3333 30.0002M19.9999 3.3335C17.8112 3.3335 15.644 3.76459 13.6219 4.60217C11.5998 5.43975 9.76245 6.66741 8.21481 8.21505C5.0892 11.3407 3.33325 15.5799 3.33325 20.0002C3.33325 24.4204 5.0892 28.6597 8.21481 31.7853C9.76245 33.3329 11.5998 34.5606 13.6219 35.3982C15.644 36.2357 17.8112 36.6668 19.9999 36.6668C24.4202 36.6668 28.6594 34.9109 31.785 31.7853C34.9106 28.6597 36.6666 24.4204 36.6666 20.0002C36.6666 17.8115 36.2355 15.6442 35.3979 13.6221C34.5603 11.6 33.3327 9.76269 31.785 8.21505C30.2374 6.66741 28.4001 5.43975 26.378 4.60217C24.3559 3.76459 22.1886 3.3335 19.9999 3.3335Z" fill="#162EFF"/>
</svg>
