<svg width="808" height="128" viewBox="0 0 808 128" fill="none" xmlns="http://www.w3.org/2000/svg">
<g filter="url(#filter0_d_1_103)">
<rect x="4.5" y="40.5" width="799" height="79" fill="#0859D2" stroke="black"/>
<path d="M278.098 69.1818V91H275.456V71.5256H264.461V91H261.819V69.1818H278.098ZM289.947 91.3409C288.37 91.3409 287.01 90.9929 285.867 90.2969C284.73 89.5938 283.853 88.6136 283.235 87.3565C282.625 86.0923 282.319 84.6222 282.319 82.946C282.319 81.2699 282.625 79.7926 283.235 78.5142C283.853 77.2287 284.713 76.2273 285.814 75.5099C286.922 74.7855 288.214 74.4233 289.691 74.4233C290.544 74.4233 291.385 74.5653 292.216 74.8494C293.047 75.1335 293.804 75.5952 294.485 76.2344C295.167 76.8665 295.711 77.7045 296.115 78.7486C296.52 79.7926 296.723 81.0781 296.723 82.6051V83.6705H284.109V81.4972H294.166C294.166 80.5739 293.981 79.75 293.612 79.0256C293.25 78.3011 292.731 77.7294 292.056 77.3104C291.389 76.8913 290.6 76.6818 289.691 76.6818C288.69 76.6818 287.824 76.9304 287.092 77.4276C286.368 77.9176 285.81 78.5568 285.419 79.3452C285.029 80.1335 284.833 80.9787 284.833 81.8807V83.3295C284.833 84.5653 285.047 85.6129 285.473 86.4723C285.906 87.3246 286.506 87.9744 287.273 88.4219C288.04 88.8622 288.931 89.0824 289.947 89.0824C290.608 89.0824 291.204 88.9901 291.737 88.8054C292.277 88.6136 292.742 88.3295 293.132 87.9531C293.523 87.5696 293.825 87.0937 294.038 86.5256L296.467 87.2074C296.211 88.0312 295.782 88.7557 295.178 89.3807C294.574 89.9986 293.828 90.4815 292.941 90.8295C292.053 91.1705 291.055 91.3409 289.947 91.3409ZM300.547 97.1364V74.6364H302.976V77.2358H303.275C303.459 76.9517 303.715 76.5895 304.042 76.1491C304.375 75.7017 304.851 75.304 305.469 74.956C306.094 74.6009 306.939 74.4233 308.005 74.4233C309.382 74.4233 310.597 74.7678 311.648 75.4567C312.699 76.1456 313.52 77.1222 314.109 78.3864C314.699 79.6506 314.993 81.142 314.993 82.8608C314.993 84.5938 314.699 86.0959 314.109 87.3672C313.52 88.6314 312.703 89.6115 311.659 90.3075C310.615 90.9964 309.411 91.3409 308.047 91.3409C306.996 91.3409 306.154 91.1669 305.522 90.8189C304.89 90.4638 304.404 90.0625 304.063 89.6151C303.722 89.1605 303.459 88.7841 303.275 88.4858H303.061V97.1364H300.547ZM303.019 82.8182C303.019 84.054 303.2 85.1442 303.562 86.0888C303.924 87.0263 304.453 87.7614 305.15 88.294C305.846 88.8196 306.698 89.0824 307.706 89.0824C308.757 89.0824 309.635 88.8054 310.338 88.2514C311.048 87.6903 311.581 86.9375 311.936 85.9929C312.298 85.0412 312.479 83.983 312.479 82.8182C312.479 81.6676 312.301 80.6307 311.946 79.7074C311.598 78.777 311.069 78.0419 310.359 77.5021C309.656 76.9553 308.772 76.6818 307.706 76.6818C306.684 76.6818 305.824 76.9411 305.128 77.4595C304.432 77.9709 303.907 78.6882 303.551 79.6115C303.196 80.5277 303.019 81.5966 303.019 82.8182ZM325.689 91.3409C324.113 91.3409 322.752 90.9929 321.609 90.2969C320.473 89.5938 319.596 88.6136 318.978 87.3565C318.367 86.0923 318.061 84.6222 318.061 82.946C318.061 81.2699 318.367 79.7926 318.978 78.5142C319.596 77.2287 320.455 76.2273 321.556 75.5099C322.664 74.7855 323.956 74.4233 325.434 74.4233C326.286 74.4233 327.127 74.5653 327.958 74.8494C328.789 75.1335 329.546 75.5952 330.228 76.2344C330.909 76.8665 331.453 77.7045 331.858 78.7486C332.262 79.7926 332.465 81.0781 332.465 82.6051V83.6705H319.851V81.4972H329.908C329.908 80.5739 329.723 79.75 329.354 79.0256C328.992 78.3011 328.473 77.7294 327.799 77.3104C327.131 76.8913 326.343 76.6818 325.434 76.6818C324.432 76.6818 323.566 76.9304 322.834 77.4276C322.11 77.9176 321.552 78.5568 321.162 79.3452C320.771 80.1335 320.576 80.9787 320.576 81.8807V83.3295C320.576 84.5653 320.789 85.6129 321.215 86.4723C321.648 87.3246 322.248 87.9744 323.015 88.4219C323.782 88.8622 324.674 89.0824 325.689 89.0824C326.35 89.0824 326.946 88.9901 327.479 88.8054C328.019 88.6136 328.484 88.3295 328.875 87.9531C329.265 87.5696 329.567 87.0937 329.78 86.5256L332.209 87.2074C331.953 88.0312 331.524 88.7557 330.92 89.3807C330.316 89.9986 329.571 90.4815 328.683 90.8295C327.795 91.1705 326.797 91.3409 325.689 91.3409ZM338.804 87.2926L346.687 74.6364H349.585V91H347.071V78.3438L339.23 91H336.289V74.6364H338.804V87.2926ZM345.025 69.1818H347.369C347.369 70.3324 346.971 71.2734 346.176 72.005C345.38 72.7365 344.301 73.1023 342.937 73.1023C341.595 73.1023 340.526 72.7365 339.73 72.005C338.942 71.2734 338.548 70.3324 338.548 69.1818H340.892C340.892 69.7358 341.044 70.2223 341.35 70.6413C341.662 71.0604 342.191 71.2699 342.937 71.2699C343.683 71.2699 344.216 71.0604 344.535 70.6413C344.862 70.2223 345.025 69.7358 345.025 69.1818ZM351.963 76.9801V74.6364H365.259V76.9801H359.889V91H357.375V76.9801H351.963ZM371.44 87.2926L379.324 74.6364H382.222V91H379.707V78.3438L371.866 91H368.926V74.6364H371.44V87.2926ZM395.264 91V74.6364H401.954C403.716 74.6364 405.115 75.0341 406.152 75.8295C407.189 76.625 407.707 77.6761 407.707 78.983C407.707 79.9773 407.412 80.7479 406.823 81.2947C406.233 81.8345 405.477 82.2003 404.554 82.392C405.157 82.4773 405.743 82.6903 406.312 83.0312C406.887 83.3722 407.363 83.8409 407.739 84.4375C408.116 85.027 408.304 85.7514 408.304 86.6108C408.304 87.4489 408.091 88.1982 407.665 88.8587C407.238 89.5192 406.628 90.0412 405.832 90.4247C405.037 90.8082 404.085 91 402.977 91H395.264ZM397.65 88.6989H402.977C403.844 88.6989 404.522 88.4929 405.012 88.081C405.502 87.669 405.747 87.108 405.747 86.3977C405.747 85.5526 405.502 84.8885 405.012 84.4055C404.522 83.9155 403.844 83.6705 402.977 83.6705H397.65V88.6989ZM397.65 81.4972H401.954C402.629 81.4972 403.208 81.4048 403.691 81.2202C404.174 81.0284 404.543 80.7585 404.799 80.4105C405.062 80.0554 405.193 79.6364 405.193 79.1534C405.193 78.4645 404.905 77.9247 404.33 77.5341C403.755 77.1364 402.963 76.9375 401.954 76.9375H397.65V81.4972ZM429.496 87.5909L435.206 74.6364H437.593L430.519 91H428.473L421.527 74.6364H423.871L429.496 87.5909ZM423.061 74.6364V91H420.547V74.6364H423.061ZM435.931 91V74.6364H438.445V91H435.931ZM447.863 91.3835C446.826 91.3835 445.885 91.1882 445.039 90.7976C444.194 90.3999 443.523 89.8281 443.026 89.0824C442.529 88.3295 442.28 87.4205 442.28 86.3551C442.28 85.4176 442.465 84.6577 442.834 84.0753C443.203 83.4858 443.697 83.0241 444.315 82.6903C444.933 82.3565 445.615 82.108 446.36 81.9446C447.113 81.7741 447.87 81.6392 448.63 81.5398C449.624 81.4119 450.43 81.3161 451.048 81.2521C451.673 81.1811 452.127 81.0639 452.412 80.9006C452.703 80.7372 452.848 80.4531 452.848 80.0483V79.9631C452.848 78.9119 452.561 78.0952 451.985 77.5128C451.417 76.9304 450.554 76.6392 449.397 76.6392C448.196 76.6392 447.255 76.902 446.574 77.4276C445.892 77.9531 445.412 78.5142 445.135 79.1108L442.749 78.2585C443.175 77.2642 443.743 76.4901 444.453 75.9361C445.171 75.375 445.952 74.9844 446.797 74.7642C447.65 74.5369 448.488 74.4233 449.311 74.4233C449.837 74.4233 450.441 74.4872 451.123 74.6151C451.811 74.7358 452.475 74.9879 453.115 75.3714C453.761 75.755 454.297 76.3338 454.723 77.108C455.15 77.8821 455.363 78.919 455.363 80.2188V91H452.848V88.7841H452.721C452.55 89.1392 452.266 89.5192 451.868 89.924C451.471 90.3288 450.941 90.6733 450.281 90.9574C449.62 91.2415 448.814 91.3835 447.863 91.3835ZM448.246 89.125C449.24 89.125 450.078 88.9297 450.76 88.5391C451.449 88.1484 451.968 87.6442 452.316 87.0263C452.671 86.4084 452.848 85.7585 452.848 85.0767V82.7756C452.742 82.9034 452.507 83.0206 452.145 83.1271C451.79 83.2266 451.378 83.3153 450.909 83.3935C450.448 83.4645 449.997 83.5284 449.556 83.5852C449.123 83.6349 448.772 83.6776 448.502 83.7131C447.848 83.7983 447.238 83.9368 446.669 84.1286C446.108 84.3132 445.654 84.5937 445.306 84.9702C444.965 85.3395 444.794 85.8437 444.794 86.483C444.794 87.3565 445.118 88.017 445.764 88.4645C446.417 88.9048 447.245 89.125 448.246 89.125ZM470.051 74.6364V76.9801H462.466V91H459.952V74.6364H470.051ZM477.687 91.3835C476.65 91.3835 475.709 91.1882 474.864 90.7976C474.018 90.3999 473.347 89.8281 472.85 89.0824C472.353 88.3295 472.104 87.4205 472.104 86.3551C472.104 85.4176 472.289 84.6577 472.658 84.0753C473.028 83.4858 473.521 83.0241 474.139 82.6903C474.757 82.3565 475.439 82.108 476.185 81.9446C476.938 81.7741 477.694 81.6392 478.454 81.5398C479.448 81.4119 480.254 81.3161 480.872 81.2521C481.497 81.1811 481.952 81.0639 482.236 80.9006C482.527 80.7372 482.673 80.4531 482.673 80.0483V79.9631C482.673 78.9119 482.385 78.0952 481.81 77.5128C481.241 76.9304 480.379 76.6392 479.221 76.6392C478.021 76.6392 477.08 76.902 476.398 77.4276C475.716 77.9531 475.237 78.5142 474.96 79.1108L472.573 78.2585C472.999 77.2642 473.567 76.4901 474.278 75.9361C474.995 75.375 475.776 74.9844 476.621 74.7642C477.474 74.5369 478.312 74.4233 479.136 74.4233C479.661 74.4233 480.265 74.4872 480.947 74.6151C481.636 74.7358 482.3 74.9879 482.939 75.3714C483.585 75.755 484.121 76.3338 484.548 77.108C484.974 77.8821 485.187 78.919 485.187 80.2188V91H482.673V88.7841H482.545C482.374 89.1392 482.09 89.5192 481.692 89.924C481.295 90.3288 480.766 90.6733 480.105 90.9574C479.445 91.2415 478.638 91.3835 477.687 91.3835ZM478.07 89.125C479.065 89.125 479.903 88.9297 480.585 88.5391C481.273 88.1484 481.792 87.6442 482.14 87.0263C482.495 86.4084 482.673 85.7585 482.673 85.0767V82.7756C482.566 82.9034 482.332 83.0206 481.969 83.1271C481.614 83.2266 481.202 83.3153 480.734 83.3935C480.272 83.4645 479.821 83.5284 479.381 83.5852C478.947 83.6349 478.596 83.6776 478.326 83.7131C477.673 83.7983 477.062 83.9368 476.494 84.1286C475.933 84.3132 475.478 84.5937 475.13 84.9702C474.789 85.3395 474.619 85.8437 474.619 86.483C474.619 87.3565 474.942 88.017 475.588 88.4645C476.241 88.9048 477.069 89.125 478.07 89.125ZM488.753 86.8239H491.438C491.494 87.5625 491.828 88.1236 492.439 88.5071C493.057 88.8906 493.86 89.0824 494.847 89.0824C495.855 89.0824 496.718 88.8764 497.436 88.4645C498.153 88.0455 498.512 87.3707 498.512 86.4403C498.512 85.8935 498.377 85.4176 498.107 85.0128C497.837 84.6009 497.457 84.2812 496.967 84.054C496.477 83.8267 495.898 83.7131 495.23 83.7131H492.418V81.4545H495.23C496.232 81.4545 496.97 81.2273 497.446 80.7727C497.929 80.3182 498.171 79.75 498.171 79.0682C498.171 78.3366 497.911 77.7507 497.393 77.3104C496.874 76.8629 496.139 76.6392 495.188 76.6392C494.229 76.6392 493.43 76.8558 492.791 77.2891C492.151 77.7152 491.814 78.2656 491.779 78.9403H489.137C489.165 78.0597 489.435 77.282 489.946 76.6072C490.458 75.9254 491.154 75.3928 492.034 75.0092C492.915 74.6186 493.923 74.4233 495.06 74.4233C496.21 74.4233 497.208 74.6257 498.053 75.0305C498.906 75.4283 499.563 75.9716 500.024 76.6605C500.493 77.3423 500.727 78.1165 500.727 78.983C500.727 79.9062 500.468 80.652 499.95 81.2202C499.431 81.7884 498.781 82.1932 498 82.4347V82.6051C498.618 82.6477 499.154 82.8466 499.609 83.2017C500.07 83.5497 500.429 84.0078 500.685 84.576C500.941 85.1371 501.068 85.7585 501.068 86.4403C501.068 87.4347 500.802 88.3011 500.269 89.0398C499.737 89.7713 499.005 90.3395 498.075 90.7443C497.144 91.142 496.083 91.3409 494.889 91.3409C493.732 91.3409 492.695 91.1527 491.779 90.7763C490.862 90.3928 490.134 89.8636 489.595 89.1889C489.062 88.5071 488.781 87.7188 488.753 86.8239ZM507.114 87.2926L514.998 74.6364H517.895V91H515.381V78.3438L507.54 91H504.6V74.6364H507.114V87.2926ZM533.452 81.6676V84.0114H524.418V81.6676H533.452ZM525.015 74.6364V91H522.5V74.6364H525.015ZM535.37 74.6364V91H532.855V74.6364H535.37ZM543.243 84.8636V84.7358C543.257 83.3793 543.399 82.2997 543.669 81.4972C543.939 80.6946 544.322 80.0447 544.819 79.5476C545.316 79.0504 545.913 78.5923 546.609 78.1733C547.028 77.9176 547.404 77.6158 547.738 77.2678C548.072 76.9126 548.335 76.5043 548.527 76.0426C548.725 75.581 548.825 75.0696 548.825 74.5085C548.825 73.8125 548.662 73.2088 548.335 72.6974C548.008 72.1861 547.571 71.7919 547.025 71.5149C546.478 71.2379 545.87 71.0994 545.203 71.0994C544.62 71.0994 544.059 71.2202 543.52 71.4616C542.98 71.7031 542.529 72.0831 542.167 72.6016C541.804 73.12 541.595 73.7983 541.538 74.6364H538.853C538.91 73.429 539.223 72.3956 539.791 71.5362C540.366 70.6768 541.123 70.0199 542.06 69.5653C543.005 69.1108 544.052 68.8835 545.203 68.8835C546.453 68.8835 547.539 69.1321 548.463 69.6293C549.393 70.1264 550.11 70.8082 550.615 71.6747C551.126 72.5412 551.382 73.5284 551.382 74.6364C551.382 75.4176 551.261 76.1243 551.02 76.7564C550.785 77.3885 550.444 77.9531 549.997 78.4503C549.556 78.9474 549.024 79.3878 548.399 79.7713C547.774 80.1619 547.273 80.5739 546.897 81.0071C546.52 81.4332 546.247 81.9411 546.076 82.5305C545.906 83.12 545.814 83.8551 545.799 84.7358V84.8636H543.243ZM544.606 91.1705C544.081 91.1705 543.63 90.9822 543.253 90.6058C542.877 90.2294 542.689 89.7784 542.689 89.2528C542.689 88.7273 542.877 88.2763 543.253 87.8999C543.63 87.5234 544.081 87.3352 544.606 87.3352C545.132 87.3352 545.583 87.5234 545.959 87.8999C546.336 88.2763 546.524 88.7273 546.524 89.2528C546.524 89.6009 546.435 89.9205 546.257 90.2116C546.087 90.5028 545.856 90.7372 545.565 90.9148C545.281 91.0852 544.961 91.1705 544.606 91.1705Z" fill="black"/>
<rect x="54.5" y="0.5" width="699" height="39" fill="#0859D2" stroke="black"/>
<path d="M294.628 32V13.8182H300.985C302.252 13.8182 303.296 14.0372 304.119 14.4751C304.942 14.9072 305.554 15.4902 305.957 16.2241C306.359 16.9521 306.56 17.7599 306.56 18.6477C306.56 19.429 306.421 20.0741 306.143 20.5831C305.871 21.0921 305.51 21.4946 305.06 21.7905C304.616 22.0864 304.134 22.3054 303.613 22.4474V22.625C304.169 22.6605 304.728 22.8558 305.291 23.2109C305.853 23.5661 306.324 24.075 306.702 24.7379C307.081 25.4008 307.271 26.2116 307.271 27.1705C307.271 28.0819 307.063 28.9016 306.649 29.6296C306.235 30.3576 305.581 30.9347 304.687 31.3608C303.793 31.7869 302.63 32 301.198 32H294.628ZM296.83 30.0469H301.198C302.636 30.0469 303.657 29.7687 304.261 29.2124C304.871 28.6501 305.175 27.9695 305.175 27.1705C305.175 26.5549 305.018 25.9867 304.705 25.4659C304.391 24.9392 303.944 24.5189 303.364 24.2053C302.784 23.8857 302.098 23.7259 301.305 23.7259H296.83V30.0469ZM296.83 21.8082H300.914C301.577 21.8082 302.175 21.678 302.707 21.4176C303.246 21.1572 303.672 20.7902 303.986 20.3168C304.305 19.8433 304.465 19.2869 304.465 18.6477C304.465 17.8487 304.187 17.171 303.631 16.6147C303.074 16.0524 302.192 15.7713 300.985 15.7713H296.83V21.8082ZM310.604 32V18.3636H312.699V32H310.604ZM311.669 16.0909C311.261 16.0909 310.909 15.9518 310.613 15.6737C310.323 15.3955 310.178 15.0611 310.178 14.6705C310.178 14.2798 310.323 13.9454 310.613 13.6673C310.909 13.3891 311.261 13.25 311.669 13.25C312.078 13.25 312.427 13.3891 312.717 13.6673C313.013 13.9454 313.161 14.2798 313.161 14.6705C313.161 15.0611 313.013 15.3955 312.717 15.6737C312.427 15.9518 312.078 16.0909 311.669 16.0909ZM315.081 35.9062V30.0469H316.217C316.495 29.7569 316.735 29.4432 316.936 29.1058C317.137 28.7685 317.312 28.369 317.46 27.9073C317.614 27.4397 317.744 26.8716 317.851 26.2028C317.957 25.5281 318.052 24.7143 318.135 23.7614L318.596 18.3636H327.261V30.0469H329.356V35.9062H327.261V32H317.176V35.9062H315.081ZM318.596 30.0469H325.166V20.3168H320.55L320.194 23.7614C320.046 25.1877 319.863 26.4336 319.644 27.4989C319.425 28.5643 319.076 29.4136 318.596 30.0469ZM337.677 32.2841C336.399 32.2841 335.298 31.9822 334.375 31.3786C333.451 30.7749 332.741 29.9433 332.244 28.8839C331.747 27.8245 331.498 26.6141 331.498 25.2528C331.498 23.8679 331.753 22.6457 332.262 21.5863C332.777 20.521 333.493 19.6894 334.41 19.0916C335.333 18.4879 336.411 18.1861 337.642 18.1861C338.6 18.1861 339.465 18.3636 340.234 18.7188C341.003 19.0739 341.634 19.571 342.125 20.2102C342.616 20.8494 342.921 21.5952 343.039 22.4474H340.944C340.784 21.826 340.429 21.2756 339.879 20.7962C339.334 20.3108 338.6 20.0682 337.677 20.0682C336.86 20.0682 336.144 20.2812 335.529 20.7074C334.919 21.1276 334.443 21.7224 334.099 22.4918C333.762 23.2553 333.593 24.152 333.593 25.1818C333.593 26.2353 333.759 27.1527 334.09 27.9339C334.428 28.7152 334.901 29.3219 335.511 29.7539C336.126 30.186 336.849 30.402 337.677 30.402C338.222 30.402 338.716 30.3073 339.16 30.1179C339.604 29.9285 339.979 29.6562 340.287 29.3011C340.595 28.946 340.814 28.5199 340.944 28.0227H343.039C342.921 28.8277 342.628 29.5527 342.16 30.1978C341.699 30.837 341.086 31.346 340.323 31.7248C339.565 32.0977 338.683 32.2841 337.677 32.2841ZM347.452 37.1136C347.097 37.1136 346.78 37.084 346.502 37.0249C346.224 36.9716 346.031 36.9183 345.925 36.8651L346.457 35.0185C346.966 35.1487 347.416 35.196 347.807 35.1605C348.197 35.125 348.544 34.9504 348.845 34.6367C349.153 34.329 349.434 33.8288 349.689 33.1364L350.079 32.071L345.037 18.3636H347.31L351.074 29.2301H351.216L354.98 18.3636H357.253L351.464 33.9886C351.204 34.6929 350.881 35.2759 350.497 35.7376C350.112 36.2051 349.665 36.5514 349.156 36.7763C348.653 37.0012 348.085 37.1136 347.452 37.1136ZM359.237 20.3168V18.3636H370.316V20.3168H365.842V32H363.747V20.3168H359.237ZM382.499 24.223V26.1761H374.971V24.223H382.499ZM375.468 18.3636V32H373.373V18.3636H375.468ZM384.097 18.3636V32H382.002V18.3636H384.097ZM396.127 32V20.2812H392.504C391.688 20.2812 391.046 20.4706 390.578 20.8494C390.11 21.2282 389.877 21.7491 389.877 22.4119C389.877 23.063 390.087 23.5749 390.507 23.9478C390.933 24.3207 391.516 24.5071 392.256 24.5071H396.659V26.4602H392.256C391.333 26.4602 390.537 26.2975 389.868 25.9719C389.199 25.6464 388.684 25.1818 388.323 24.5781C387.962 23.9685 387.781 23.2464 387.781 22.4119C387.781 21.5715 387.971 20.8494 388.35 20.2457C388.728 19.642 389.27 19.1774 389.974 18.8519C390.684 18.5264 391.528 18.3636 392.504 18.3636H398.115V32H396.127ZM387.036 32L390.906 25.2173H393.179L389.308 32H387.036ZM407.785 32V30.0469H408.283C408.691 30.0469 409.031 29.967 409.304 29.8072C409.576 29.6415 409.795 29.3544 409.96 28.946C410.132 28.5317 410.262 27.9576 410.351 27.2237C410.446 26.4839 410.514 25.5429 410.555 24.4006L410.804 18.3636H419.895V32H417.8V20.3168H412.793L412.579 25.1818C412.532 26.3004 412.431 27.2859 412.278 28.1381C412.13 28.9845 411.902 29.6947 411.594 30.2688C411.292 30.8429 410.89 31.275 410.387 31.565C409.884 31.855 409.253 32 408.496 32H407.785ZM423.739 32V18.3636H425.834V32H423.739ZM424.804 16.0909C424.396 16.0909 424.044 15.9518 423.748 15.6737C423.458 15.3955 423.313 15.0611 423.313 14.6705C423.313 14.2798 423.458 13.9454 423.748 13.6673C424.044 13.3891 424.396 13.25 424.804 13.25C425.213 13.25 425.562 13.3891 425.852 13.6673C426.148 13.9454 426.296 14.2798 426.296 14.6705C426.296 15.0611 426.148 15.3955 425.852 15.6737C425.562 15.9518 425.213 16.0909 424.804 16.0909ZM440.396 18.3636V30.0469H442.314V36.4034H440.218V32H429.672V18.3636H431.767V30.0469H438.301V18.3636H440.396ZM451.112 32.2841C449.798 32.2841 448.664 31.9941 447.711 31.4141C446.764 30.8281 446.033 30.0114 445.518 28.9638C445.009 27.9103 444.755 26.6851 444.755 25.2884C444.755 23.8916 445.009 22.6605 445.518 21.5952C446.033 20.5239 446.75 19.6894 447.667 19.0916C448.59 18.4879 449.667 18.1861 450.898 18.1861C451.609 18.1861 452.31 18.3045 453.002 18.5412C453.695 18.7779 454.325 19.1626 454.893 19.6953C455.462 20.2221 455.914 20.9205 456.252 21.7905C456.589 22.6605 456.758 23.7318 456.758 25.0043V25.892H446.246V24.081H454.627C454.627 23.3116 454.473 22.625 454.165 22.0213C453.864 21.4176 453.432 20.9412 452.869 20.592C452.313 20.2428 451.656 20.0682 450.898 20.0682C450.064 20.0682 449.342 20.2753 448.732 20.6896C448.129 21.098 447.664 21.6307 447.338 22.2876C447.013 22.9446 446.85 23.6489 446.85 24.4006V25.608C446.85 26.6378 447.028 27.5108 447.383 28.2269C447.744 28.9371 448.244 29.4787 448.883 29.8516C449.522 30.2185 450.265 30.402 451.112 30.402C451.662 30.402 452.159 30.325 452.603 30.1712C453.053 30.0114 453.44 29.7746 453.766 29.4609C454.092 29.1413 454.343 28.7448 454.521 28.2713L456.545 28.8395C456.332 29.526 455.974 30.1297 455.471 30.6506C454.967 31.1655 454.346 31.5679 453.606 31.858C452.866 32.142 452.035 32.2841 451.112 32.2841ZM469.071 24.223V26.1761H461.543V24.223H469.071ZM462.04 18.3636V32H459.945V18.3636H462.04ZM470.669 18.3636V32H468.574V18.3636H470.669ZM473.643 28.5199H475.881C475.928 29.1354 476.206 29.603 476.715 29.9226C477.23 30.2422 477.899 30.402 478.722 30.402C479.562 30.402 480.281 30.2304 480.879 29.8871C481.477 29.5379 481.776 28.9756 481.776 28.2003C481.776 27.7446 481.663 27.348 481.438 27.0107C481.213 26.6674 480.897 26.401 480.488 26.2116C480.08 26.0223 479.598 25.9276 479.041 25.9276H476.697V24.0455H479.041C479.876 24.0455 480.491 23.8561 480.888 23.4773C481.29 23.0985 481.491 22.625 481.491 22.0568C481.491 21.4472 481.275 20.9589 480.843 20.592C480.411 20.2191 479.799 20.0327 479.006 20.0327C478.207 20.0327 477.541 20.2132 477.008 20.5742C476.475 20.9293 476.194 21.388 476.165 21.9503H473.963C473.987 21.2164 474.212 20.5683 474.638 20.006C475.064 19.4379 475.644 18.994 476.378 18.6744C477.112 18.3488 477.952 18.1861 478.899 18.1861C479.858 18.1861 480.69 18.3548 481.394 18.6921C482.104 19.0236 482.652 19.4763 483.036 20.0504C483.427 20.6186 483.622 21.2637 483.622 21.9858C483.622 22.7552 483.406 23.3767 482.974 23.8501C482.542 24.3236 482 24.661 481.349 24.8622V25.0043C481.864 25.0398 482.311 25.2055 482.69 25.5014C483.075 25.7914 483.374 26.1732 483.587 26.6467C483.8 27.1142 483.906 27.6321 483.906 28.2003C483.906 29.0289 483.684 29.7509 483.24 30.3665C482.797 30.9761 482.187 31.4496 481.412 31.7869C480.636 32.1184 479.751 32.2841 478.757 32.2841C477.792 32.2841 476.928 32.1272 476.165 31.8136C475.401 31.494 474.795 31.053 474.345 30.4908C473.901 29.9226 473.667 29.2656 473.643 28.5199ZM486.849 32V18.3636H488.944V32H486.849ZM487.915 16.0909C487.506 16.0909 487.154 15.9518 486.858 15.6737C486.568 15.3955 486.423 15.0611 486.423 14.6705C486.423 14.2798 486.568 13.9454 486.858 13.6673C487.154 13.3891 487.506 13.25 487.915 13.25C488.323 13.25 488.672 13.3891 488.962 13.6673C489.258 13.9454 489.406 14.2798 489.406 14.6705C489.406 15.0611 489.258 15.3955 488.962 15.6737C488.672 15.9518 488.323 16.0909 487.915 16.0909ZM500.985 32V20.2812H497.363C496.546 20.2812 495.904 20.4706 495.436 20.8494C494.969 21.2282 494.735 21.7491 494.735 22.4119C494.735 23.063 494.945 23.5749 495.365 23.9478C495.791 24.3207 496.374 24.5071 497.114 24.5071H501.518V26.4602H497.114C496.191 26.4602 495.395 26.2975 494.726 25.9719C494.057 25.6464 493.542 25.1818 493.181 24.5781C492.82 23.9685 492.64 23.2464 492.64 22.4119C492.64 21.5715 492.829 20.8494 493.208 20.2457C493.587 19.642 494.128 19.1774 494.833 18.8519C495.543 18.5264 496.386 18.3636 497.363 18.3636H502.974V32H500.985ZM491.894 32L495.765 25.2173H498.038L494.167 32H491.894ZM509.554 26.8864V26.7798C509.566 25.6494 509.685 24.7498 509.909 24.081C510.134 23.4122 510.454 22.8706 510.868 22.4563C511.283 22.042 511.78 21.6603 512.36 21.3111C512.709 21.098 513.023 20.8465 513.301 20.5565C513.579 20.2605 513.798 19.9202 513.958 19.5355C514.123 19.1508 514.206 18.7247 514.206 18.2571C514.206 17.6771 514.07 17.174 513.798 16.7479C513.526 16.3217 513.162 15.9933 512.706 15.7624C512.25 15.5316 511.744 15.4162 511.188 15.4162C510.703 15.4162 510.235 15.5168 509.785 15.718C509.335 15.9193 508.96 16.2359 508.658 16.668C508.356 17.1 508.181 17.6652 508.134 18.3636H505.897C505.944 17.3575 506.204 16.4963 506.678 15.7802C507.157 15.064 507.788 14.5166 508.569 14.1378C509.356 13.759 510.229 13.5696 511.188 13.5696C512.23 13.5696 513.135 13.7768 513.904 14.1911C514.68 14.6054 515.278 15.1735 515.698 15.8956C516.124 16.6177 516.337 17.4403 516.337 18.3636C516.337 19.0147 516.236 19.6036 516.035 20.1303C515.84 20.6571 515.556 21.1276 515.183 21.5419C514.816 21.9562 514.372 22.3232 513.851 22.6428C513.33 22.9683 512.913 23.3116 512.599 23.6726C512.286 24.0277 512.058 24.4509 511.916 24.9421C511.774 25.4334 511.697 26.0459 511.685 26.7798V26.8864H509.554ZM510.691 32.142C510.253 32.142 509.877 31.9852 509.563 31.6715C509.25 31.3578 509.093 30.982 509.093 30.544C509.093 30.1061 509.25 29.7302 509.563 29.4165C509.877 29.1029 510.253 28.946 510.691 28.946C511.129 28.946 511.504 29.1029 511.818 29.4165C512.132 29.7302 512.289 30.1061 512.289 30.544C512.289 30.834 512.215 31.1004 512.067 31.343C511.925 31.5857 511.732 31.781 511.49 31.929C511.253 32.071 510.987 32.142 510.691 32.142Z" fill="black"/>
</g>
<defs>
<filter id="filter0_d_1_103" x="0" y="0" width="808" height="128" filterUnits="userSpaceOnUse" color-interpolation-filters="sRGB">
<feFlood flood-opacity="0" result="BackgroundImageFix"/>
<feColorMatrix in="SourceAlpha" type="matrix" values="0 0 0 0 0 0 0 0 0 0 0 0 0 0 0 0 0 0 127 0" result="hardAlpha"/>
<feOffset dy="4"/>
<feGaussianBlur stdDeviation="2"/>
<feComposite in2="hardAlpha" operator="out"/>
<feColorMatrix type="matrix" values="0 0 0 0 0 0 0 0 0 0 0 0 0 0 0 0 0 0 0.25 0"/>
<feBlend mode="normal" in2="BackgroundImageFix" result="effect1_dropShadow_1_103"/>
<feBlend mode="normal" in="SourceGraphic" in2="effect1_dropShadow_1_103" result="shape"/>
</filter>
</defs>
</svg>
