<svg width="300" height="300" viewBox="0 0 300 300" fill="none" xmlns="http://www.w3.org/2000/svg">
<g clip-path="url(#clip0_1_93)">
<rect width="300" height="300" fill="#2D2A2A"/>
<path d="M250 203.075C250 199.382 249.272 195.725 247.859 192.314C246.445 188.902 244.373 185.803 241.762 183.192C239.15 180.581 236.049 178.511 232.637 177.099C229.225 175.687 225.568 174.961 221.875 174.962H78.125C74.4311 174.961 70.7731 175.687 67.3601 177.1C63.9471 178.513 60.8459 180.584 58.234 183.196C55.622 185.808 53.5504 188.909 52.1375 192.322C50.7247 195.736 49.9984 199.394 50 203.087V214.587C50 221.725 52.225 228.7 56.375 234.525C75.6625 261.575 107.188 274.975 149.95 274.975C192.7 274.975 224.263 261.587 243.575 234.537C247.744 228.715 249.99 221.736 250 214.575V203.075ZM212.463 87.5249C212.464 74.3619 208.31 61.5343 200.592 50.8713C192.874 40.2083 181.986 32.2543 169.482 28.1433C156.977 24.0324 143.494 23.9744 130.954 27.9777C118.415 31.981 107.459 39.8412 99.65 50.4374C98.7442 50.1505 97.8001 50.003 96.85 49.9999H65.625C63.1386 49.9999 60.754 50.9876 58.9959 52.7458C57.2377 54.5039 56.25 56.8885 56.25 59.3749V128.1C56.2467 132.616 57.1334 137.089 58.8595 141.262C60.5855 145.436 63.117 149.228 66.3094 152.423C69.5017 155.618 73.2923 158.152 77.4645 159.881C81.6367 161.61 86.1087 162.5 90.625 162.5H93.75V162.45H93.875C95.9928 162.453 98.0766 161.917 99.93 160.893C101.783 159.868 103.346 158.388 104.469 156.593C105.593 154.798 106.241 152.746 106.352 150.631C106.464 148.517 106.035 146.408 105.106 144.505C104.177 142.601 102.78 140.966 101.044 139.752C99.3086 138.538 97.2927 137.786 95.1863 137.567C93.0799 137.348 90.9523 137.668 89.004 138.498C87.0557 139.329 85.3508 140.641 84.05 142.312C81.3431 141.057 79.0523 139.052 77.4485 136.536C75.8448 134.019 74.9951 131.096 75 128.112V125H84.35C89.1 125 93.5125 123.475 97.1 120.9C104.33 132.362 115.089 141.164 127.757 145.978C140.425 150.793 154.314 151.36 167.332 147.594C180.35 143.828 191.791 135.933 199.931 125.098C208.071 114.264 212.469 101.077 212.463 87.5249ZM87.4625 86.1999C87.4442 87.0832 87.4442 87.9667 87.4625 88.8499V103.112C87.4625 103.941 87.1333 104.736 86.5472 105.322C85.9612 105.908 85.1663 106.237 84.3375 106.237H75V68.7624H87.475L87.4625 86.1999Z" fill="white"/>
</g>
<defs>
<clipPath id="clip0_1_93">
<rect width="300" height="300" fill="white"/>
</clipPath>
</defs>
</svg>
