<svg width="60" height="55" viewBox="0 0 60 55" fill="none" xmlns="http://www.w3.org/2000/svg">
<path d="M37 11.5321L53.7525 39.4346C56.16 43.4421 54.9775 48.7146 51.11 51.2096C49.812 52.0501 48.2989 52.4981 46.7525 52.4996H13.245C8.6925 52.4996 5 48.6746 5 43.9521C5 42.3546 5.4325 40.7921 6.245 39.4346L23 11.5321C25.405 7.52465 30.49 6.29715 34.3575 8.79215C35.4275 9.48215 36.3325 10.4196 37 11.5321ZM31.45 13.6296C31.1439 13.4328 30.8012 13.3 30.4424 13.2393C30.0835 13.1787 29.7162 13.1914 29.3624 13.2766C29.0086 13.3619 28.6758 13.518 28.3841 13.7356C28.0924 13.9531 27.8477 14.2274 27.665 14.5421L10.9125 42.4496C10.6404 42.9044 10.4969 43.4246 10.4975 43.9546C10.4975 45.5296 11.7275 46.8046 13.2475 46.8046H46.75C47.265 46.8046 47.7675 46.6546 48.2025 46.3746C48.8267 45.9599 49.2668 45.3204 49.4312 44.5892C49.5956 43.858 49.4716 43.0916 49.085 42.4496L32.3325 14.5421C32.1128 14.1747 31.8117 13.8625 31.4525 13.6296H31.45ZM30 42.4996C29.337 42.4996 28.7011 42.2363 28.2322 41.7674C27.7634 41.2986 27.5 40.6627 27.5 39.9996C27.5 39.3366 27.7634 38.7007 28.2322 38.2319C28.7011 37.763 29.337 37.4996 30 37.4996C30.663 37.4996 31.2989 37.763 31.7678 38.2319C32.2366 38.7007 32.5 39.3366 32.5 39.9996C32.5 40.6627 32.2366 41.2986 31.7678 41.7674C31.2989 42.2363 30.663 42.4996 30 42.4996ZM30 19.9996C30.663 19.9996 31.2989 20.263 31.7678 20.7319C32.2366 21.2007 32.5 21.8366 32.5 22.4996V32.4996C32.5 33.1627 32.2366 33.7986 31.7678 34.2674C31.2989 34.7363 30.663 34.9996 30 34.9996C29.337 34.9996 28.7011 34.7363 28.2322 34.2674C27.7634 33.7986 27.5 33.1627 27.5 32.4996V22.4996C27.5 21.8366 27.7634 21.2007 28.2322 20.7319C28.7011 20.263 29.337 19.9996 30 19.9996Z" fill="black"/>
</svg>
