<svg width="40" height="40" viewBox="0 0 40 40" fill="none" xmlns="http://www.w3.org/2000/svg">
<g clip-path="url(#clip0_1_414)">
<mask id="path-1-inside-1_1_414" fill="white">
<path d="M20.687 12.7362C20.6642 18.2861 22.2906 21.383 23.5158 23.2244C24.7745 25.1136 25.1973 26.3251 25.1923 28.0148C25.183 30.6003 24.1883 31.7415 23.2575 31.7859C21.6336 31.8635 20.6894 30.4336 19.9388 29.3521L19.3538 37.795C20.1069 38.8654 21.5014 39.7989 22.9475 39.8398C26.342 39.8398 28.5628 34.6717 28.5748 26.6586C28.5881 16.489 24.0142 15.9261 24.0455 11.3806C24.0563 10.0023 24.4827 8.53141 25.417 8.15743C25.8795 7.96852 27.1562 7.82394 28.6037 9.87984L29.1719 1.71117C28.3934 0.836952 27.393 -0.000156403 26.1473 -0.000156403C22.9523 -0.000156403 20.7052 5.2384 20.687 12.7362ZM34.6309 0.703457C34.0111 0.703457 33.4888 1.81864 33.2556 3.52996L28.4067 39.2398H31.7987L32.4738 33.4861H36.6188L37.0103 39.2398H40L37.3911 0.703457H34.6309ZM35.1055 11.1136L36.0844 25.5844H33.4034L35.1055 11.1136ZM16.5744 0.703938L13.9006 39.2394H17.133L19.8055 0.702976H16.5744M11.7927 0.702976L8.42828 26.9329L7.06734 4.63069C6.90766 2.14105 6.27703 0.703457 5.57672 0.703457H0.0770312L0 1.82249C1.12906 2.57816 2.41188 3.79695 3.18906 5.10105C3.66469 5.89767 3.80031 6.59406 3.95656 8.48707L6.53422 39.2398H9.95L15.1869 0.703457L11.7927 0.702976Z"/>
</mask>
<path d="M20.687 12.7362C20.6642 18.2861 22.2906 21.383 23.5158 23.2244C24.7745 25.1136 25.1973 26.3251 25.1923 28.0148C25.183 30.6003 24.1883 31.7415 23.2575 31.7859C21.6336 31.8635 20.6894 30.4336 19.9388 29.3521L19.3538 37.795C20.1069 38.8654 21.5014 39.7989 22.9475 39.8398C26.342 39.8398 28.5628 34.6717 28.5748 26.6586C28.5881 16.489 24.0142 15.9261 24.0455 11.3806C24.0563 10.0023 24.4827 8.53141 25.417 8.15743C25.8795 7.96852 27.1562 7.82394 28.6037 9.87984L29.1719 1.71117C28.3934 0.836952 27.393 -0.000156403 26.1473 -0.000156403C22.9523 -0.000156403 20.7052 5.2384 20.687 12.7362ZM34.6309 0.703457C34.0111 0.703457 33.4888 1.81864 33.2556 3.52996L28.4067 39.2398H31.7987L32.4738 33.4861H36.6188L37.0103 39.2398H40L37.3911 0.703457H34.6309ZM35.1055 11.1136L36.0844 25.5844H33.4034L35.1055 11.1136ZM16.5744 0.703938L13.9006 39.2394H17.133L19.8055 0.702976H16.5744M11.7927 0.702976L8.42828 26.9329L7.06734 4.63069C6.90766 2.14105 6.27703 0.703457 5.57672 0.703457H0.0770312L0 1.82249C1.12906 2.57816 2.41188 3.79695 3.18906 5.10105C3.66469 5.89767 3.80031 6.59406 3.95656 8.48707L6.53422 39.2398H9.95L15.1869 0.703457L11.7927 0.702976Z" fill="url(#paint0_linear_1_414)"/>
<path d="M20.687 12.7362L21.687 12.7386L21.687 12.7403L20.687 12.7362ZM23.5158 23.2244L22.6836 23.7789L22.6832 23.7783L23.5158 23.2244ZM25.1923 28.0148L26.1923 28.0177L26.1923 28.0184L25.1923 28.0148ZM23.2575 31.7859L23.2098 30.787L23.2099 30.787L23.2575 31.7859ZM19.9388 29.3521L18.9411 29.283L19.1378 26.4445L20.7603 28.7819L19.9388 29.3521ZM19.3538 37.795L18.5359 38.3705L18.3316 38.0801L18.3561 37.7259L19.3538 37.795ZM22.9475 39.8398V40.8398H22.9333L22.9192 40.8394L22.9475 39.8398ZM28.5748 26.6586L29.5748 26.6599V26.6601L28.5748 26.6586ZM24.0455 11.3806L23.0455 11.3737L23.0455 11.3727L24.0455 11.3806ZM25.417 8.15743L25.7952 9.08321L25.7886 9.08583L25.417 8.15743ZM28.6037 9.87984L29.6013 9.94922L29.4061 12.7565L27.7861 10.4555L28.6037 9.87984ZM29.1719 1.71117L29.9187 1.04616L30.1987 1.36057L30.1695 1.78055L29.1719 1.71117ZM33.2556 3.52996L32.2647 3.39541L32.2648 3.39499L33.2556 3.52996ZM28.4067 39.2398V40.2398H27.2618L27.4158 39.1053L28.4067 39.2398ZM31.7987 39.2398L32.7919 39.3564L32.6883 40.2398H31.7987V39.2398ZM32.4738 33.4861L31.4806 33.3696L31.5842 32.4861H32.4738V33.4861ZM36.6188 33.4861V32.4861H37.553L37.6164 33.4182L36.6188 33.4861ZM37.0103 39.2398V40.2398H36.0761L36.0126 39.3077L37.0103 39.2398ZM40 39.2398L40.9977 39.1723L41.07 40.2398H40V39.2398ZM37.3911 0.703457V-0.296543H38.3257L38.3888 0.63591L37.3911 0.703457ZM35.1055 11.1136L34.1123 10.9968L36.1032 11.0461L35.1055 11.1136ZM36.0844 25.5844L37.0821 25.5169L37.1543 26.5844H36.0844V25.5844ZM33.4034 25.5844V26.5844H32.2789L32.4103 25.4676L33.4034 25.5844ZM13.9006 39.2394V40.2394H12.8288L12.903 39.1701L13.9006 39.2394ZM17.133 39.2394L18.1306 39.3085L18.066 40.2394H17.133V39.2394ZM19.8055 0.702976V-0.297024H20.8772L20.8031 0.77216L19.8055 0.702976ZM11.7927 0.702976L10.8008 0.575752L10.9127 -0.29715L11.7928 -0.297024L11.7927 0.702976ZM8.42828 26.9329L9.42016 27.0601L7.43014 26.9938L8.42828 26.9329ZM7.06734 4.63069L8.0653 4.56668L8.06549 4.56978L7.06734 4.63069ZM0.0770312 0.703457L-0.920608 0.634781L-0.856498 -0.296543H0.0770312V0.703457ZM0 1.82249L-0.556205 2.65354L-1.0374 2.33148L-0.997639 1.75382L0 1.82249ZM3.18906 5.10105L2.33045 5.61368L2.33004 5.61299L3.18906 5.10105ZM3.95656 8.48707L2.96006 8.5706L2.95995 8.56933L3.95656 8.48707ZM6.53422 39.2398V40.2398H5.61453L5.53771 39.3234L6.53422 39.2398ZM9.95 39.2398L10.9409 39.3745L10.8233 40.2398H9.95V39.2398ZM15.1869 0.703457L15.187 -0.296543L16.3319 -0.296379L16.1778 0.838112L15.1869 0.703457ZM21.687 12.7403C21.6652 18.0578 23.2127 20.9636 24.3483 22.6705L22.6832 23.7783C21.3685 21.8023 19.6633 18.5144 19.687 12.7321L21.687 12.7403ZM24.348 22.6699C25.6802 24.6693 26.1981 26.0728 26.1923 28.0177L24.1923 28.0118C24.1966 26.5775 23.8689 25.5578 22.6836 23.7789L24.348 22.6699ZM26.1923 28.0184C26.1872 29.4259 25.9154 30.5504 25.4293 31.3655C24.9406 32.1849 24.1913 32.7425 23.3051 32.7847L23.2099 30.787C23.2545 30.7849 23.4679 30.7497 23.7116 30.3411C23.9579 29.9281 24.1881 29.1892 24.1924 28.0112L26.1923 28.0184ZM23.3052 32.7847C22.1504 32.8399 21.2611 32.3446 20.5991 31.7446C19.964 31.169 19.4729 30.4347 19.1172 29.9223L20.7603 28.7819C21.1552 29.351 21.5116 29.8724 21.9422 30.2627C22.3459 30.6286 22.7406 30.8094 23.2098 30.787L23.3052 32.7847ZM20.9364 29.4213L20.3514 37.8641L18.3561 37.7259L18.9411 29.283L20.9364 29.4213ZM20.1716 37.2196C20.7838 38.0896 21.9095 38.81 22.9758 38.8402L22.9192 40.8394C21.0933 40.7877 19.43 39.6411 18.5359 38.3705L20.1716 37.2196ZM22.9475 38.8398C24.0409 38.8398 25.187 38.0194 26.1102 35.8609C27.0185 33.7372 27.5689 30.5905 27.5748 26.6571L29.5748 26.6601C29.5687 30.7398 29.0028 34.1837 27.949 36.6474C26.9102 39.0762 25.2486 40.8398 22.9475 40.8398V38.8398ZM27.5748 26.6573C27.5812 21.7583 26.4923 19.2463 25.4364 17.4088C24.4037 15.6118 23.0275 13.998 23.0455 11.3737L25.0454 11.3874C25.0322 13.3087 25.9273 14.2491 27.1705 16.4123C28.3903 18.5351 29.5817 21.3893 29.5748 26.6599L27.5748 26.6573ZM23.0455 11.3727C23.0516 10.5958 23.1734 9.75946 23.4511 9.03468C23.7191 8.335 24.2025 7.56643 25.0454 7.22903L25.7886 9.08583C25.6972 9.12242 25.5002 9.27625 25.3187 9.75007C25.1469 10.1988 25.0501 10.787 25.0454 11.3884L23.0455 11.3727ZM25.0389 7.23169C25.4776 7.05249 26.166 6.94826 26.9743 7.23401C27.7787 7.51835 28.6135 8.15667 29.4214 9.30415L27.7861 10.4555C27.1465 9.54712 26.6192 9.22977 26.3077 9.11966C26.0002 9.01095 25.819 9.07346 25.7952 9.08318L25.0389 7.23169ZM27.6062 9.81046L28.1743 1.64179L30.1695 1.78055L29.6013 9.94922L27.6062 9.81046ZM28.425 2.37618C27.676 1.53498 26.9328 0.999844 26.1473 0.999844V-1.00016C27.8531 -1.00016 29.1109 0.13892 29.9187 1.04616L28.425 2.37618ZM26.1473 0.999844C25.1752 0.999844 24.0644 1.80603 23.1449 3.95044C22.2518 6.03341 21.6959 9.07254 21.687 12.7386L19.687 12.7338C19.6963 8.90208 20.2731 5.57302 21.3068 3.16226C22.3142 0.812931 23.9245 -1.00016 26.1473 -1.00016V0.999844ZM34.6309 1.70346C34.7994 1.70346 34.8836 1.62237 34.872 1.63334C34.8531 1.65102 34.787 1.72654 34.6993 1.90874C34.5248 2.27113 34.3556 2.86406 34.2465 3.66494L32.2648 3.39499C32.3888 2.48454 32.5973 1.66422 32.8972 1.04118C33.0467 0.730675 33.242 0.420448 33.5027 0.175545C33.7706 -0.0760574 34.1526 -0.296543 34.6309 -0.296543V1.70346ZM34.2465 3.66451L29.3976 39.3744L27.4158 39.1053L32.2647 3.39541L34.2465 3.66451ZM28.4067 38.2398H31.7987V40.2398H28.4067V38.2398ZM30.8056 39.1233L31.4806 33.3696L33.4669 33.6026L32.7919 39.3564L30.8056 39.1233ZM32.4738 32.4861H36.6188V34.4861H32.4738V32.4861ZM37.6164 33.4182L38.008 39.1719L36.0126 39.3077L35.6211 33.554L37.6164 33.4182ZM37.0103 38.2398H40V40.2398H37.0103V38.2398ZM39.0023 39.3074L36.3934 0.771004L38.3888 0.63591L40.9977 39.1723L39.0023 39.3074ZM37.3911 1.70346H34.6309V-0.296543H37.3911V1.70346ZM36.1032 11.0461L37.0821 25.5169L35.0867 25.6519L34.1077 11.1811L36.1032 11.0461ZM36.0844 26.5844H33.4034V24.5844H36.0844V26.5844ZM32.4103 25.4676L34.1123 10.9968L36.0986 11.2304L34.3966 25.7012L32.4103 25.4676ZM17.572 0.773155L14.8982 39.3086L12.903 39.1701L15.5768 0.63472L17.572 0.773155ZM13.9006 38.2394H17.133V40.2394H13.9006V38.2394ZM16.1354 39.1702L18.8079 0.633793L20.8031 0.77216L18.1306 39.3085L16.1354 39.1702ZM19.8055 1.70298H16.5744V-0.297024H19.8055V1.70298ZM12.7845 0.830196L9.42016 27.0601L7.43641 26.8056L10.8008 0.575752L12.7845 0.830196ZM7.43014 26.9938L6.0692 4.6916L8.06549 4.56978L9.42642 26.8719L7.43014 26.9938ZM6.06939 4.6947C5.99321 3.50697 5.80743 2.63887 5.59482 2.10116C5.48738 1.82944 5.3936 1.69493 5.34735 1.64476C5.30403 1.59776 5.38089 1.70346 5.57672 1.70346V-0.296543C6.1227 -0.296543 6.54101 -0.0111504 6.81788 0.2892C7.09183 0.586376 7.29699 0.966873 7.45471 1.36576C7.77241 2.16925 7.98179 3.26477 8.06529 4.56668L6.06939 4.6947ZM5.57672 1.70346H0.0770312V-0.296543H5.57672V1.70346ZM1.07467 0.772133L0.997639 1.89117L-0.997639 1.75382L-0.920608 0.634781L1.07467 0.772133ZM0.556205 0.991447C1.78075 1.81102 3.17941 3.1315 4.04808 4.58911L2.33004 5.61299C1.64434 4.46241 0.47737 3.34529 -0.556205 2.65354L0.556205 0.991447ZM4.04767 4.58842C4.65345 5.60304 4.79686 6.51099 4.95317 8.40481L2.95995 8.56933C2.80377 6.67713 2.67592 6.19231 2.33045 5.61368L4.04767 4.58842ZM4.95307 8.40355L7.53072 39.1563L5.53771 39.3234L2.96006 8.5706L4.95307 8.40355ZM6.53422 38.2398H9.95V40.2398H6.53422V38.2398ZM8.95911 39.1052L14.196 0.568802L16.1778 0.838112L10.9409 39.3745L8.95911 39.1052ZM15.1867 1.70346L11.7925 1.70298L11.7928 -0.297024L15.187 -0.296543L15.1867 1.70346Z" fill="black" mask="url(#path-1-inside-1_1_414)"/>
</g>
<defs>
<linearGradient id="paint0_linear_1_414" x1="1838.96" y1="119.759" x2="2192.26" y2="-3944.41" gradientUnits="userSpaceOnUse">
<stop stop-color="#222357"/>
<stop offset="1" stop-color="#254AA5"/>
</linearGradient>
<clipPath id="clip0_1_414">
<rect width="40" height="40" fill="white"/>
</clipPath>
</defs>
</svg>
