<svg width="80" height="80" viewBox="0 0 80 80" fill="none" xmlns="http://www.w3.org/2000/svg">
<g clip-path="url(#clip0_1_58)">
<path d="M18.1819 79.6062V38.6072L8.59594 26.9749L0 20.5198V72.371C0 76.3743 2.44531 79.6062 5.45469 79.6062H18.1819Z" fill="#4285F4"/>
<path d="M61.8181 79.6063H74.5453C77.5637 79.6063 80 76.3623 80 72.371V20.5203L70.2637 27.9138L61.8181 38.6073V79.6063Z" fill="#34A853"/>
<path d="M18.1818 38.6073L16.8774 22.5878L18.1818 7.25562L39.9999 28.9609L61.8181 7.25562L63.2771 21.7601L61.8181 38.6073L39.9999 60.3126L18.1818 38.6073Z" fill="#EA4335"/>
<path d="M61.8181 7.25566V38.6074L80 20.5199V10.8731C80 1.92592 72.3 -3.1746 66.9094 2.1912L61.8181 7.25566Z" fill="#FBBC04"/>
<path d="M0 20.5199L8.36219 28.839L18.1819 38.6073V7.25561L13.0906 2.19115C7.69062 -3.17507 0 1.92586 0 10.8726V20.5194V20.5199Z" fill="#C5221F"/>
</g>
<defs>
<clipPath id="clip0_1_58">
<rect width="80" height="80" fill="white"/>
</clipPath>
</defs>
</svg>
