<svg width="40" height="40" viewBox="0 0 40 40" fill="none" xmlns="http://www.w3.org/2000/svg">
<g clip-path="url(#clip0_1_416)">
<path d="M7.27193 39.8014V37.154C7.27193 36.1389 6.79162 35.4772 5.96833 35.4772C5.55677 35.4772 5.11084 35.6537 4.80208 36.2274C4.56208 35.7419 4.21912 35.4772 3.70458 35.4772C3.36146 35.4772 3.01865 35.6095 2.74412 36.0949V35.5655H2.0238V39.8014H2.74412V37.4627C2.74412 36.7128 3.05287 36.3596 3.53318 36.3596C4.01318 36.3596 4.25349 36.7568 4.25349 37.4627V39.8014H4.9738V37.4627C4.9738 36.7128 5.31662 36.3596 5.76255 36.3596C6.24287 36.3596 6.48287 36.7568 6.48287 37.4627V39.8014H7.27193ZM17.9393 35.5655H16.7732V34.2859H16.0529V35.5655H15.4011V36.4036H16.0527V38.3454C16.0527 39.3162 16.3615 39.8897 17.1847 39.8897C17.4935 39.8897 17.8363 39.7574 18.0766 39.5809L17.8707 38.7866C17.6649 38.963 17.4249 39.0073 17.2533 39.0073C16.9104 39.0073 16.7732 38.7425 16.7732 38.3011V36.4036H17.9393V35.5655ZM24.0449 35.477C23.6333 35.477 23.359 35.7419 23.1874 36.0949V35.5655H22.4671V39.8014H23.1874V37.4187C23.1874 36.7128 23.4274 36.3156 23.8733 36.3156C24.0105 36.3156 24.1821 36.3598 24.3193 36.4038L24.5251 35.5214C24.3879 35.4772 24.1821 35.4772 24.0449 35.4772V35.477ZM14.818 35.9184C14.4749 35.6095 13.9947 35.4772 13.4802 35.4772C12.6571 35.4772 12.1083 36.0067 12.1083 36.8451C12.1083 37.5512 12.5199 37.9482 13.2402 38.0806L13.5832 38.1249C13.9605 38.2129 14.1663 38.3454 14.1663 38.5661C14.1663 38.8748 13.8919 39.0955 13.4116 39.0955C12.9315 39.0955 12.5541 38.8748 12.314 38.6543L11.971 39.3602C12.3483 39.7132 12.8629 39.8897 13.3772 39.8897C14.3377 39.8897 14.8866 39.3162 14.8866 38.5218C14.8866 37.7717 14.4407 37.3745 13.7546 37.2422L13.4116 37.198C13.1029 37.1538 12.8629 37.0658 12.8629 36.801C12.8629 36.4921 13.1029 36.3156 13.4802 36.3156C13.8919 36.3156 14.3035 36.5361 14.5093 36.6686L14.818 35.9184ZM33.9579 35.4772C33.5461 35.4772 33.2718 35.7419 33.1002 36.0949V35.5655H32.3799V39.8014H33.1002V37.4187C33.1002 36.7128 33.3404 36.3156 33.7861 36.3156C33.9235 36.3156 34.0951 36.3598 34.2322 36.4038L34.438 35.5214C34.3008 35.4772 34.0951 35.4772 33.9579 35.4772ZM24.7652 37.6834C24.7652 38.963 25.4511 39.8897 26.5146 39.8897C26.9947 39.8897 27.3377 39.7574 27.6807 39.4044L27.3377 38.6543C27.0633 38.919 26.789 39.0513 26.4802 39.0513C25.8971 39.0513 25.4855 38.5218 25.4855 37.6834C25.4855 36.8893 25.8971 36.3596 26.4802 36.3156C26.789 36.3156 27.0633 36.4479 27.3377 36.7128L27.6807 35.9626C27.3377 35.6095 26.9947 35.4772 26.5146 35.4772C25.4511 35.4772 24.7652 36.4038 24.7652 37.6834ZM31.4196 37.6834V35.5655H30.6993V36.0949C30.4591 35.6979 30.1161 35.4772 29.6702 35.4772C28.7441 35.4772 28.0238 36.4038 28.0238 37.6834C28.0238 38.963 28.7441 39.8897 29.6702 39.8897C30.1504 39.8897 30.4935 39.6692 30.6993 39.272V39.8014H31.4196V37.6834ZM28.7783 37.6834C28.7783 36.9333 29.1557 36.3156 29.773 36.3156C30.3561 36.3156 30.7679 36.8893 30.7679 37.6834C30.7679 38.4336 30.3561 39.0513 29.773 39.0513C29.1557 39.0071 28.7783 38.4336 28.7783 37.6834ZM20.169 35.4772C19.2085 35.4772 18.5224 36.3596 18.5224 37.6834C18.5224 39.0073 19.2083 39.8897 20.2032 39.8897C20.6833 39.8897 21.1636 39.7132 21.541 39.3162L21.1979 38.6543C20.9235 38.919 20.5805 39.0955 20.2376 39.0955C19.7916 39.0955 19.3457 38.8308 19.2427 38.0804H21.6782V37.7277C21.7126 36.3596 21.0952 35.4772 20.169 35.4772ZM20.169 36.2714C20.6147 36.2714 20.9236 36.6245 20.9921 37.2865H19.2771C19.3457 36.7128 19.6544 36.2714 20.169 36.2714ZM38.0396 37.6834V33.8887H37.3193V36.0949C37.0791 35.6979 36.7361 35.4772 36.2902 35.4772C35.3641 35.4772 34.6438 36.4038 34.6438 37.6834C34.6438 38.963 35.3641 39.8897 36.2902 39.8897C36.7705 39.8897 37.1135 39.6692 37.3193 39.272V39.8014H38.0396V37.6834ZM35.3985 37.6834C35.3985 36.9333 35.7757 36.3156 36.3932 36.3156C36.9763 36.3156 37.3879 36.8893 37.3879 37.6834C37.3879 38.4336 36.9763 39.0513 36.3932 39.0513C35.7757 39.0071 35.3985 38.4336 35.3985 37.6834ZM11.3193 37.6834V35.5655H10.599V36.0949C10.3588 35.6979 10.0158 35.4772 9.5699 35.4772C8.6438 35.4772 7.92349 36.4038 7.92349 37.6834C7.92349 38.963 8.6438 39.8897 9.5699 39.8897C10.0502 39.8897 10.3932 39.6692 10.599 39.272V39.8014H11.3193V37.6834ZM8.6438 37.6834C8.6438 36.9333 9.02115 36.3156 9.63849 36.3156C10.2216 36.3156 10.6333 36.8893 10.6333 37.6834C10.6333 38.4336 10.2216 39.0513 9.63849 39.0513C9.02115 39.0071 8.6438 38.4336 8.6438 37.6834Z" fill="black"/>
<path d="M14.5778 3.39746H25.3824V28.3725H14.5778V3.39746Z" fill="#FF5F00"/>
<path d="M15.2639 15.8852C15.2639 10.8109 17.1161 6.30995 19.963 3.39759C17.8708 1.2796 15.2297 0 12.3484 0C5.52234 0 0 7.10412 0 15.8852C0 24.6661 5.52234 31.7705 12.3483 31.7705C15.2295 31.7705 17.8706 30.4909 19.963 28.3727C17.1161 25.5045 15.2639 20.9596 15.2639 15.8852Z" fill="#EB001B"/>
<path d="M39.9603 15.8852C39.9603 24.6661 34.4379 31.7705 27.612 31.7705C24.7308 31.7705 22.0897 30.4909 19.9973 28.3727C22.8786 25.4605 24.6965 20.9596 24.6965 15.8852C24.6965 10.8109 22.8442 6.30995 19.9973 3.39759C22.0895 1.2796 24.7308 0 27.612 0C34.4379 0 39.9603 7.14834 39.9603 15.8852Z" fill="#F79E1B"/>
</g>
<rect x="0.5" y="0.5" width="39" height="39" stroke="black"/>
<defs>
<clipPath id="clip0_1_416">
<rect width="40" height="40" fill="white"/>
</clipPath>
</defs>
</svg>
