<svg width="40" height="40" viewBox="0 0 40 40" fill="none" xmlns="http://www.w3.org/2000/svg">
<g clip-path="url(#clip0_1_421)">
<path d="M33.9325 3.11383C31.7553 1.01025 27.8197 0.108398 22.7849 0.108398H8.17238C7.67423 0.108414 7.19242 0.259066 6.81359 0.533269C6.43475 0.807472 6.18373 1.18724 6.10566 1.60429L0.0212822 34.3152C-0.0996553 34.9602 0.489563 35.5443 1.26081 35.5443H10.2821L12.5477 23.3627L12.4774 23.7442C12.6388 22.8831 13.5075 22.248 14.5363 22.248H18.8232C27.2447 22.248 33.8389 19.3484 35.7652 10.9605C35.8224 10.7124 35.8719 10.4709 35.9147 10.235C35.6716 10.1259 35.6716 10.1259 35.9147 10.235C36.4883 7.13476 35.9108 5.02443 33.9325 3.11383Z" fill="#27346A"/>
<path d="M15.9996 9.1182C16.2462 9.01865 16.5159 8.96706 16.7891 8.96721H28.245C29.6016 8.96721 30.8669 9.04204 32.0232 9.19979C32.3467 9.24352 32.6686 9.29573 32.9883 9.35635C33.4415 9.44111 33.8894 9.54486 34.3305 9.66721C34.8989 9.82813 35.4283 10.0156 35.9149 10.235C36.4883 7.13356 35.9108 5.02443 33.9325 3.11383C31.7541 1.01025 27.8197 0.108398 22.7849 0.108398H8.17113C7.14222 0.108398 6.26691 0.743365 6.10566 1.60429L0.0212831 34.314C-0.0996544 34.9601 0.489564 35.5434 1.25956 35.5434H10.2821L14.9825 10.2758C15.0288 10.0275 15.1455 9.79233 15.3226 9.59068C15.4998 9.38903 15.7321 9.22688 15.9996 9.1182Z" fill="#27346A"/>
<path d="M35.7651 10.9598C33.8388 19.3466 27.2448 22.2474 18.8231 22.2474H14.5349C13.5062 22.2474 12.6373 22.8825 12.4774 23.7435L9.65885 38.8899C9.55354 39.4544 10.0685 39.9659 10.7423 39.9659H18.347C18.7826 39.9658 19.2039 39.834 19.5351 39.5941C19.8663 39.3542 20.0856 39.022 20.1537 38.6573L20.2278 38.3288L21.661 30.6287L21.7534 30.2031C21.8215 29.8384 22.0408 29.5063 22.3719 29.2664C22.7031 29.0265 23.1243 28.8946 23.5599 28.8945H24.6981C32.0648 28.8945 37.8331 26.3576 39.5187 19.0203C40.2223 15.9541 39.8582 13.3941 37.997 11.596C37.4324 11.0513 36.7313 10.6015 35.9146 10.2344C35.8704 10.4715 35.8224 10.7117 35.7651 10.9598Z" fill="#2790C3"/>
<path d="M33.8988 9.55342C33.5984 9.47908 33.2953 9.41326 32.9897 9.35607C32.6698 9.29645 32.348 9.24459 32.0246 9.20058C30.8671 9.04177 29.6027 8.9668 28.2449 8.9668H16.7904C16.517 8.96628 16.247 9.01831 16.0008 9.11899C15.7331 9.22734 15.5005 9.38939 15.3232 9.5911C15.146 9.79281 15.0294 10.0281 14.9836 10.2766L12.549 23.3624L12.4786 23.7439C12.6388 22.8828 13.5075 22.2477 14.5364 22.2477H18.8246C27.2461 22.2477 33.8402 19.3481 35.7664 10.9602C35.8238 10.7121 35.8719 10.4717 35.9161 10.2347C35.4283 10.0165 34.9004 9.82786 34.3318 9.66799C34.1883 9.62767 34.044 9.58948 33.8989 9.55342" fill="#1F264F"/>
</g>
<rect x="0.5" y="0.5" width="39" height="39" stroke="black"/>
<defs>
<clipPath id="clip0_1_421">
<rect width="40" height="40" fill="white"/>
</clipPath>
</defs>
</svg>
