<svg width="40" height="40" viewBox="0 0 40 40" fill="none" xmlns="http://www.w3.org/2000/svg">
<path d="M3 30.0469C3.25 27.0747 4.16 24.3385 5.73 21.8385C7.3 19.3385 9.39 17.3524 12 15.8802L8.91667 10.5469C8.75 10.2969 8.70833 10.033 8.79167 9.75521C8.875 9.47743 9.05556 9.2691 9.33333 9.13021C9.55556 8.99132 9.80556 8.96354 10.0833 9.04688C10.3611 9.13021 10.5833 9.29687 10.75 9.54687L13.8333 14.8802C16.2222 13.8802 18.7222 13.3802 21.3333 13.3802C23.9444 13.3802 26.4444 13.8802 28.8333 14.8802L31.9167 9.54687C32.0833 9.29687 32.3056 9.13021 32.5833 9.04688C32.8611 8.96354 33.1111 8.99132 33.3333 9.13021C33.6111 9.2691 33.7917 9.47743 33.875 9.75521C33.9583 10.033 33.9167 10.2969 33.75 10.5469L30.6667 15.8802C33.2778 17.3524 35.3678 19.3385 36.9367 21.8385C38.5056 24.3385 39.4156 27.0747 39.6667 30.0469H3ZM13 25.4635C13.5833 25.4635 14.0767 25.2619 14.48 24.8585C14.8833 24.4552 15.0844 23.9624 15.0833 23.3802C15.0833 22.7969 14.8817 22.3035 14.4783 21.9002C14.075 21.4969 13.5822 21.2958 13 21.2969C12.4167 21.2969 11.9233 21.4985 11.52 21.9019C11.1167 22.3052 10.9156 22.798 10.9167 23.3802C10.9167 23.9635 11.1183 24.4569 11.5217 24.8602C11.925 25.2635 12.4178 25.4647 13 25.4635ZM29.6667 25.4635C30.25 25.4635 30.7433 25.2619 31.1467 24.8585C31.55 24.4552 31.7511 23.9624 31.75 23.3802C31.75 22.7969 31.5483 22.3035 31.145 21.9002C30.7417 21.4969 30.2489 21.2958 29.6667 21.2969C29.0833 21.2969 28.59 21.4985 28.1867 21.9019C27.7833 22.3052 27.5822 22.798 27.5833 23.3802C27.5833 23.9635 27.785 24.4569 28.1883 24.8602C28.5917 25.2635 29.0844 25.4647 29.6667 25.4635Z" fill="black"/>
</svg>
