<svg width="40" height="40" viewBox="0 0 40 40" fill="none" xmlns="http://www.w3.org/2000/svg">
<path d="M3.48337 27.9999H6.25004V16.2666H3.48337M4.86671 14.7333C5.06648 14.7377 5.26512 14.7022 5.45097 14.6288C5.63683 14.5554 5.80614 14.4456 5.94898 14.3059C6.09182 14.1662 6.2053 13.9993 6.28276 13.8151C6.36021 13.6309 6.40009 13.4331 6.40004 13.2333C6.40004 12.3999 5.73337 11.7333 4.86671 11.7333C4.66694 11.7288 4.46829 11.7644 4.28244 11.8378C4.09659 11.9111 3.92727 12.0209 3.78443 12.1607C3.64159 12.3004 3.52812 12.4673 3.45066 12.6515C3.3732 12.8356 3.33332 13.0335 3.33337 13.2333C3.33337 14.0666 4.00004 14.7333 4.86671 14.7333ZM15.4167 11.7666C10.7667 11.7666 7.83337 14.9333 7.83337 19.9999C7.83337 25.0999 10.7667 28.2666 15.4167 28.2666C20.0667 28.2666 23 25.0999 23 19.9999C23 14.9333 20.0667 11.7666 15.4167 11.7666ZM15.4167 14.1666C18.2667 14.1666 20.0834 16.4499 20.0834 19.9999C20.0834 23.5833 18.2667 25.8333 15.4167 25.8333C12.5667 25.8333 10.7667 23.5833 10.7667 19.9999C10.7667 16.4499 12.5667 14.1666 15.4167 14.1666ZM24.1667 23.5166C24.2834 26.4499 26.6667 28.2666 30.3667 28.2666C34.2334 28.2666 36.6667 26.3666 36.6667 23.3333C36.6667 20.9499 35.3 19.6166 32.05 18.8666L30.2167 18.4499C28.25 17.9833 27.45 17.3666 27.45 16.2999C27.45 14.9999 28.6667 14.0833 30.4667 14.0833C32.3 14.0833 33.55 14.9999 33.6834 16.4833H36.4C36.3334 13.6666 34.0167 11.7666 30.4834 11.7666C27.0167 11.7666 24.55 13.6833 24.55 16.5166C24.55 18.7999 25.9334 20.2166 28.8834 20.8833L30.95 21.3666C32.9667 21.8499 33.7834 22.4999 33.7834 23.6666C33.7834 24.9999 32.45 25.9499 30.5167 25.9499C28.5834 25.9499 27.1 24.9999 26.9334 23.5166H24.1667Z" fill="black"/>
</svg>
