<svg width="150" height="150" viewBox="0 0 150 150" fill="none" xmlns="http://www.w3.org/2000/svg">
<rect width="150" height="150" fill="black"/>
<path d="M107.812 84.375H98.4375C97.1943 84.375 96.002 84.8689 95.1229 85.7479C94.2439 86.627 93.75 87.8193 93.75 89.0625V121.875C93.75 123.118 94.2439 124.31 95.1229 125.19C96.002 126.069 97.1943 126.562 98.4375 126.562C99.6807 126.562 100.873 126.069 101.752 125.19C102.631 124.31 103.125 123.118 103.125 121.875V117.188H107.812C112.164 117.188 116.337 115.459 119.413 112.382C122.49 109.305 124.219 105.132 124.219 100.781C124.219 96.43 122.49 92.257 119.413 89.1803C116.337 86.1035 112.164 84.375 107.812 84.375ZM107.812 107.812H103.125V93.75H107.812C109.677 93.75 111.466 94.4908 112.784 95.8094C114.103 97.128 114.844 98.9164 114.844 100.781C114.844 102.646 114.103 104.434 112.784 105.753C111.466 107.072 109.677 107.812 107.812 107.812ZM79.6875 89.0625V121.875C79.6875 123.118 79.1936 124.31 78.3146 125.19C77.4355 126.069 76.2432 126.562 75 126.562C73.7568 126.562 72.5645 126.069 71.6854 125.19C70.8064 124.31 70.3125 123.118 70.3125 121.875V89.0625C70.3125 87.8193 70.8064 86.627 71.6854 85.7479C72.5645 84.8689 73.7568 84.375 75 84.375C76.2432 84.375 77.4355 84.8689 78.3146 85.7479C79.1936 86.627 79.6875 87.8193 79.6875 89.0625ZM56.25 121.875C56.25 123.118 55.7561 124.31 54.8771 125.19C53.998 126.069 52.8057 126.562 51.5625 126.562H32.8125C31.9861 126.57 31.1724 126.359 30.454 125.95C29.7355 125.542 29.1378 124.951 28.7214 124.237C28.3049 123.523 28.0847 122.712 28.0828 121.886C28.081 121.059 28.2977 120.247 28.7109 119.531L43.4531 93.75H32.8125C31.5693 93.75 30.377 93.2561 29.4979 92.3771C28.6189 91.498 28.125 90.3057 28.125 89.0625C28.125 87.8193 28.6189 86.627 29.4979 85.7479C30.377 84.8689 31.5693 84.375 32.8125 84.375H51.5625C52.3889 84.3676 53.2026 84.5787 53.921 84.9871C54.6395 85.3955 55.2372 85.9866 55.6536 86.7004C56.0701 87.4143 56.2903 88.2255 56.2922 89.0519C56.294 89.8783 56.0773 90.6906 55.6641 91.4062L40.8926 117.188H51.5625C52.8057 117.188 53.998 117.681 54.8771 118.56C55.7561 119.44 56.25 120.632 56.25 121.875ZM125.191 48.2461L92.3789 15.4336C91.9433 14.9984 91.4262 14.6534 90.8571 14.4181C90.2881 14.1829 89.6783 14.062 89.0625 14.0625H32.8125C30.3261 14.0625 27.9415 15.0502 26.1834 16.8084C24.4252 18.5665 23.4375 20.9511 23.4375 23.4375V65.625C23.4375 66.8682 23.9314 68.0605 24.8104 68.9396C25.6895 69.8186 26.8818 70.3125 28.125 70.3125C29.3682 70.3125 30.5605 69.8186 31.4396 68.9396C32.3186 68.0605 32.8125 66.8682 32.8125 65.625V23.4375H84.375V51.5625C84.375 52.8057 84.8689 53.998 85.7479 54.8771C86.627 55.7561 87.8193 56.25 89.0625 56.25H117.188V65.625C117.188 66.8682 117.681 68.0605 118.56 68.9396C119.44 69.8186 120.632 70.3125 121.875 70.3125C123.118 70.3125 124.31 69.8186 125.19 68.9396C126.069 68.0605 126.562 66.8682 126.562 65.625V51.5625C126.563 50.9467 126.442 50.3369 126.207 49.7679C125.972 49.1989 125.627 48.6817 125.191 48.2461ZM93.75 46.875V30.0645L110.561 46.875H93.75Z" fill="white"/>
</svg>
