<svg width="358" height="108" viewBox="0 0 358 108" fill="none" xmlns="http://www.w3.org/2000/svg">
<g opacity="0.5" filter="url(#filter0_d_137_13)">
<path d="M4 50C4 22.3858 26.3858 0 54 0H304C331.614 0 354 22.3858 354 50C354 77.6142 331.614 100 304 100H54C26.3858 100 4 77.6142 4 50Z" fill="#0859D2"/>
<path d="M4.5 50C4.5 22.6619 26.6619 0.5 54 0.5H304C331.338 0.5 353.5 22.6619 353.5 50C353.5 77.3381 331.338 99.5 304 99.5H54C26.6619 99.5 4.5 77.3381 4.5 50Z" stroke="white"/>
</g>
<g filter="url(#filter1_d_137_13)">
<mask id="path-3-outside-1_137_13" maskUnits="userSpaceOnUse" x="133.5" y="40" width="91" height="28" fill="black">
<rect fill="white" x="133.5" y="40" width="91" height="28"/>
<path d="M148.177 60H145.663L137.459 50.9424V60H135.384V42.1533H137.459V50.7959L145.455 42.1533H147.835L139.938 50.8203L148.177 60ZM148.226 46.6211H150.399L153.353 54.3848C153.524 54.8405 153.683 55.2799 153.829 55.7031C153.976 56.1182 154.106 56.5169 154.22 56.8994C154.334 57.2819 154.423 57.6522 154.488 58.0103H154.574C154.688 57.6034 154.85 57.0703 155.062 56.4111C155.274 55.7438 155.501 55.0643 155.746 54.3726L158.541 46.6211H160.726L154.903 61.9653C154.594 62.7873 154.232 63.5034 153.817 64.1138C153.41 64.7241 152.914 65.1921 152.328 65.5176C151.742 65.8512 151.034 66.0181 150.204 66.0181C149.821 66.0181 149.483 65.9937 149.19 65.9448C148.897 65.9041 148.645 65.8553 148.434 65.7983V64.1748C148.613 64.2155 148.828 64.2521 149.081 64.2847C149.341 64.3172 149.61 64.3335 149.886 64.3335C150.391 64.3335 150.826 64.2358 151.192 64.0405C151.567 63.8534 151.888 63.5767 152.157 63.2104C152.425 62.8442 152.657 62.4089 152.853 61.9043L153.585 60.0244L148.226 46.6211ZM174.068 46.6211V60H172.03V48.3667H164.901V60H162.862V46.6211H174.068ZM180.392 46.6211V60H178.365V46.6211H180.392ZM179.403 41.6162C179.736 41.6162 180.021 41.7261 180.257 41.9458C180.501 42.1574 180.624 42.491 180.624 42.9468C180.624 43.3944 180.501 43.728 180.257 43.9478C180.021 44.1675 179.736 44.2773 179.403 44.2773C179.053 44.2773 178.76 44.1675 178.524 43.9478C178.296 43.728 178.182 43.3944 178.182 42.9468C178.182 42.491 178.296 42.1574 178.524 41.9458C178.76 41.7261 179.053 41.6162 179.403 41.6162ZM195.321 49.978C195.321 50.8162 195.077 51.4714 194.588 51.9434C194.1 52.4072 193.469 52.7205 192.696 52.8833V52.981C193.535 53.0949 194.255 53.396 194.857 53.8843C195.467 54.3644 195.772 55.1009 195.772 56.0938C195.772 56.8587 195.589 57.5342 195.223 58.1201C194.857 58.7061 194.283 59.1659 193.502 59.4995C192.721 59.8332 191.703 60 190.45 60H184.688V46.6211H190.401C191.362 46.6211 192.208 46.731 192.94 46.9507C193.681 47.1623 194.263 47.5122 194.686 48.0005C195.109 48.4888 195.321 49.1479 195.321 49.978ZM193.661 56.0938C193.661 55.3044 193.36 54.7347 192.757 54.3848C192.163 54.0348 191.297 53.8599 190.157 53.8599H186.727V58.3521H190.206C191.329 58.3521 192.184 58.1812 192.77 57.8394C193.364 57.4894 193.661 56.9076 193.661 56.0938ZM193.258 50.21C193.258 49.5752 193.026 49.1032 192.562 48.7939C192.098 48.4766 191.337 48.3179 190.279 48.3179H186.727V52.1631H189.925C191.024 52.1631 191.854 52.0044 192.416 51.687C192.977 51.3696 193.258 50.8773 193.258 50.21ZM209.078 60H207.015V48.3179H202.95C202.787 50.4256 202.58 52.2323 202.328 53.7378C202.083 55.2352 201.774 56.46 201.4 57.4121C201.034 58.3561 200.586 59.0519 200.057 59.4995C199.536 59.939 198.914 60.1587 198.189 60.1587C197.97 60.1587 197.762 60.1465 197.567 60.1221C197.372 60.0977 197.205 60.057 197.066 60V58.4619C197.172 58.4945 197.282 58.5189 197.396 58.5352C197.518 58.5514 197.644 58.5596 197.774 58.5596C198.141 58.5596 198.474 58.409 198.775 58.1079C199.085 57.7987 199.361 57.3348 199.605 56.7163C199.858 56.0978 200.082 55.3166 200.277 54.3726C200.472 53.4204 200.643 52.3014 200.79 51.0156C200.944 49.7217 201.078 48.2568 201.192 46.6211H209.078V60ZM213.998 60H211.629L215.487 54.3604C214.925 54.2383 214.404 54.0308 213.924 53.7378C213.444 53.4367 213.054 53.0257 212.752 52.5049C212.459 51.984 212.313 51.3371 212.313 50.564C212.313 49.2782 212.74 48.3016 213.595 47.6343C214.457 46.9588 215.593 46.6211 217 46.6211H222.921V60H220.895V54.6289H217.501L213.998 60ZM214.278 50.5762C214.278 51.3737 214.563 51.9678 215.133 52.3584C215.702 52.7409 216.516 52.9321 217.574 52.9321H220.895V48.3179H217.22C216.179 48.3179 215.426 48.5295 214.962 48.9526C214.506 49.3677 214.278 49.9089 214.278 50.5762Z"/>
</mask>
<path d="M148.177 60H145.663L137.459 50.9424V60H135.384V42.1533H137.459V50.7959L145.455 42.1533H147.835L139.938 50.8203L148.177 60ZM148.226 46.6211H150.399L153.353 54.3848C153.524 54.8405 153.683 55.2799 153.829 55.7031C153.976 56.1182 154.106 56.5169 154.22 56.8994C154.334 57.2819 154.423 57.6522 154.488 58.0103H154.574C154.688 57.6034 154.85 57.0703 155.062 56.4111C155.274 55.7438 155.501 55.0643 155.746 54.3726L158.541 46.6211H160.726L154.903 61.9653C154.594 62.7873 154.232 63.5034 153.817 64.1138C153.41 64.7241 152.914 65.1921 152.328 65.5176C151.742 65.8512 151.034 66.0181 150.204 66.0181C149.821 66.0181 149.483 65.9937 149.19 65.9448C148.897 65.9041 148.645 65.8553 148.434 65.7983V64.1748C148.613 64.2155 148.828 64.2521 149.081 64.2847C149.341 64.3172 149.61 64.3335 149.886 64.3335C150.391 64.3335 150.826 64.2358 151.192 64.0405C151.567 63.8534 151.888 63.5767 152.157 63.2104C152.425 62.8442 152.657 62.4089 152.853 61.9043L153.585 60.0244L148.226 46.6211ZM174.068 46.6211V60H172.03V48.3667H164.901V60H162.862V46.6211H174.068ZM180.392 46.6211V60H178.365V46.6211H180.392ZM179.403 41.6162C179.736 41.6162 180.021 41.7261 180.257 41.9458C180.501 42.1574 180.624 42.491 180.624 42.9468C180.624 43.3944 180.501 43.728 180.257 43.9478C180.021 44.1675 179.736 44.2773 179.403 44.2773C179.053 44.2773 178.76 44.1675 178.524 43.9478C178.296 43.728 178.182 43.3944 178.182 42.9468C178.182 42.491 178.296 42.1574 178.524 41.9458C178.76 41.7261 179.053 41.6162 179.403 41.6162ZM195.321 49.978C195.321 50.8162 195.077 51.4714 194.588 51.9434C194.1 52.4072 193.469 52.7205 192.696 52.8833V52.981C193.535 53.0949 194.255 53.396 194.857 53.8843C195.467 54.3644 195.772 55.1009 195.772 56.0938C195.772 56.8587 195.589 57.5342 195.223 58.1201C194.857 58.7061 194.283 59.1659 193.502 59.4995C192.721 59.8332 191.703 60 190.45 60H184.688V46.6211H190.401C191.362 46.6211 192.208 46.731 192.94 46.9507C193.681 47.1623 194.263 47.5122 194.686 48.0005C195.109 48.4888 195.321 49.1479 195.321 49.978ZM193.661 56.0938C193.661 55.3044 193.36 54.7347 192.757 54.3848C192.163 54.0348 191.297 53.8599 190.157 53.8599H186.727V58.3521H190.206C191.329 58.3521 192.184 58.1812 192.77 57.8394C193.364 57.4894 193.661 56.9076 193.661 56.0938ZM193.258 50.21C193.258 49.5752 193.026 49.1032 192.562 48.7939C192.098 48.4766 191.337 48.3179 190.279 48.3179H186.727V52.1631H189.925C191.024 52.1631 191.854 52.0044 192.416 51.687C192.977 51.3696 193.258 50.8773 193.258 50.21ZM209.078 60H207.015V48.3179H202.95C202.787 50.4256 202.58 52.2323 202.328 53.7378C202.083 55.2352 201.774 56.46 201.4 57.4121C201.034 58.3561 200.586 59.0519 200.057 59.4995C199.536 59.939 198.914 60.1587 198.189 60.1587C197.97 60.1587 197.762 60.1465 197.567 60.1221C197.372 60.0977 197.205 60.057 197.066 60V58.4619C197.172 58.4945 197.282 58.5189 197.396 58.5352C197.518 58.5514 197.644 58.5596 197.774 58.5596C198.141 58.5596 198.474 58.409 198.775 58.1079C199.085 57.7987 199.361 57.3348 199.605 56.7163C199.858 56.0978 200.082 55.3166 200.277 54.3726C200.472 53.4204 200.643 52.3014 200.79 51.0156C200.944 49.7217 201.078 48.2568 201.192 46.6211H209.078V60ZM213.998 60H211.629L215.487 54.3604C214.925 54.2383 214.404 54.0308 213.924 53.7378C213.444 53.4367 213.054 53.0257 212.752 52.5049C212.459 51.984 212.313 51.3371 212.313 50.564C212.313 49.2782 212.74 48.3016 213.595 47.6343C214.457 46.9588 215.593 46.6211 217 46.6211H222.921V60H220.895V54.6289H217.501L213.998 60ZM214.278 50.5762C214.278 51.3737 214.563 51.9678 215.133 52.3584C215.702 52.7409 216.516 52.9321 217.574 52.9321H220.895V48.3179H217.22C216.179 48.3179 215.426 48.5295 214.962 48.9526C214.506 49.3677 214.278 49.9089 214.278 50.5762Z" fill="white"/>
<path d="M148.177 60V61H150.419L148.921 59.332L148.177 60ZM145.663 60L144.921 60.6713L145.219 61H145.663V60ZM137.459 50.9424L138.201 50.2711L136.459 48.3485V50.9424H137.459ZM137.459 60V61H138.459V60H137.459ZM135.384 60H134.384V61H135.384V60ZM135.384 42.1533V41.1533H134.384V42.1533H135.384ZM137.459 42.1533H138.459V41.1533H137.459V42.1533ZM137.459 50.7959H136.459V53.3494L138.194 51.475L137.459 50.7959ZM145.455 42.1533V41.1533H145.018L144.721 41.4742L145.455 42.1533ZM147.835 42.1533L148.575 42.8269L150.1 41.1533H147.835V42.1533ZM139.938 50.8203L139.198 50.1468L138.589 50.8152L139.193 51.4883L139.938 50.8203ZM148.177 59H145.663V61H148.177V59ZM146.404 59.3287L138.201 50.2711L136.718 51.6137L144.921 60.6713L146.404 59.3287ZM136.459 50.9424V60H138.459V50.9424H136.459ZM137.459 59H135.384V61H137.459V59ZM136.384 60V42.1533H134.384V60H136.384ZM135.384 43.1533H137.459V41.1533H135.384V43.1533ZM136.459 42.1533V50.7959H138.459V42.1533H136.459ZM138.194 51.475L146.189 42.8324L144.721 41.4742L136.725 50.1168L138.194 51.475ZM145.455 43.1533H147.835V41.1533H145.455V43.1533ZM147.096 41.4798L139.198 50.1468L140.677 51.4939L148.575 42.8269L147.096 41.4798ZM139.193 51.4883L147.433 60.668L148.921 59.332L140.682 50.1523L139.193 51.4883ZM148.226 46.6211V45.6211H146.749L147.298 46.9923L148.226 46.6211ZM150.399 46.6211L151.334 46.2655L151.088 45.6211H150.399V46.6211ZM153.353 54.3848L154.289 54.0336L154.288 54.0291L153.353 54.3848ZM153.829 55.7031L152.884 56.0302L152.886 56.0359L153.829 55.7031ZM154.488 58.0103L153.504 58.1891L153.654 59.0103H154.488V58.0103ZM154.574 58.0103V59.0103H155.332L155.537 58.2799L154.574 58.0103ZM155.062 56.4111L156.014 56.7168L156.015 56.7134L155.062 56.4111ZM155.746 54.3726L154.805 54.0333L154.803 54.0397L155.746 54.3726ZM158.541 46.6211V45.6211H157.839L157.6 46.2818L158.541 46.6211ZM160.726 46.6211L161.661 46.9759L162.175 45.6211H160.726V46.6211ZM154.903 61.9653L153.968 61.6105L153.967 61.6132L154.903 61.9653ZM153.817 64.1138L152.99 63.5514L152.985 63.5591L153.817 64.1138ZM152.328 65.5176L151.842 64.6434L151.833 64.6486L152.328 65.5176ZM149.19 65.9448L149.355 64.9584L149.341 64.9562L149.328 64.9543L149.19 65.9448ZM148.434 65.7983H147.434V66.5647L148.174 66.764L148.434 65.7983ZM148.434 64.1748L148.655 63.1997L147.434 62.922V64.1748H148.434ZM149.081 64.2847L148.953 65.2765L148.957 65.2769L149.081 64.2847ZM151.192 64.0405L150.745 63.1461L150.733 63.152L150.722 63.1582L151.192 64.0405ZM152.853 61.9043L151.921 61.5413L151.92 61.5433L152.853 61.9043ZM153.585 60.0244L154.517 60.3874L154.66 60.0197L154.513 59.6532L153.585 60.0244ZM148.226 47.6211H150.399V45.6211H148.226V47.6211ZM149.464 46.9767L152.418 54.7404L154.288 54.0291L151.334 46.2655L149.464 46.9767ZM152.417 54.7359C152.585 55.1843 152.741 55.6158 152.884 56.0302L154.774 55.376C154.625 54.9441 154.463 54.4967 154.289 54.0336L152.417 54.7359ZM152.886 56.0359C153.028 56.4369 153.153 56.8198 153.261 57.1849L155.178 56.6139C155.059 56.214 154.924 55.7994 154.772 55.3703L152.886 56.0359ZM153.261 57.1849C153.366 57.5356 153.446 57.8703 153.504 58.1891L155.472 57.8314C155.4 57.4341 155.301 57.0282 155.178 56.6139L153.261 57.1849ZM154.488 59.0103H154.574V57.0103H154.488V59.0103ZM155.537 58.2799C155.646 57.8902 155.804 57.3705 156.014 56.7168L154.11 56.1055C153.897 56.7701 153.73 57.3165 153.611 57.7406L155.537 58.2799ZM156.015 56.7134C156.223 56.0568 156.448 55.3875 156.689 54.7054L154.803 54.0397C154.555 54.7411 154.324 55.4309 154.109 56.1089L156.015 56.7134ZM156.686 54.7118L159.482 46.9603L157.6 46.2818L154.805 54.0333L156.686 54.7118ZM158.541 47.6211H160.726V45.6211H158.541V47.6211ZM159.791 46.2663L153.968 61.6105L155.838 62.3201L161.661 46.9759L159.791 46.2663ZM153.967 61.6132C153.681 62.3746 153.353 63.0176 152.99 63.5515L154.644 64.6761C155.111 63.9893 155.507 63.2 155.839 62.3175L153.967 61.6132ZM152.985 63.5591C152.658 64.0496 152.276 64.4024 151.842 64.6434L152.813 66.3917C153.551 65.9817 154.162 65.3986 154.649 64.6685L152.985 63.5591ZM151.833 64.6486C151.429 64.8786 150.9 65.0181 150.204 65.0181V67.0181C151.167 67.0181 152.055 66.8238 152.822 66.3866L151.833 64.6486ZM150.204 65.0181C149.861 65.0181 149.581 64.9961 149.355 64.9584L149.026 66.9312C149.386 66.9912 149.781 67.0181 150.204 67.0181V65.0181ZM149.328 64.9543C149.063 64.9175 148.854 64.8759 148.694 64.8327L148.174 66.764C148.437 66.8348 148.732 66.8907 149.053 66.9353L149.328 64.9543ZM149.434 65.7983V64.1748H147.434V65.7983H149.434ZM148.212 65.1499C148.431 65.1998 148.68 65.2413 148.953 65.2764L149.209 63.2929C148.977 63.263 148.794 63.2312 148.655 63.1997L148.212 65.1499ZM148.957 65.2769C149.26 65.3149 149.57 65.3335 149.886 65.3335V63.3335C149.649 63.3335 149.422 63.3195 149.205 63.2924L148.957 65.2769ZM149.886 65.3335C150.52 65.3335 151.124 65.2104 151.663 64.9229L150.722 63.1582C150.528 63.2613 150.262 63.3335 149.886 63.3335V65.3335ZM151.64 64.935C152.168 64.6708 152.609 64.285 152.963 63.8018L151.35 62.6191C151.168 62.8683 150.966 63.0359 150.745 63.1461L151.64 64.935ZM152.963 63.8018C153.292 63.3527 153.564 62.8367 153.785 62.2653L151.92 61.5433C151.751 61.981 151.558 62.3358 151.35 62.6191L152.963 63.8018ZM153.784 62.2673L154.517 60.3874L152.653 59.6614L151.921 61.5413L153.784 62.2673ZM154.513 59.6532L149.155 46.2498L147.298 46.9923L152.656 60.3957L154.513 59.6532ZM174.068 46.6211H175.068V45.6211H174.068V46.6211ZM174.068 60V61H175.068V60H174.068ZM172.03 60H171.03V61H172.03V60ZM172.03 48.3667H173.03V47.3667H172.03V48.3667ZM164.901 48.3667V47.3667H163.901V48.3667H164.901ZM164.901 60V61H165.901V60H164.901ZM162.862 60H161.862V61H162.862V60ZM162.862 46.6211V45.6211H161.862V46.6211H162.862ZM173.068 46.6211V60H175.068V46.6211H173.068ZM174.068 59H172.03V61H174.068V59ZM173.03 60V48.3667H171.03V60H173.03ZM172.03 47.3667H164.901V49.3667H172.03V47.3667ZM163.901 48.3667V60H165.901V48.3667H163.901ZM164.901 59H162.862V61H164.901V59ZM163.862 60V46.6211H161.862V60H163.862ZM162.862 47.6211H174.068V45.6211H162.862V47.6211ZM180.392 46.6211H181.392V45.6211H180.392V46.6211ZM180.392 60V61H181.392V60H180.392ZM178.365 60H177.365V61H178.365V60ZM178.365 46.6211V45.6211H177.365V46.6211H178.365ZM180.257 41.9458L179.576 42.6777L179.589 42.6898L179.602 42.7015L180.257 41.9458ZM180.257 43.9478L179.588 43.2045L179.582 43.2101L179.576 43.2159L180.257 43.9478ZM178.524 43.9478L177.83 44.6676L177.836 44.6737L177.843 44.6796L178.524 43.9478ZM178.524 41.9458L179.204 42.6786L179.205 42.6777L178.524 41.9458ZM179.392 46.6211V60H181.392V46.6211H179.392ZM180.392 59H178.365V61H180.392V59ZM179.365 60V46.6211H177.365V60H179.365ZM178.365 47.6211H180.392V45.6211H178.365V47.6211ZM179.403 42.6162C179.493 42.6162 179.532 42.6368 179.576 42.6777L180.939 41.2139C180.511 40.8154 179.98 40.6162 179.403 40.6162V42.6162ZM179.602 42.7015C179.584 42.6854 179.584 42.6745 179.593 42.6983C179.604 42.7289 179.624 42.8046 179.624 42.9468H181.624C181.624 42.3244 181.454 41.6598 180.912 41.1901L179.602 42.7015ZM179.624 42.9468C179.624 43.0825 179.605 43.1568 179.593 43.1891C179.583 43.2155 179.579 43.2126 179.588 43.2045L180.926 44.691C181.449 44.2202 181.624 43.5707 181.624 42.9468H179.624ZM179.576 43.2159C179.532 43.2568 179.493 43.2773 179.403 43.2773V45.2773C179.98 45.2773 180.511 45.0782 180.939 44.6796L179.576 43.2159ZM179.403 43.2773C179.282 43.2773 179.24 43.2479 179.205 43.2159L177.843 44.6796C178.28 45.0871 178.824 45.2773 179.403 45.2773V43.2773ZM179.218 43.2279C179.231 43.2404 179.225 43.2434 179.214 43.2096C179.201 43.1705 179.182 43.0889 179.182 42.9468H177.182C177.182 43.5516 177.337 44.1926 177.83 44.6676L179.218 43.2279ZM179.182 42.9468C179.182 42.7984 179.201 42.7153 179.214 42.6779C179.225 42.6463 179.227 42.6576 179.204 42.6786L177.843 41.213C177.333 41.6874 177.182 42.3436 177.182 42.9468H179.182ZM179.205 42.6777C179.24 42.6457 179.282 42.6162 179.403 42.6162V40.6162C178.824 40.6162 178.28 40.8065 177.843 41.2139L179.205 42.6777ZM194.588 51.9434L195.277 52.6684L195.283 52.6623L194.588 51.9434ZM192.696 52.8833L192.49 51.9048L191.696 52.0719V52.8833H192.696ZM192.696 52.981H191.696V53.8542L192.562 53.9718L192.696 52.981ZM194.857 53.8843L194.227 54.661L194.233 54.6657L194.239 54.6702L194.857 53.8843ZM193.502 59.4995L193.109 58.5799L193.502 59.4995ZM184.688 60H183.688V61H184.688V60ZM184.688 46.6211V45.6211H183.688V46.6211H184.688ZM192.94 46.9507L192.653 47.9086L192.666 47.9122L192.94 46.9507ZM194.686 48.0005L193.93 48.6554L194.686 48.0005ZM192.757 54.3848L192.25 55.2464L192.255 55.2494L192.757 54.3848ZM186.727 53.8599V52.8599H185.727V53.8599H186.727ZM186.727 58.3521H185.727V59.3521H186.727V58.3521ZM192.77 57.8394L193.273 58.7031L193.277 58.701L192.77 57.8394ZM192.562 48.7939L191.997 49.6193L192.007 49.626L192.562 48.7939ZM186.727 48.3179V47.3179H185.727V48.3179H186.727ZM186.727 52.1631H185.727V53.1631H186.727V52.1631ZM194.321 49.978C194.321 50.6129 194.143 50.9832 193.893 51.2244L195.283 52.6623C196.01 51.9595 196.321 51.0196 196.321 49.978H194.321ZM193.9 51.2184C193.567 51.5339 193.114 51.7735 192.49 51.9048L192.902 53.8619C193.825 53.6676 194.633 53.2805 195.277 52.6684L193.9 51.2184ZM191.696 52.8833V52.981H193.696V52.8833H191.696ZM192.562 53.9718C193.235 54.0634 193.78 54.2985 194.227 54.661L195.487 53.1075C194.729 52.4934 193.834 52.1264 192.831 51.9901L192.562 53.9718ZM194.239 54.6702C194.543 54.9098 194.772 55.3144 194.772 56.0938H196.772C196.772 54.8875 196.391 53.8191 195.475 53.0983L194.239 54.6702ZM194.772 56.0938C194.772 56.692 194.632 57.1798 194.375 57.5901L196.071 58.6501C196.547 57.8885 196.772 57.0254 196.772 56.0938H194.772ZM194.375 57.5901C194.14 57.9664 193.746 58.3079 193.109 58.5799L193.895 60.4192C194.82 60.0238 195.574 59.4457 196.071 58.6501L194.375 57.5901ZM193.109 58.5799C192.497 58.8415 191.627 59 190.45 59V61C191.78 61 192.945 60.8248 193.895 60.4192L193.109 58.5799ZM190.45 59H184.688V61H190.45V59ZM185.688 60V46.6211H183.688V60H185.688ZM184.688 47.6211H190.401V45.6211H184.688V47.6211ZM190.401 47.6211C191.288 47.6211 192.034 47.7228 192.653 47.9085L193.228 45.9929C192.382 45.7391 191.435 45.6211 190.401 45.6211V47.6211ZM192.666 47.9122C193.256 48.0808 193.657 48.34 193.93 48.6554L195.442 47.3456C194.869 46.6844 194.106 46.2437 193.215 45.9892L192.666 47.9122ZM193.93 48.6554C194.155 48.9151 194.321 49.3184 194.321 49.978H196.321C196.321 48.9775 196.063 48.0625 195.442 47.3456L193.93 48.6554ZM194.661 56.0938C194.661 55.0051 194.216 54.076 193.26 53.5201L192.255 55.2494C192.503 55.3934 192.661 55.6036 192.661 56.0938H194.661ZM193.265 53.5231C192.447 53.0414 191.371 52.8599 190.157 52.8599V54.8599C191.222 54.8599 191.879 55.0282 192.25 55.2464L193.265 53.5231ZM190.157 52.8599H186.727V54.8599H190.157V52.8599ZM185.727 53.8599V58.3521H187.727V53.8599H185.727ZM186.727 59.3521H190.206V57.3521H186.727V59.3521ZM190.206 59.3521C191.403 59.3521 192.465 59.1748 193.273 58.7031L192.266 56.9756C191.902 57.1875 191.255 57.3521 190.206 57.3521V59.3521ZM193.277 58.701C194.236 58.136 194.661 57.1862 194.661 56.0938H192.661C192.661 56.6289 192.491 56.8428 192.262 56.9777L193.277 58.701ZM194.258 50.21C194.258 49.295 193.901 48.4847 193.117 47.9619L192.007 49.626C192.151 49.7216 192.258 49.8554 192.258 50.21H194.258ZM193.127 47.9686C192.404 47.4745 191.387 47.3179 190.279 47.3179V49.3179C191.287 49.3179 191.792 49.4786 191.997 49.6193L193.127 47.9686ZM190.279 47.3179H186.727V49.3179H190.279V47.3179ZM185.727 48.3179V52.1631H187.727V48.3179H185.727ZM186.727 53.1631H189.925V51.1631H186.727V53.1631ZM189.925 53.1631C191.09 53.1631 192.125 53.0001 192.908 52.5576L191.923 50.8164C191.583 51.0087 190.958 51.1631 189.925 51.1631V53.1631ZM192.908 52.5576C193.796 52.0553 194.258 51.2224 194.258 50.21H192.258C192.258 50.5322 192.158 50.6839 191.923 50.8164L192.908 52.5576ZM209.078 60V61H210.078V60H209.078ZM207.015 60H206.015V61H207.015V60ZM207.015 48.3179H208.015V47.3179H207.015V48.3179ZM202.95 48.3179V47.3179H202.024L201.953 48.2409L202.95 48.3179ZM202.328 53.7378L201.341 53.5725L201.341 53.5769L202.328 53.7378ZM201.4 57.4121L200.469 57.0462L200.468 57.0504L201.4 57.4121ZM200.057 59.4995L200.702 60.2638L200.703 60.2629L200.057 59.4995ZM197.066 60H196.066V60.6697L196.686 60.9247L197.066 60ZM197.066 58.4619L197.36 57.5061L196.066 57.108V58.4619H197.066ZM197.396 58.5352L197.255 59.5251L197.264 59.5264L197.396 58.5352ZM199.605 56.7163L198.679 56.3386L198.675 56.3491L199.605 56.7163ZM200.277 54.3726L201.256 54.5752L201.256 54.5735L200.277 54.3726ZM200.79 51.0156L199.797 50.897L199.796 50.9024L200.79 51.0156ZM201.192 46.6211V45.6211H200.26L200.195 46.5516L201.192 46.6211ZM209.078 46.6211H210.078V45.6211H209.078V46.6211ZM209.078 59H207.015V61H209.078V59ZM208.015 60V48.3179H206.015V60H208.015ZM207.015 47.3179H202.95V49.3179H207.015V47.3179ZM201.953 48.2409C201.792 50.3294 201.587 52.1049 201.341 53.5725L203.314 53.9031C203.573 52.3596 203.783 50.5219 203.947 48.3949L201.953 48.2409ZM201.341 53.5769C201.103 55.0343 200.808 56.1836 200.469 57.0462L202.331 57.778C202.74 56.7363 203.064 55.4361 203.315 53.8987L201.341 53.5769ZM200.468 57.0504C200.136 57.9056 199.767 58.4348 199.411 58.7361L200.703 60.2629C201.405 59.669 201.932 58.8067 202.332 57.7738L200.468 57.0504ZM199.412 58.7352C199.084 59.0124 198.694 59.1587 198.189 59.1587V61.1587C199.134 61.1587 199.989 60.8655 200.702 60.2638L199.412 58.7352ZM198.189 59.1587C198.006 59.1587 197.841 59.1485 197.691 59.1298L197.443 61.1143C197.684 61.1445 197.933 61.1587 198.189 61.1587V59.1587ZM197.691 59.1298C197.558 59.1132 197.482 59.0897 197.447 59.0753L196.686 60.9247C196.927 61.0242 197.185 61.0822 197.443 61.1143L197.691 59.1298ZM198.066 60V58.4619H196.066V60H198.066ZM196.772 59.4177C196.93 59.4662 197.091 59.5017 197.255 59.5251L197.537 57.5452C197.473 57.536 197.414 57.5227 197.36 57.5061L196.772 59.4177ZM197.264 59.5264C197.432 59.5488 197.603 59.5596 197.774 59.5596V57.5596C197.686 57.5596 197.604 57.554 197.528 57.5439L197.264 59.5264ZM197.774 59.5596C198.449 59.5596 199.027 59.2707 199.482 58.815L198.068 57.4008C197.922 57.5474 197.832 57.5596 197.774 57.5596V59.5596ZM199.482 58.815C199.926 58.3719 200.265 57.7695 200.536 57.0835L198.675 56.3491C198.458 56.9001 198.244 57.2254 198.068 57.4008L199.482 58.815ZM200.531 57.094C200.814 56.4001 201.053 55.5552 201.256 54.5752L199.298 54.17C199.11 55.0779 198.901 55.7955 198.68 56.3386L200.531 57.094ZM201.256 54.5735C201.459 53.5846 201.634 52.4351 201.783 51.1288L199.796 50.9024C199.652 52.1678 199.485 53.2562 199.297 54.1716L201.256 54.5735ZM201.782 51.1343C201.939 49.8205 202.075 48.3388 202.19 46.6906L200.195 46.5516C200.082 48.1749 199.949 49.6229 199.797 50.897L201.782 51.1343ZM201.192 47.6211H209.078V45.6211H201.192V47.6211ZM208.078 46.6211V60H210.078V46.6211H208.078ZM213.998 60V61H214.539L214.835 60.5463L213.998 60ZM211.629 60L210.804 59.4354L209.734 61H211.629V60ZM215.487 54.3604L216.312 54.9249L217.151 53.6987L215.699 53.3832L215.487 54.3604ZM213.924 53.7378L213.393 54.585L213.403 54.5914L213.924 53.7378ZM212.752 52.5049L211.881 52.9952L211.887 53.0054L212.752 52.5049ZM213.595 47.6343L214.21 48.4224L214.211 48.4216L213.595 47.6343ZM222.921 46.6211H223.921V45.6211H222.921V46.6211ZM222.921 60V61H223.921V60H222.921ZM220.895 60H219.895V61H220.895V60ZM220.895 54.6289H221.895V53.6289H220.895V54.6289ZM217.501 54.6289V53.6289H216.959L216.663 54.0826L217.501 54.6289ZM215.133 52.3584L214.567 53.1832L214.575 53.1886L215.133 52.3584ZM220.895 52.9321V53.9321H221.895V52.9321H220.895ZM220.895 48.3179H221.895V47.3179H220.895V48.3179ZM214.962 48.9526L215.635 49.692L215.636 49.6914L214.962 48.9526ZM213.998 59H211.629V61H213.998V59ZM212.455 60.5646L216.312 54.9249L214.661 53.7958L210.804 59.4354L212.455 60.5646ZM215.699 53.3832C215.244 53.2843 214.828 53.1178 214.445 52.8842L213.403 54.5914C213.981 54.9438 214.606 55.1923 215.274 55.3375L215.699 53.3832ZM214.456 52.8906C214.122 52.6814 213.843 52.3931 213.618 52.0044L211.887 53.0054C212.264 53.6584 212.766 54.192 213.393 54.585L214.456 52.8906ZM213.624 52.0146C213.436 51.6812 213.313 51.2145 213.313 50.564H211.313C211.313 51.4596 211.482 52.2869 211.881 52.9951L213.624 52.0146ZM213.313 50.564C213.313 49.5219 213.645 48.864 214.21 48.4224L212.979 46.8461C211.836 47.7392 211.313 49.0344 211.313 50.564H213.313ZM214.211 48.4216C214.853 47.919 215.752 47.6211 217 47.6211V45.6211C215.434 45.6211 214.062 45.9986 212.978 46.8469L214.211 48.4216ZM217 47.6211H222.921V45.6211H217V47.6211ZM221.921 46.6211V60H223.921V46.6211H221.921ZM222.921 59H220.895V61H222.921V59ZM221.895 60V54.6289H219.895V60H221.895ZM220.895 53.6289H217.501V55.6289H220.895V53.6289ZM216.663 54.0826L213.16 59.4537L214.835 60.5463L218.339 55.1752L216.663 54.0826ZM213.278 50.5762C213.278 51.6444 213.68 52.575 214.567 53.1831L215.698 51.5337C215.446 51.3606 215.278 51.1029 215.278 50.5762H213.278ZM214.575 53.1886C215.377 53.7268 216.418 53.9321 217.574 53.9321V51.9321C216.615 51.9321 216.028 51.755 215.69 51.5282L214.575 53.1886ZM217.574 53.9321H220.895V51.9321H217.574V53.9321ZM221.895 52.9321V48.3179H219.895V52.9321H221.895ZM220.895 47.3179H217.22V49.3179H220.895V47.3179ZM217.22 47.3179C216.083 47.3179 215.025 47.5419 214.288 48.2139L215.636 49.6914C215.827 49.5171 216.274 49.3179 217.22 49.3179V47.3179ZM214.289 48.2133C213.606 48.8347 213.278 49.6535 213.278 50.5762H215.278C215.278 50.1642 215.406 49.9007 215.635 49.692L214.289 48.2133Z" fill="white" mask="url(#path-3-outside-1_137_13)"/>
</g>
<defs>
<filter id="filter0_d_137_13" x="0" y="0" width="358" height="108" filterUnits="userSpaceOnUse" color-interpolation-filters="sRGB">
<feFlood flood-opacity="0" result="BackgroundImageFix"/>
<feColorMatrix in="SourceAlpha" type="matrix" values="0 0 0 0 0 0 0 0 0 0 0 0 0 0 0 0 0 0 127 0" result="hardAlpha"/>
<feOffset dy="4"/>
<feGaussianBlur stdDeviation="2"/>
<feComposite in2="hardAlpha" operator="out"/>
<feColorMatrix type="matrix" values="0 0 0 0 0 0 0 0 0 0 0 0 0 0 0 0 0 0 0.25 0"/>
<feBlend mode="normal" in2="BackgroundImageFix" result="effect1_dropShadow_137_13"/>
<feBlend mode="normal" in="SourceGraphic" in2="effect1_dropShadow_137_13" result="shape"/>
</filter>
<filter id="filter1_d_137_13" x="131.384" y="41.6172" width="95.5366" height="32.4004" filterUnits="userSpaceOnUse" color-interpolation-filters="sRGB">
<feFlood flood-opacity="0" result="BackgroundImageFix"/>
<feColorMatrix in="SourceAlpha" type="matrix" values="0 0 0 0 0 0 0 0 0 0 0 0 0 0 0 0 0 0 127 0" result="hardAlpha"/>
<feOffset dy="4"/>
<feGaussianBlur stdDeviation="2"/>
<feComposite in2="hardAlpha" operator="out"/>
<feColorMatrix type="matrix" values="0 0 0 0 0 0 0 0 0 0 0 0 0 0 0 0 0 0 0.25 0"/>
<feBlend mode="normal" in2="BackgroundImageFix" result="effect1_dropShadow_137_13"/>
<feBlend mode="normal" in="SourceGraphic" in2="effect1_dropShadow_137_13" result="shape"/>
</filter>
</defs>
</svg>
