<svg width="33" height="33" viewBox="0 0 33 33" fill="none" xmlns="http://www.w3.org/2000/svg">
<path d="M22.47 6.23259e-05C16.9325 6.23259e-05 12.47 4.46256 12.47 10.0001C12.47 10.2938 12.5162 10.6913 12.5487 11.0551L1.84496 21.7576C1.26029 22.3384 0.796281 23.0292 0.479645 23.7902C0.16301 24.5511 0 25.3671 0 26.1913C0 27.0155 0.16301 27.8315 0.479645 28.5925C0.796281 29.3534 1.26029 30.0442 1.84496 30.6251C2.42585 31.2097 3.11664 31.6737 3.87756 31.9904C4.63849 32.307 5.45453 32.47 6.27871 32.47C7.10289 32.47 7.91893 32.307 8.67986 31.9904C9.44079 31.6737 10.1316 31.2097 10.7125 30.6251L21.415 19.9213C21.7775 19.9538 22.1775 20.0001 22.47 20.0001C28.0075 20.0001 32.47 15.5376 32.47 10.0001C32.4766 8.38881 32.0731 6.80237 31.2975 5.39006L30.5162 3.94506L29.345 5.11756L23.9537 10.4676L22.0012 8.51506L27.3512 3.12506L28.5262 1.95256L27.08 1.17131C25.6671 0.397222 24.081 -0.00576568 22.47 6.23259e-05ZM22.47 2.50006C23.0775 2.50006 23.53 2.76256 24.07 2.89131L19.345 7.61631L18.445 8.51631L19.345 9.37506L23.095 13.1251L23.955 14.0251L24.8525 13.1251L29.58 8.40006C29.7087 8.94006 29.97 9.39256 29.97 10.0001C29.97 14.2126 26.6825 17.5001 22.47 17.5001C21.97 17.5001 21.57 17.5001 21.2575 17.4213L20.595 17.2263L20.0875 17.7351L8.95371 28.8688C7.41621 30.4063 5.14121 30.4063 3.60371 28.8688L3.56371 28.8288C2.06371 27.2913 2.07621 25.0413 3.60121 23.5163L14.735 12.3838L15.2437 11.8763L15.0462 11.2138C14.9712 10.9013 14.9687 10.5013 14.9687 10.0013C14.9687 5.78881 18.2562 2.50131 22.4687 2.50131L22.47 2.50006Z" fill="white"/>
</svg>
