<svg width="80" height="80" viewBox="0 0 80 80" fill="none" xmlns="http://www.w3.org/2000/svg">
<g clip-path="url(#clip0_1_40)">
<path d="M61.25 0H18.75C8.39466 0 0 8.39466 0 18.75V61.25C0 71.6053 8.39466 80 18.75 80H61.25C71.6053 80 80 71.6053 80 61.25V18.75C80 8.39466 71.6053 0 61.25 0Z" fill="#5865F2"/>
<path fill-rule="evenodd" clip-rule="evenodd" d="M46.7316 70.7934C55.8206 70.7862 64.9231 70.8412 74.0253 70.7934L76.5953 56.6665H3.125L6.03219 70.7934C19.5978 70.7046 33.1722 70.8037 46.7316 70.7934Z" fill="#98A0F7"/>
<path fill-rule="evenodd" clip-rule="evenodd" d="M67.4112 57.2097H12.3087V38.7281C12.3087 22.5172 24.6437 9.375 39.86 9.375C55.0762 9.375 67.4112 22.5172 67.4112 38.7281V57.2097Z" fill="#98A0F7"/>
<path d="M10.8618 47.2572V20.4407M69.0259 47.2572V20.4407" stroke="#202225" stroke-width="3.37" stroke-linecap="round" stroke-linejoin="round"/>
<path fill-rule="evenodd" clip-rule="evenodd" d="M70.5565 36.9287H9.33091C8.20435 36.9287 7.29028 40.0928 7.29028 43.9953C7.29028 47.899 8.20435 51.0618 9.33091 51.0618H70.5565C71.6834 51.0618 72.5975 47.899 72.5975 43.9953C72.5975 40.0928 71.6834 36.9287 70.5565 36.9287Z" fill="white"/>
<path fill-rule="evenodd" clip-rule="evenodd" d="M45.5397 34.9232C42.7966 39.0151 37.091 39.0151 34.3482 34.9232C33.0566 32.9982 30.9732 31.8557 28.7513 31.8557H22.5794C20.0526 31.8557 18.0054 34.0382 18.0054 36.7298V54.142H61.8835V36.7298C61.8835 34.0382 59.8354 31.8557 57.3085 31.8557H51.1366C48.9147 31.8557 46.831 32.9982 45.5397 34.9232Z" fill="white"/>
<path fill-rule="evenodd" clip-rule="evenodd" d="M43.0053 30.4515C43.0053 28.6512 41.6344 27.1899 39.9438 27.1899C38.2531 27.1899 36.8822 28.6512 36.8822 30.4515C36.8822 32.2521 38.2531 33.7134 39.9438 33.7134C41.6344 33.7134 43.0053 32.2521 43.0053 30.4515Z" fill="white"/>
<path fill-rule="evenodd" clip-rule="evenodd" d="M30.25 43.8148C30.25 41.7126 28.6513 40.0085 26.6784 40.0085C24.7059 40.0085 23.1066 41.7126 23.1066 43.8148C23.1066 45.9157 24.7059 47.6198 26.6784 47.6198C28.6513 47.6198 30.25 45.9157 30.25 43.8148ZM56.7809 43.8148C56.7809 41.7126 55.1819 40.0085 53.2094 40.0085C51.2366 40.0085 49.6375 41.7126 49.6375 43.8148C49.6375 45.9157 51.2366 47.6198 53.2094 47.6198C55.1819 47.6198 56.7809 45.9157 56.7809 43.8148Z" fill="black"/>
<path fill-rule="evenodd" clip-rule="evenodd" d="M63.4131 65.4847C63.4131 64.585 62.7281 63.8538 61.8834 63.8538C61.0375 63.8538 60.3528 64.585 60.3528 65.4847C60.3528 66.3856 61.0375 67.1156 61.8834 67.1156C62.7281 67.1156 63.4131 66.3856 63.4131 65.4847ZM58.3119 65.4847C58.3119 64.585 57.6269 63.8538 56.781 63.8538C55.935 63.8538 55.2503 64.585 55.2503 65.4847C55.2503 66.3856 55.935 67.1156 56.781 67.1156C57.6269 67.1156 58.3119 66.3856 58.3119 65.4847ZM53.2094 65.4847C53.2094 64.585 52.5244 63.8538 51.6785 63.8538C50.8338 63.8538 50.1478 64.585 50.1478 65.4847C50.1478 66.3856 50.8338 67.1156 51.6785 67.1156C52.5244 67.1156 53.2094 66.3856 53.2094 65.4847Z" fill="white"/>
</g>
<defs>
<clipPath id="clip0_1_40">
<rect width="80" height="80" fill="white"/>
</clipPath>
</defs>
</svg>
