<svg width="40" height="39" viewBox="0 0 40 39" fill="none" xmlns="http://www.w3.org/2000/svg">
<path d="M20 0C8.95161 0 0 8.67188 0 19.375C0 30.0781 8.95161 38.75 20 38.75C31.0484 38.75 40 30.0781 40 19.375C40 8.67188 31.0484 0 20 0ZM29.8226 13.2734L26.5403 28.2578C26.2984 29.3203 25.6452 29.5781 24.7339 29.0781L19.7339 25.5078L17.3226 27.7578C17.0565 28.0156 16.8306 28.2344 16.3145 28.2344L16.6694 23.3047L25.9355 15.1953C26.3387 14.8516 25.8468 14.6562 25.3145 15L13.8629 21.9844L8.92742 20.4922C7.85484 20.1641 7.83065 19.4531 9.15323 18.9531L28.4355 11.75C29.3306 11.4375 30.1129 11.9609 29.8226 13.2734Z" fill="white"/>
</svg>
