<svg width="40" height="29" viewBox="0 0 40 29" fill="none" xmlns="http://www.w3.org/2000/svg">
<path d="M0 28.3333V25H6.66667L3.33333 21.6667V0H36.6667V21.6667L33.3333 25H40V28.3333H0ZM6.66667 21.6667H33.3333V3.33333H6.66667V21.6667ZM20 26.6667C20.4722 26.6667 20.8683 26.5067 21.1883 26.1867C21.5083 25.8667 21.6678 25.4711 21.6667 25C21.6667 24.5278 21.5067 24.1317 21.1867 23.8117C20.8667 23.4917 20.4711 23.3322 20 23.3333C19.5278 23.3333 19.1317 23.4933 18.8117 23.8133C18.4917 24.1333 18.3322 24.5289 18.3333 25C18.3333 25.4722 18.4933 25.8683 18.8133 26.1883C19.1333 26.5083 19.5289 26.6678 20 26.6667Z" fill="black"/>
</svg>
